<svg xmlns="http://www.w3.org/2000/svg" viewBox="0 0 1348.14 1160.7"><defs><style>.cls-1{fill:#f3e0d5;}</style></defs><g id="レイヤー_2" data-name="レイヤー 2"><g id="レイヤー_1-2" data-name="レイヤー 1"><path class="cls-1" d="M2.63,790.71c-14.15-84,30-174.6,104.78-215.28,17.48-9.5,36.74-16.76,50.76-30.88C184.4,518.13,184.84,476,179.78,439.1s-13.71-75.65-.2-110.33c15.64-40.15,57-63.95,97.35-79s83.81-25,118.05-51.17c27.44-21,46.65-50.59,68.48-77.35C511,63,575.74,15.55,649.9,3S807.33,18.29,847.75,81.74c16.73,26.26,25.57,56.87,41.61,83.57,50.5,84.05,156.93,110.75,243.23,157.32,53.37,28.8,106.11,76.7,104.63,137.32-.91,37.45-22.89,73.26-17.54,110.33,5.86,40.56,41.69,68.64,69.34,98.88,55.3,60.48,82,157.77,34.57,224.57-38.45,54.08-111.33,71.3-159.51,116.94-26.8,25.39-44.93,58.64-70.57,85.2-65.14,67.44-174.1,81.34-261,46-31.66-12.88-61.08-31.52-94-40.64C614.67,1067,481.14,1174.47,360,1131.68c-87.76-31-121.76-124.3-196.8-170.78-33.94-21-69.59-27.9-99.86-57.29C32.16,873.38,9.86,833.68,2.63,790.71Z"/></g></g></svg>