<svg xmlns="http://www.w3.org/2000/svg" viewBox="0 0 875.18 753.5"><defs><style>.cls-1{fill:#fae1e7;}</style></defs><g id="レイヤー_2" data-name="レイヤー 2"><g id="レイヤー_1-2" data-name="レイヤー 1"><path class="cls-1" d="M1.7,513.31C-7.48,458.8,21.16,400,69.73,373.56c11.34-6.17,23.85-10.88,33-20.05,17-17.15,17.31-44.52,14-68.46s-8.9-49.1-.13-71.62c10.15-26.06,37-41.52,63.19-51.26s54.41-16.25,76.64-33.22c17.82-13.61,30.29-32.84,44.46-50.22,30.87-37.84,72.89-68.63,121-76.81s102.2,10,128.44,51.14c10.86,17,16.6,36.92,27,54.25,32.79,54.57,101.88,71.9,157.9,102.13,34.64,18.7,68.88,49.79,67.92,89.15-.59,24.31-14.86,47.56-11.38,71.62,3.8,26.33,27.06,44.56,45,64.19,35.9,39.27,53.27,102.42,22.44,145.79-25,35.11-72.27,46.29-103.55,75.91-17.39,16.48-29.16,38.07-45.81,55.31-42.28,43.79-113,52.81-169.4,29.86-20.56-8.37-39.65-20.47-61-26.39-80.41-22.24-167.1,47.55-245.77,19.78-57-20.12-79-80.7-127.75-110.87-22-13.64-45.18-18.11-64.83-37.19C20.88,567,6.4,541.2,1.7,513.31Z"/></g></g></svg>