<svg xmlns="http://www.w3.org/2000/svg" viewBox="0 0 1201.33 1034.3"><defs><style>.cls-1{fill:#f2c2cd;}</style></defs><g id="レイヤー_2" data-name="レイヤー 2"><g id="レイヤー_1-2" data-name="レイヤー 1"><path class="cls-1" d="M2.34,704.61C-10.26,629.78,29.05,549,95.71,512.77c15.58-8.47,32.75-14.94,45.23-27.52,23.38-23.54,23.77-61.11,19.26-94S148,323.88,160,293c13.93-35.78,50.76-57,86.74-70.37S321.45,200.31,352,177c24.45-18.68,41.57-45.08,61-68.93C455.37,56.13,513.05,13.86,579.13,2.63S719.41,16.3,755.43,72.84c14.91,23.4,22.79,50.67,37.08,74.46,45,74.9,139.84,98.7,216.74,140.2,47.56,25.66,94.56,68.34,93.24,122.37-.81,33.37-20.4,65.28-15.63,98.31,5.22,36.14,37.15,61.16,61.79,88.11,49.28,53.9,73.12,140.59,30.81,200.11-34.27,48.2-99.21,63.55-142.14,104.21-23.89,22.63-40,52.26-62.89,75.92-58,60.1-155.14,72.49-232.53,41-28.22-11.49-54.43-28.1-83.79-36.22-110.37-30.54-229.37,65.27-337.35,27.14-78.2-27.61-108.5-110.76-175.37-152.18-30.24-18.73-62-24.86-89-51C28.66,778.27,8.79,742.89,2.34,704.61Z"/></g></g></svg>