<svg xmlns="http://www.w3.org/2000/svg" viewBox="0 0 104.3 21.45"><defs><style>.cls-1{fill:#fff;}.cls-2{fill:#feb250;}.cls-3{fill:#893a2f;opacity:0.65;}.cls-4{fill:#e0cbb6;}</style></defs><g id="レイヤー_2" data-name="レイヤー 2"><g id="レイヤー_1-2" data-name="レイヤー 1"><rect class="cls-1" x="27.16" y="10.33" width="50.18" height="3.8"/><path class="cls-2" d="M75.89,16.37h-50V14.14H75.77a1.59,1.59,0,0,0,1.29-1.79,1.92,1.92,0,0,0-1.36-2H25.9V8.1h50l.11,0a4.14,4.14,0,0,1,3.25,4.23,3.79,3.79,0,0,1-3.36,4Z"/><rect class="cls-1" x="31.97" y="2.24" width="50.18" height="3.8"/><path class="cls-3" d="M80.7,8.28h-50V6H80.58c.33,0,1.29-.33,1.29-1.79a1.91,1.91,0,0,0-1.36-2H30.71V0h50l.11,0a4.15,4.15,0,0,1,3.25,4.23,3.79,3.79,0,0,1-3.36,4Z"/><rect class="cls-4" y="16.37" width="104.3" height="5.07"/></g></g></svg>