<svg xmlns="http://www.w3.org/2000/svg" viewBox="0 0 62.07 59.91"><defs><style>.cls-1{fill:#9e796a;}.cls-2{fill:#fff;}.cls-3{fill:#ebdac5;}</style></defs><g id="レイヤー_2" data-name="レイヤー 2"><g id="レイヤー_1-2" data-name="レイヤー 1"><circle class="cls-1" cx="32.12" cy="29.95" r="29.95"/><circle class="cls-2" cx="29.95" cy="29.95" r="29.95" transform="translate(-8.34 11.83) rotate(-19.67)"/><path class="cls-3" d="M31.31,2.73c-.45,0-.9,0-1.36,0a27.19,27.19,0,0,0,0,54.37c.46,0,.91,0,1.36,0a27.18,27.18,0,0,0,0-54.3Z"/><path class="cls-2" d="M28.32,8.8A1.64,1.64,0,1,0,30,7.17,1.64,1.64,0,0,0,28.32,8.8Z"/><circle class="cls-2" cx="29.95" cy="29.95" r="2.72" transform="translate(-6.08 7.68) rotate(-13.28)"/><circle class="cls-2" cx="51.79" cy="29.95" r="1.63"/><circle class="cls-2" cx="7.91" cy="29.88" r="1.63"/><path class="cls-2" d="M28.32,50.73A1.64,1.64,0,1,0,30,49.09,1.63,1.63,0,0,0,28.32,50.73Z"/><rect class="cls-2" x="29.25" y="16.17" width="1.63" height="12.15" transform="translate(60.13 44.5) rotate(180)"/><rect class="cls-2" x="36.38" y="9.76" width="0.82" height="23.15" transform="translate(52.22 60.97) rotate(-141.39)"/></g></g></svg>