<?xml version="1.0" encoding="UTF-8"?>
<svg id="_レイヤー_2" data-name="レイヤー 2" xmlns="http://www.w3.org/2000/svg" viewBox="0 0 741.01 321.69">
  <defs>
    <style>
      .cls-1 {
        fill: #f76430;
      }
    </style>
  </defs>
  <g id="_レイヤー_1-2" data-name="レイヤー 1">
    <g>
      <path class="cls-1" d="m104.87,32.31l4.03-18.61h8.41l-8.21,27.94h-7.77l-5.73-18.7-5.78,18.7h-7.72l-8.6-27.94h8.45l4.57,18.61,5.44-18.61h7.29l5.64,18.61Z"/>
      <path class="cls-1" d="m154.37,33.28c-.63,1.99-1.12,3.11-2.57,4.71-3.16,3.35-7.34,4.71-11.85,4.71-9.23,0-15.26-5.68-15.26-15.01s5.83-15.01,14.87-15.01c5.49,0,10.54,2.48,13.21,7.43,1.55,2.92,1.99,5.98,2.19,9.23h-22.35c.19,4.62,2.57,7.53,7.34,7.53,2.92,0,5.15-.87,6.46-3.6h7.97Zm-14.67-14.77c-2.23,0-4.28.87-5.59,2.72-.68.97-1.07,1.99-1.41,3.16h14.28c-1.12-3.5-3.45-5.88-7.29-5.88Z"/>
      <path class="cls-1" d="m170.88,41.64h-7.09V3.35h7.82v13.75c1.12-1.75,2.04-2.72,3.98-3.55,1.65-.68,3.26-.87,4.96-.87,8.75,0,12.53,7.04,12.53,14.96,0,8.31-4.08,15.06-13.07,15.06-4.03,0-7-1.41-8.99-4.96l-.15,3.89Zm.83-14.04c0,4.32,1.51,8.6,6.51,8.6s6.46-4.32,6.46-8.6-1.46-8.55-6.46-8.55-6.51,4.28-6.51,8.55Z"/>
      <path class="cls-1" d="m227.96,1.65l8.21.44c.68.05.73.29.73.53,0,.39-.39.68-.73.83v7.92h8.45v7.58h-8.5c-.1,3.4-.44,7.73-1.8,11.56-2.09,6.02-7.43,12-14.04,14.67-1.51-2.43-3.64-4.37-5.98-6.02,4.91-1.7,9.72-5.15,11.9-10.01,1.36-2.96,1.6-5.98,1.75-10.2h-8.41v10.83h-7.87v-10.83h-9.23v-7.58h9.23V1.94l7.63.44c.78.05,1.02.19,1.02.58,0,.29-.24.49-.78.78v7.63h8.41V1.65Z"/>
      <path class="cls-1" d="m281.2,44.41h-8.36v-22.11c-4.32,2.62-8.75,5.05-13.46,6.9-1.41-2.67-3.55-5.05-5.83-6.95,6.32-1.8,13.31-5.15,18.7-8.94,4.86-3.35,10.74-8.7,14.38-13.31l6.66,5.25c.24.19.39.49.39.78,0,.44-.39.63-.78.63-.15,0-.53-.05-.97-.15-2.57,3.11-7.53,7.38-10.74,9.96v27.94Z"/>
      <path class="cls-1" d="m318.94,14.23c5.54,2.82,12.58,7,16.96,11.42-1.6,2.28-3.11,4.52-4.57,6.8-4.57-4.28-9.72-7.82-15.16-10.79v22.79h-8.21V1.55l8.21.39c.83.05.92.24.92.53,0,.49-.58.68-.92.73v14.92l2.77-3.89Z"/>
      <path class="cls-1" d="m350.52,38.72l-4.81-4.81,11.42-11.42-11.42-11.42,4.81-4.81,11.42,11.42,11.42-11.42,4.81,4.81-11.42,11.42,11.42,11.42-4.81,4.81-11.42-11.42-11.42,11.42Z"/>
      <path class="cls-1" d="m415.71,17.59h14.92v6.95h-15.45c-1.41,10.06-7.19,16.32-16.23,20.41-1.7-2.43-3.5-4.42-5.98-6.07,7.04-2.48,13.21-6.32,14.38-14.33h-18.46v-6.95h18.75v-5.39c-3.79.68-7.63,1.21-11.47,1.41-1.12-2.77-1.94-4.23-3.64-6.71,6.56,0,11.85-.58,18.17-2.38,3.26-.92,6.17-2.04,9.04-3.89l5.73,5.05c.53.44.58.68.58.83,0,.39-.34.63-.68.63-.15,0-.39-.05-.78-.24-2.53,1.36-6.12,2.58-8.89,3.35v7.34Z"/>
      <path class="cls-1" d="m473.91,14.23c1.41,0,2.82-.1,4.18-.44l4.71,3.35c-1.6,2.96-2.72,5.1-4.23,8.11-5.39,10.59-12.05,16.18-22.06,20.36-1.26-2.14-3.45-4.57-5.3-6.27,4.91-1.7,9.43-3.84,13.21-7.38,3.11-2.92,5.64-6.66,7.14-10.64h-29.15v-7.09h31.48Zm2.87-11.32v6.95h-28.18V2.92h28.18Z"/>
      <path class="cls-1" d="m511.16,17.78c-1.51,1.65-3.55,4.52-4.71,6.46-3.4-2.87-6.95-4.91-11.03-6.61l4.37-6.51c2.96,1.12,9.09,4.52,11.37,6.66Zm21.28-6.27c1.12,2.38,3.11,4.76,5,6.56-3.64,5.44-10.49,11.95-15.74,15.89-4.86,3.64-12.05,7.92-17.73,10.01-.05.49-.19,1.12-.83,1.12-.29,0-.58-.39-.73-.63l-4.18-7.19c13.02-4.47,26.53-14.24,34.2-25.75Zm-15.55-5.44c-1.02,1.17-3.64,4.76-4.62,6.32-3.64-2.58-7.68-4.57-11.81-6.12l4.23-5.93c4.52,1.65,8.02,3.25,12.19,5.73Z"/>
      <path class="cls-1" d="m556.19,6.22V1.17l6.41.24c.63,0,1.12.05,1.12.63,0,.53-.68.78-1.12.92v3.26h8.45v6.41h-8.45v2.92h9.28v6.36h-9.28v1.99h8.79v14.14c0,1.7-.05,2.87-1.7,3.79-1.41.78-3.6.78-5.2.78-.1-1.8-1.02-3.84-1.89-5.39v8.16h-6.41v-14.96h-1.94v12.68h-6.8v-19.19h8.75v-1.99h-10.4v-6.36h10.4v-2.92h-4.86c-.29.63-.63,1.21-1.02,1.85-1.6-.78-4.13-1.89-5.88-2.09,1.94-3.3,3.06-6.32,3.74-10.11l6.17.87c.39.05.78.24.78.68,0,.58-.78.87-1.21.97-.05.29-.24.97-.39,1.41h2.67Zm7.72,30.07c1.07,0,1.12-.68,1.12-1.55v-4.32h-2.43v5.73c.39.1.92.15,1.31.15Zm16.57-29.54c.49.05,1.07.1,1.07.63,0,.34-.15.49-1.07.97v26.67h-6.9V6.22l6.9.53Zm8.84-5.64c.44,0,1.21.1,1.21.68,0,.34-.34.63-1.21,1.12v36.15c0,4.37-1.99,5.68-4.81,6.12-1.46.19-2.43.24-5,.34-.34-2.77-1.21-4.52-2.72-6.85.97.1,2.72.24,3.6.24,1.6,0,2.04-.29,2.04-1.8V.83l6.9.29Z"/>
      <path class="cls-1" d="m621.43.49l7.68,2.09c.34.1.58.39.58.73,0,.44-.39.58-1.46.63-.19.53-1.31,3.26-1.55,3.79h16.96v6.61h-12.15v4.28h10.64v6.32h-10.64v4.23h11.61v6.66h-11.61v9.67h-7.48V14.33h-.63c-1.94,3.35-3.4,5.59-5.93,8.55-1.55-1.36-3.89-2.77-5.78-3.5v26.09h-7.19v-22.35c-.24.29-.68.78-1.07,1.17-1.46-1.75-3.84-3.74-5.93-4.62,2.57-2.23,5.68-6.61,7.43-9.57,1.6-2.72,3.3-6.56,4.18-9.57l7.53,2.09c.34.1.68.24.68.63,0,.63-.97.63-1.41.63-1.26,3.01-2.23,5.2-3.84,8.11l.34.19c.58.34.68.53.68.73,0,.53-1.02.73-1.41.78v4.52c4.62-5,8.02-11.13,9.77-17.73Z"/>
    </g>
    <g>
      <g>
        <path class="cls-1" d="m26.47,161.23c-1.23,6.82-3.95,13.98-8.3,19.57-2.3,2.88-5.02,5.26-7.89,7.56-2.3-2.96-6.91-6.99-10.28-8.63,5.26-3.45,9.37-8.22,11.84-13.98,1.73-4.03,3.04-8.8,3.04-19.07v-31.98h51.47v60.92c0,3.86-.16,5.67-1.48,7.65-2.88,4.19-9.04,4.19-13.57,4.19-1.97,0-2.3,0-3.45-.08-.25-3.7-2.14-10.36-4.11-13.48,1.56.33,4.93.9,6.74.9,2.8,0,2.96-1.73,2.96-4.69v-8.88h-26.97Zm26.97-34.94h-26.06v5.84h26.06v-5.84Zm0,23.1v-5.92h-26.06v5.92h26.06Z"/>
        <path class="cls-1" d="m157.86,140.11c-2.55,2.14-4.28,3.95-6.58,6.66-6,7.07-12,14.22-17.92,21.46,2.55,2.47,4.6,4.69,6.66,7.56l-8.3,10.44c-7.65-10.03-14.14-16.36-24.83-23.18l8.88-8.96c2.71,1.73,5.26,3.62,7.73,5.59,4.11-4.44,7.89-9.13,11.59-13.81h-19.98c-6.58,8.8-12.09,14.72-20.72,21.54l-9.95-9.13c6.91-5.1,11.76-9.29,17.26-15.87,7.48-8.96,10.85-15.79,14.96-26.56,2.63,1.07,11.67,4.93,13.07,5.76.41.25.74.66.74,1.07,0,.58-.41.9-1.23,1.23-.99.33-1.23.58-1.81,1.4-1.32,2.8-2.8,5.51-4.28,8.14h13.4c3.95,0,8.71,0,10.61-.9l10.69,7.56Z"/>
      </g>
      <g>
        <path class="cls-1" d="m239.13,148.08h11.15v14.56h-11.15v19.52h-15.18v-19.52h-51.11l66.29-91.39v76.83Zm-15.18.31v-33.3l-23.54,33.3h23.54Z"/>
        <path class="cls-1" d="m272.74,162.8l13.63,5.27-19.21,38.26-10.22-4.18,15.8-39.34Z"/>
        <path class="cls-1" d="m310.53,177.2l24.32-31.13c-2.01.46-3.72.62-5.58.62-12.24,0-19.98-5.42-24.16-9.6-5.27-5.27-9.45-12.86-9.45-23.54s4.03-19.52,10.22-25.87c6.51-6.66,15.18-10.53,26.64-10.53,14.1,0,22.3,5.73,26.64,10.22,4.34,4.49,8.98,11.93,8.98,23.39,0,7.44-1.7,13.32-4.96,19.67-3.87,7.74-7.9,12.39-12.55,18.43l-28.66,36.86-11.46-8.52Zm36.09-50.19c3.87-4.03,6.04-9.91,6.04-15.33s-2.17-11-6.04-14.71c-3.87-3.72-9.45-5.89-14.71-5.89-5.73,0-11.31,2.63-14.71,5.89-3.41,3.41-6.04,8.83-6.04,15.18,0,5.73,2.17,11.46,6.04,15.33,3.41,3.25,8.83,5.73,14.56,5.73,5.27,0,10.84-2.01,14.87-6.2Z"/>
        <path class="cls-1" d="m444.66,136.78c3.87,5.11,4.65,10.84,4.65,15.49,0,10.53-4.03,17.66-8.21,21.99-4.8,5.11-12.55,9.6-24.32,9.6s-19.52-4.49-24.32-9.6c-4.18-4.34-8.21-11.46-8.21-21.99,0-4.65.77-10.38,4.65-15.49,2.32-3.25,6.04-6.35,10.84-8.36-4.34-1.86-7.28-4.96-9.14-7.74-2.63-4.18-3.72-9.45-3.72-14.1,0-8.21,2.94-15.95,8.67-21.53,3.25-3.1,9.91-7.9,21.22-7.9s17.97,4.8,21.22,7.9c5.73,5.58,8.67,13.32,8.67,21.53,0,4.65-1.08,9.91-3.72,14.1-1.86,2.79-4.8,5.89-9.14,7.74,4.8,2.01,8.52,5.11,10.84,8.36Zm-40.12,3.25c-3.1,3.1-4.8,8.05-4.8,12.55,0,4.03,1.55,8.67,4.65,12.08,2.17,2.48,6.04,5.27,12.39,5.27s10.22-2.79,12.39-5.27c3.1-3.41,4.65-8.05,4.65-12.08,0-4.49-1.7-9.45-4.8-12.55-3.1-3.1-7.74-4.8-12.24-4.8s-9.14,1.7-12.24,4.8Zm.93-44.76c-2.63,2.63-4.34,6.82-4.34,11.46s1.86,8.52,4.18,10.84c2.79,2.94,7.43,4.65,11.46,4.65s8.67-1.7,11.46-4.65c2.32-2.32,4.18-6.04,4.18-10.84s-1.7-8.83-4.34-11.46c-2.63-2.48-6.51-4.18-11.31-4.18s-8.67,1.7-11.31,4.18Z"/>
        <path class="cls-1" d="m481.37,172.71c-10.84-12.39-13.17-28.66-13.17-42.13s2.32-29.89,13.17-42.29c6.51-7.43,14.25-11.15,23.39-11.15s16.88,3.72,23.39,11.15c10.84,12.39,13.17,28.96,13.17,42.29s-2.32,29.74-13.17,42.13c-6.51,7.43-14.1,11.15-23.39,11.15s-16.88-3.72-23.39-11.15Zm9.45-73.11c-5.73,8.52-7.12,21.84-7.12,30.82s1.39,22.3,7.12,30.98c4.49,6.81,9.91,8.52,13.94,8.52s9.45-1.7,13.94-8.52c5.73-8.67,7.12-21.84,7.12-30.98s-1.39-22.3-7.12-30.82c-4.49-6.81-9.91-8.52-13.94-8.52s-9.45,1.7-13.94,8.52Z"/>
      </g>
      <path class="cls-1" d="m577.15,157.44v27.74h-11.5v-64.44h61.24v54.54c0,2.18-.44,4.3-1.82,6.04-2.4,3.13-8.08,3.71-12.16,3.71-1.24,0-2.11-.07-3.35-.29-.44-4.44-1.31-8.16-3.57-12.01,2.4.58,4.44.95,6.92.95,2.77,0,2.77-.95,2.77-2.84v-13.4h-38.52Zm13.62-26.14h-13.62v15.8h13.62v-15.8Zm24.9,15.8v-15.8h-13.83v15.8h13.83Z"/>
      <path class="cls-1" d="m675.57,111.4c8.39,0,15.22,4.79,21.21,10.19,4.91,4.55,9.83,8.99,16.66,8.99,9.71,0,15.94-7.91,20.74-15.34l6.83,9.71c-6.47,9.83-14.74,17.38-27.21,17.38-8.51,0-14.74-3.84-20.74-9.35-6.83-6.35-10.91-9.83-17.86-9.83-9.23,0-15.7,8.27-20.14,15.34l-6.11-9.59c6.35-9.59,14.26-17.5,26.61-17.5Z"/>
      <g>
        <path class="cls-1" d="m665.39,184.22c-1.74-2.09-2.93-3.8-3.98-6.37-1.02-2.51-1.53-5.21-1.53-7.93s.51-5.42,1.53-7.93c1.05-2.57,2.24-4.28,3.98-6.37l2.63,2.3c-1.38,1.71-2.36,3.08-3.2,5.15-.9,2.15-1.35,4.55-1.35,6.85s.45,4.73,1.35,6.85c.84,2.06,1.8,3.44,3.2,5.15l-2.63,2.3Z"/>
        <path class="cls-1" d="m682.6,162.29h2.66c-.63-1.26-1.8-3.11-2.66-4.19l3.65-1.94c1.05,1.11,2.54,3.53,3.26,4.91-.96.33-1.8.75-2.69,1.23h2.66c1.44-1.88,2.45-3.95,3.26-6.16l4.61,1.59c.18.06.33.21.33.36,0,.45-.48.48-1.05.48-.63,1.38-1.23,2.48-2.09,3.74h2.96v10.5h-3.32v5.86c0,.48,0,.78.51.78.75,0,.93-.39,1.17-3.08,1.02.84,2.33,1.79,3.53,2.3-.12,1.14-.57,2.51-1.23,3.47-.63.93-1.23,1.05-2.3,1.05h-3.35c-1.92,0-2.63-1.02-2.63-2.84v-7.54h-3.29l2.54.78c.21.06.3.15.3.36,0,.36-.36.45-.66.48-.78,4.46-2.54,7.3-6.55,9.52-.63-.93-1.97-2.18-2.9-2.81v2.45h-4.37v-7.54c-.48,1.08-.96,2.12-1.53,3.17-1.05-1.23-2.24-2.12-3.53-3.02,2.36-3.02,3.77-5.21,4.91-8.89h-3.92v-3.83h4.07v-2.03c-.84.18-1.65.3-2.51.39-.57-1.29-1.35-2.51-2.18-3.65,2.63-.06,7.54-1.05,9.87-2.21l2.27,3.29c.06.09.09.3.09.39,0,.24-.27.33-.45.33-.21,0-.45-.15-.63-.27-.72.3-1.35.51-2.09.72v3.05h2.36v3.83h-2.36v.66c.93,1.71,1.92,2.9,3.29,4.25v-9.9Zm-2.48,13.08c-.3-.39-.57-.81-.81-1.2v6.55c1.65-.54,3.2-2,4.07-3.5.84-1.41,1.14-2.78,1.2-4.43h-1.95c-1.05.9-1.71,1.5-2.51,2.57Zm6.61-6.34h6.67v-2.96h-6.67v2.96Z"/>
        <path class="cls-1" d="m712.97,170.01c1.2-2.03,2.18-5.12,2.48-7.42l1.65.33c-.03-.51-.06-1.44-.06-1.97h-4.46v-4.31h8.95c-.21,1.11-.27,2.21-.27,3.32,0,2.3.27,4.91.9,7.12.51,1.68,1.38,3.23,2.45,4.61,1.11,1.38,2.3,2.57,3.68,3.68-1.38,1.11-2.12,1.71-3.17,3.17-3.02-1.97-6.16-6.64-7.09-10.11-1.08,2.78-1.86,4.4-3.65,6.82-.72.93-1.53,1.86-2.51,2.54-.66-1.11-1.92-2.15-3.14-2.54v1.44c.39,2.36,2.03,2.51,5.6,2.51,5.63,0,9.13-.09,14.72-.54-.75,1.29-1.47,3.05-1.59,4.55h-13.73c-2.66,0-6.04-.33-7.48-2.9-1.14.78-1.65,1.11-2.27,1.47-.75.42-1.23.69-1.74,1.02-.09.63-.18,1.02-.48,1.02-.24,0-.36-.18-.51-.6l-1.53-4.1c1.53-.42,3.17-1.23,4.46-2.15v-5.48h-3.14v-4.16h7.69v7.57c1.5-1.11,3.32-3.29,4.25-4.88Zm-4.01-9.49c-1.2.9-2.12,1.74-3.08,2.9-1.56-1.62-3.2-2.96-5.09-4.16l3.05-2.9c1.62,1.02,3.8,2.75,5.12,4.16Z"/>
        <path class="cls-1" d="m734.34,176.77c.87-2.12,1.35-4.55,1.35-6.85s-.48-4.7-1.35-6.85c-.87-2.06-1.83-3.44-3.23-5.15l2.63-2.3c1.74,2.09,2.93,3.8,3.98,6.37,1.02,2.51,1.53,5.21,1.53,7.93s-.51,5.42-1.53,7.93c-1.05,2.57-2.24,4.28-3.98,6.37l-2.63-2.3c1.41-1.71,2.36-3.08,3.23-5.15Z"/>
      </g>
    </g>
    <g>
      <g>
        <path class="cls-1" d="m103.77,307.25c-1.37-2.08-3.56-4-5.8-5.09v4.71h-7.55v-17.13c-1.53,1.42-2.96,2.63-4.65,3.83-1.42-2.13-3.07-4.16-5.25-5.53,5.47-3.5,11.33-8.65,14.01-14.61h-11.28v-7.39h7.17v-9.41l7.94.49c.38,0,1.04,0,1.04.6,0,.44-.27.71-1.42,1.2v7.12h4.1l2.68,1.7v-6.68h27.31c.11,4.87.11,5.91.11,10.89,0,8.05-.27,16.37-1.59,23.65-.6,3.12-1.53,7.06-4,9.2-1.97,1.64-5.36,1.81-7.83,1.81h-1.86c-.44-3.89-.88-4.98-2.9-8.32,1.7.33,3.89.66,5.2.66,2.74,0,3.5-.99,4.1-3.72,1.42-6.57,1.92-14.39,1.92-20.91,0-2.41,0-2.96-.11-5.47h-5.86c-.6,15.82-2.24,28.13-15.49,38.42Zm1.7-38.42c-.93,2.68-5.04,9.25-6.84,11.6,2.41,3.06,4.93,5.69,8.16,7.83-2.24,1.48-3.5,3.45-4.71,5.8-1.53-1.31-2.74-2.63-4.1-4.16v11.71c2.79-1.75,5.25-3.72,7.17-6.18,4.6-5.91,5.53-10.18,6.24-17.51-.33.27-.6.33-1.26.38-1.37,2.35-3.01,4.6-4.82,6.68-1.75-1.86-3.12-2.9-5.31-4.1,2.3-2.46,4-4.82,5.42-7.88l5.47,3.78c.33.22.44.38.55.6.22-2.85.33-5.69.38-8.54h-6.35Z"/>
        <path class="cls-1" d="m146.78,304.4v2.52h-7.99v-48.99h47.62v48.99h-7.94v-2.52h-31.69Zm31.69-39.52h-31.69v32.68h31.69v-32.68Zm-20.03,27.04v2.02h-8.16v-24.9h24.63v24.9h-8.1v-2.02h-8.37Zm8.37-15.71h-8.37v8.65h8.37v-8.65Z"/>
      </g>
      <g>
        <path class="cls-1" d="m251.26,305.64h-46.1l23.77-28.81c2.37-2.88,5.97-7.41,8.23-10.7,1.96-2.88,3.6-5.87,3.6-9.88,0-5.76-3.81-11.11-11.42-11.11s-11.73,5.97-12.14,12.45h-10.08c.31-6.69,3.09-12.04,5.76-15.02,2.47-2.78,7.41-6.69,16.05-6.69,14.61,0,22.12,9.98,22.12,20.68,0,5.66-2.16,10.29-4.94,14.41-2.47,3.7-5.66,7.51-9.78,12.35l-10.7,12.66h25.62v9.67Z"/>
        <path class="cls-1" d="m273.07,302.35l16.16-20.68c-1.34.31-2.47.41-3.7.41-8.13,0-13.27-3.6-16.05-6.38-3.5-3.5-6.28-8.54-6.28-15.64s2.68-12.97,6.79-17.19c4.32-4.42,10.08-7,17.7-7,9.36,0,14.82,3.81,17.7,6.79s5.97,7.92,5.97,15.54c0,4.94-1.13,8.85-3.29,13.07-2.57,5.15-5.25,8.23-8.34,12.25l-19.04,24.49-7.61-5.66Zm23.98-33.34c2.57-2.68,4.01-6.59,4.01-10.19s-1.44-7.31-4.01-9.78-6.28-3.91-9.78-3.91c-3.81,0-7.51,1.75-9.78,3.91-2.26,2.26-4.01,5.87-4.01,10.08,0,3.81,1.44,7.61,4.01,10.19,2.26,2.16,5.87,3.81,9.67,3.81,3.5,0,7.2-1.34,9.88-4.12Z"/>
        <path class="cls-1" d="m320.31,292.78l9.06,3.5-12.76,25.42-6.79-2.78,10.5-26.14Z"/>
        <path class="cls-1" d="m351.59,302.35l16.16-20.68c-1.34.31-2.47.41-3.7.41-8.13,0-13.27-3.6-16.05-6.38-3.5-3.5-6.28-8.54-6.28-15.64s2.68-12.97,6.79-17.19c4.32-4.42,10.08-7,17.7-7,9.36,0,14.82,3.81,17.7,6.79s5.97,7.92,5.97,15.54c0,4.94-1.13,8.85-3.29,13.07-2.57,5.15-5.25,8.23-8.34,12.25l-19.04,24.49-7.61-5.66Zm23.98-33.34c2.57-2.68,4.01-6.59,4.01-10.19s-1.44-7.31-4.01-9.78-6.28-3.91-9.78-3.91c-3.81,0-7.51,1.75-9.78,3.91-2.26,2.26-4.01,5.87-4.01,10.08,0,3.81,1.44,7.61,4.01,10.19,2.26,2.16,5.87,3.81,9.67,3.81,3.5,0,7.2-1.34,9.88-4.12Z"/>
        <path class="cls-1" d="m442.76,275.49c2.57,3.4,3.09,7.2,3.09,10.29,0,7-2.68,11.73-5.45,14.61-3.19,3.4-8.34,6.38-16.16,6.38s-12.97-2.98-16.16-6.38c-2.78-2.88-5.45-7.62-5.45-14.61,0-3.09.51-6.89,3.09-10.29,1.54-2.16,4.01-4.22,7.2-5.56-2.88-1.23-4.84-3.29-6.07-5.15-1.75-2.78-2.47-6.28-2.47-9.36,0-5.45,1.96-10.6,5.76-14.3,2.16-2.06,6.59-5.25,14.1-5.25s11.94,3.19,14.1,5.25c3.81,3.7,5.76,8.85,5.76,14.3,0,3.09-.72,6.59-2.47,9.36-1.23,1.85-3.19,3.91-6.07,5.15,3.19,1.34,5.66,3.4,7.2,5.56Zm-26.65,2.16c-2.06,2.06-3.19,5.35-3.19,8.34,0,2.68,1.03,5.76,3.09,8.03,1.44,1.65,4.01,3.5,8.23,3.5s6.79-1.85,8.23-3.5c2.06-2.26,3.09-5.35,3.09-8.03,0-2.98-1.13-6.28-3.19-8.34s-5.15-3.19-8.13-3.19-6.07,1.13-8.13,3.19Zm.62-29.74c-1.75,1.75-2.88,4.53-2.88,7.62s1.23,5.66,2.78,7.2c1.85,1.96,4.94,3.09,7.61,3.09s5.76-1.13,7.61-3.09c1.54-1.54,2.78-4.01,2.78-7.2s-1.13-5.87-2.88-7.62c-1.75-1.65-4.32-2.78-7.51-2.78s-5.76,1.13-7.51,2.78Z"/>
        <path class="cls-1" d="m467.15,299.36c-7.2-8.23-8.75-19.04-8.75-27.99s1.54-19.86,8.75-28.09c4.32-4.94,9.47-7.41,15.54-7.41s11.22,2.47,15.54,7.41c7.2,8.23,8.75,19.24,8.75,28.09s-1.54,19.76-8.75,27.99c-4.32,4.94-9.36,7.41-15.54,7.41s-11.22-2.47-15.54-7.41Zm6.28-48.57c-3.81,5.66-4.73,14.51-4.73,20.48s.93,14.82,4.73,20.58c2.98,4.53,6.59,5.66,9.26,5.66s6.28-1.13,9.26-5.66c3.81-5.76,4.73-14.51,4.73-20.58s-.93-14.82-4.73-20.48c-2.98-4.53-6.59-5.66-9.26-5.66s-6.28,1.13-9.26,5.66Z"/>
      </g>
      <path class="cls-1" d="m529.6,282.62v18.46h-7.66v-42.89h40.76v36.3c0,1.45-.29,2.86-1.21,4.02-1.6,2.08-5.38,2.47-8.09,2.47-.82,0-1.41-.05-2.23-.19-.29-2.96-.87-5.43-2.37-8,1.6.39,2.96.63,4.6.63,1.84,0,1.84-.63,1.84-1.89v-8.92h-25.64Zm9.06-17.4h-9.06v10.52h9.06v-10.52Zm16.57,10.52v-10.52h-9.21v10.52h9.21Z"/>
      <path class="cls-1" d="m600.91,258.23c5.58,0,10.13,3.19,14.12,6.78,3.27,3.03,6.54,5.98,11.09,5.98,6.46,0,10.61-5.27,13.8-10.21l4.55,6.46c-4.31,6.54-9.81,11.57-18.11,11.57-5.66,0-9.81-2.55-13.8-6.22-4.55-4.23-7.26-6.54-11.89-6.54-6.14,0-10.45,5.5-13.4,10.21l-4.07-6.38c4.23-6.38,9.49-11.65,17.71-11.65Z"/>
      <g>
        <path class="cls-1" d="m591.58,308.3c-1.15-1.39-1.95-2.53-2.65-4.24-.68-1.67-1.02-3.46-1.02-5.28s.34-3.6,1.02-5.28c.7-1.71,1.49-2.85,2.65-4.24l1.75,1.53c-.92,1.13-1.57,2.05-2.13,3.42-.6,1.43-.9,3.03-.9,4.56s.3,3.15.9,4.56c.56,1.37,1.19,2.29,2.13,3.42l-1.75,1.53Z"/>
        <path class="cls-1" d="m603.03,293.7h1.77c-.42-.84-1.19-2.07-1.77-2.79l2.43-1.29c.7.74,1.69,2.35,2.17,3.27-.64.22-1.19.5-1.79.82h1.77c.96-1.25,1.63-2.63,2.17-4.1l3.07,1.06c.12.04.22.14.22.24,0,.3-.32.32-.7.32-.42.92-.82,1.65-1.39,2.49h1.97v6.99h-2.21v3.9c0,.32,0,.52.34.52.5,0,.62-.26.78-2.05.68.56,1.55,1.19,2.35,1.53-.08.76-.38,1.67-.82,2.31-.42.62-.82.7-1.53.7h-2.23c-1.27,0-1.75-.68-1.75-1.89v-5.02h-2.19l1.69.52c.14.04.2.1.2.24,0,.24-.24.3-.44.32-.52,2.97-1.69,4.86-4.36,6.33-.42-.62-1.31-1.45-1.93-1.87v1.63h-2.91v-5.02c-.32.72-.64,1.41-1.02,2.11-.7-.82-1.49-1.41-2.35-2.01,1.57-2.01,2.51-3.46,3.27-5.91h-2.61v-2.55h2.71v-1.35c-.56.12-1.1.2-1.67.26-.38-.86-.9-1.67-1.45-2.43,1.75-.04,5.02-.7,6.57-1.47l1.51,2.19c.04.06.06.2.06.26,0,.16-.18.22-.3.22-.14,0-.3-.1-.42-.18-.48.2-.9.34-1.39.48v2.03h1.57v2.55h-1.57v.44c.62,1.13,1.27,1.93,2.19,2.83v-6.59Zm-1.65,8.7c-.2-.26-.38-.54-.54-.8v4.36c1.1-.36,2.13-1.33,2.71-2.33.56-.94.76-1.85.8-2.95h-1.29c-.7.6-1.14,1-1.67,1.71Zm4.4-4.22h4.44v-1.97h-4.44v1.97Z"/>
        <path class="cls-1" d="m623.25,298.84c.8-1.35,1.45-3.4,1.65-4.94l1.1.22c-.02-.34-.04-.96-.04-1.31h-2.97v-2.87h5.95c-.14.74-.18,1.47-.18,2.21,0,1.53.18,3.27.6,4.74.34,1.12.92,2.15,1.63,3.07.74.92,1.53,1.71,2.45,2.45-.92.74-1.41,1.14-2.11,2.11-2.01-1.31-4.1-4.42-4.72-6.73-.72,1.85-1.23,2.93-2.43,4.54-.48.62-1.02,1.23-1.67,1.69-.44-.74-1.27-1.43-2.09-1.69v.96c.26,1.57,1.35,1.67,3.72,1.67,3.74,0,6.07-.06,9.8-.36-.5.86-.98,2.03-1.06,3.03h-9.14c-1.77,0-4.02-.22-4.98-1.93-.76.52-1.1.74-1.51.98-.5.28-.82.46-1.15.68-.06.42-.12.68-.32.68-.16,0-.24-.12-.34-.4l-1.02-2.73c1.02-.28,2.11-.82,2.97-1.43v-3.64h-2.09v-2.77h5.12v5.04c1-.74,2.21-2.19,2.83-3.25Zm-2.67-6.31c-.8.6-1.41,1.15-2.05,1.93-1.04-1.08-2.13-1.97-3.39-2.77l2.03-1.93c1.08.68,2.53,1.83,3.41,2.77Z"/>
        <path class="cls-1" d="m637.48,303.34c.58-1.41.9-3.03.9-4.56s-.32-3.13-.9-4.56c-.58-1.37-1.21-2.29-2.15-3.42l1.75-1.53c1.15,1.39,1.95,2.53,2.65,4.24.68,1.67,1.02,3.46,1.02,5.28s-.34,3.6-1.02,5.28c-.7,1.71-1.49,2.85-2.65,4.24l-1.75-1.53c.94-1.13,1.57-2.05,2.15-3.42Z"/>
      </g>
    </g>
  </g>
</svg>