<?xml version="1.0" encoding="UTF-8"?>
<svg id="_レイヤー_2" data-name="レイヤー 2" xmlns="http://www.w3.org/2000/svg" viewBox="0 0 365.62 58.25">
  <defs>
    <style>
      .cls-1 {
        fill: #545454;
      }
    </style>
  </defs>
  <g id="_レイヤー_1-2" data-name="レイヤー 1">
    <g>
      <g>
        <path class="cls-1" d="m11.42,44.45c1.79-.32,3.35-1.06,4.57-2.42,1.11-1.27,1.79-2.96,1.79-4.64,0-1.77-.72-3.42-2.15-4.48-.93-.72-1.92-.97-3.08-1.06-.32,3.85-1.27,8.06-3.21,11.43-.66,1.13-1.83,3.03-3.33,3.03-1.9,0-5.02-3.21-5.02-7.17,0-2.83,1.45-5.61,3.46-7.51,2.1-1.97,4.75-3.03,7.63-3.03,2.65,0,5,.88,6.9,2.78,1.7,1.7,2.38,3.69,2.38,6,0,2.65-.93,4.98-2.65,6.99-1.38,1.61-3.03,2.44-4.93,3.28-.77-1.33-1.31-2.06-2.35-3.19Zm-5.77-9.28c-.72,1.09-1.29,2.35-1.29,3.69,0,1.54.84,3.05,1.43,3.05.75,0,1.54-2.31,1.86-3.24.72-2.1,1.09-3.94,1.11-6.15-1.36.5-2.31,1.47-3.1,2.65Z"/>
        <path class="cls-1" d="m38.83,32.8l3.78,1.45c.23.09.29.16.29.27,0,.27-.27.29-.48.29-.18,1.52-.5,2.67-.95,4.12,1.18.61,2.49,1.52,3.42,2.42-1.04,1.29-1.52,2.08-2.19,3.26-.84-.86-1.65-1.47-2.62-2.15-1.15,2.17-2.92,4.39-5,5.75-.97-1.09-1.7-1.65-2.94-2.38,1.79-.91,3.87-3.15,4.93-5.07-1.38-.63-2.51-1-4.01-1.38-1.18,2.51-1.77,3.64-2.58,4.8-.75,1.06-1.67,2.06-3.08,2.06-1.95,0-3.73-1.72-3.73-3.78,0-3.58,3.55-6.27,6.92-6.27h.43c.41-1,.91-2.35,1.43-3.96-1.45.38-3.08.72-4.57.93l-.77-3.8c2.38.02,6.09-.32,8.21-1.38l2.26,1.92c-1.45,2.04-2.58,4.57-3.24,6.43,1.34.25,2.65.68,3.91,1.18.38-1.54.57-3.12.57-4.71Zm-11.95,9.73c0,.2.09.45.34.45s.7-.63,1.15-1.34c.48-.72.79-1.27,1.18-2.1-1.2-.04-2.67,1.54-2.67,2.99Z"/>
      </g>
      <g>
        <path class="cls-1" d="m9.56,23.81c-.56-.85-1.46-1.64-2.38-2.09v1.93h-3.1v-7.04c-.63.58-1.21,1.08-1.91,1.57-.58-.88-1.26-1.71-2.16-2.27,2.25-1.44,4.66-3.55,5.76-6H1.12v-3.04h2.95v-3.87l3.26.2c.16,0,.43,0,.43.25,0,.18-.11.29-.58.49v2.92h1.69l1.1.7v-2.74h11.22c.05,2,.05,2.43.05,4.48,0,3.31-.11,6.73-.65,9.72-.25,1.28-.63,2.9-1.64,3.78-.81.67-2.2.74-3.22.74h-.76c-.18-1.6-.36-2.05-1.19-3.42.7.13,1.6.27,2.14.27,1.12,0,1.44-.4,1.69-1.53.58-2.7.79-5.92.79-8.59,0-.99,0-1.21-.04-2.25h-2.41c-.25,6.5-.92,11.56-6.37,15.79Zm.7-15.79c-.38,1.1-2.07,3.8-2.81,4.77.99,1.26,2.02,2.34,3.35,3.22-.92.61-1.44,1.42-1.93,2.38-.63-.54-1.12-1.08-1.69-1.71v4.81c1.15-.72,2.16-1.53,2.95-2.54,1.89-2.43,2.27-4.18,2.56-7.2-.14.11-.25.13-.52.16-.56.97-1.24,1.89-1.98,2.74-.72-.76-1.28-1.19-2.18-1.69.94-1.01,1.64-1.98,2.23-3.24l2.25,1.55c.13.09.18.16.22.25.09-1.17.14-2.34.16-3.51h-2.61Z"/>
        <path class="cls-1" d="m30.27,16.3c-.34,1.87-1.08,3.82-2.27,5.35-.63.79-1.37,1.44-2.16,2.07-.63-.81-1.89-1.91-2.81-2.36,1.44-.94,2.56-2.25,3.24-3.82.47-1.1.83-2.41.83-5.22V3.57h14.08v16.67c0,1.06-.05,1.55-.4,2.09-.79,1.15-2.47,1.15-3.71,1.15-.54,0-.63,0-.94-.02-.07-1.01-.58-2.83-1.12-3.69.43.09,1.35.25,1.84.25.76,0,.81-.47.81-1.28v-2.43h-7.38Zm7.38-9.56h-7.13v1.6h7.13v-1.6Zm0,6.32v-1.62h-7.13v1.62h7.13Z"/>
      </g>
      <g>
        <path class="cls-1" d="m86.48,47.83h-29.93l15.43-18.7c1.54-1.87,3.87-4.81,5.34-6.95,1.27-1.87,2.34-3.81,2.34-6.41,0-3.74-2.47-7.21-7.42-7.21s-7.62,3.87-7.88,8.08h-6.55c.2-4.34,2-7.82,3.74-9.75,1.6-1.8,4.81-4.34,10.42-4.34,9.49,0,14.36,6.48,14.36,13.43,0,3.67-1.4,6.68-3.21,9.35-1.6,2.4-3.67,4.88-6.35,8.02l-6.95,8.22h16.63v6.28Z"/>
        <path class="cls-1" d="m118.15,33.13h4.81v6.28h-4.81v8.42h-6.55v-8.42h-22.05L118.15,0v33.13Zm-6.55.13v-14.36l-10.15,14.36h10.15Z"/>
        <path class="cls-1" d="m135.32,39.48l5.88,2.27-8.28,16.5-4.41-1.8,6.81-16.97Z"/>
        <path class="cls-1" d="m154.3,45.69l10.49-13.43c-.87.2-1.6.27-2.4.27-5.28,0-8.62-2.34-10.42-4.14-2.27-2.27-4.07-5.54-4.07-10.15s1.74-8.42,4.41-11.16c2.81-2.87,6.55-4.54,11.49-4.54,6.08,0,9.62,2.47,11.49,4.41,1.87,1.94,3.87,5.14,3.87,10.09,0,3.21-.73,5.75-2.14,8.48-1.67,3.34-3.41,5.34-5.41,7.95l-12.36,15.9-4.94-3.67Zm15.57-21.64c1.67-1.74,2.61-4.28,2.61-6.61s-.94-4.74-2.61-6.35c-1.67-1.6-4.08-2.54-6.35-2.54-2.47,0-4.88,1.14-6.35,2.54-1.47,1.47-2.61,3.81-2.61,6.55,0,2.47.94,4.94,2.61,6.61,1.47,1.4,3.81,2.47,6.28,2.47,2.27,0,4.68-.87,6.41-2.67Z"/>
        <path class="cls-1" d="m213.49,28.26c1.67,2.2,2,4.68,2,6.68,0,4.54-1.74,7.62-3.54,9.49-2.07,2.2-5.41,4.14-10.49,4.14s-8.42-1.94-10.49-4.14c-1.8-1.87-3.54-4.94-3.54-9.49,0-2,.33-4.48,2-6.68,1-1.4,2.61-2.74,4.68-3.61-1.87-.8-3.14-2.14-3.94-3.34-1.14-1.8-1.6-4.07-1.6-6.08,0-3.54,1.27-6.88,3.74-9.29,1.4-1.34,4.28-3.41,9.15-3.41s7.75,2.07,9.15,3.41c2.47,2.4,3.74,5.74,3.74,9.29,0,2-.47,4.28-1.6,6.08-.8,1.2-2.07,2.54-3.94,3.34,2.07.87,3.67,2.2,4.68,3.61Zm-17.3,1.4c-1.34,1.34-2.07,3.47-2.07,5.41,0,1.74.67,3.74,2,5.21.94,1.07,2.61,2.27,5.34,2.27s4.41-1.2,5.34-2.27c1.34-1.47,2-3.47,2-5.21,0-1.94-.73-4.08-2.07-5.41s-3.34-2.07-5.28-2.07-3.94.73-5.28,2.07Zm.4-19.31c-1.14,1.14-1.87,2.94-1.87,4.94s.8,3.67,1.8,4.68c1.2,1.27,3.21,2,4.94,2s3.74-.73,4.94-2c1-1,1.8-2.61,1.8-4.68s-.73-3.81-1.87-4.94c-1.14-1.07-2.81-1.8-4.88-1.8s-3.74.73-4.88,1.8Z"/>
        <path class="cls-1" d="m229.32,43.76c-4.68-5.34-5.68-12.36-5.68-18.17s1-12.89,5.68-18.24c2.81-3.21,6.15-4.81,10.09-4.81s7.28,1.6,10.09,4.81c4.68,5.34,5.68,12.49,5.68,18.24s-1,12.83-5.68,18.17c-2.81,3.21-6.08,4.81-10.09,4.81s-7.28-1.6-10.09-4.81Zm4.08-31.53c-2.47,3.67-3.07,9.42-3.07,13.29s.6,9.62,3.07,13.36c1.94,2.94,4.28,3.67,6.01,3.67s4.07-.73,6.01-3.67c2.47-3.74,3.07-9.42,3.07-13.36s-.6-9.62-3.07-13.29c-1.94-2.94-4.28-3.67-6.01-3.67s-4.07.73-6.01,3.67Z"/>
      </g>
      <path class="cls-1" d="m268.11,34.24v13.53h-5.61v-31.44h29.87v26.61c0,1.07-.21,2.1-.89,2.95-1.17,1.53-3.94,1.81-5.93,1.81-.6,0-1.03-.04-1.63-.14-.21-2.17-.64-3.98-1.74-5.86,1.17.28,2.17.46,3.37.46,1.35,0,1.35-.46,1.35-1.39v-6.54h-18.79Zm6.64-12.75h-6.64v7.71h6.64v-7.71Zm12.15,7.71v-7.71h-6.75v7.71h6.75Z"/>
      <g>
        <path class="cls-1" d="m302.69,47.26c-1.48-1.78-2.5-3.24-3.39-5.43-.87-2.14-1.3-4.44-1.3-6.76s.43-4.62,1.3-6.76c.89-2.19,1.91-3.65,3.39-5.43l2.24,1.96c-1.17,1.45-2.01,2.63-2.73,4.39-.76,1.84-1.15,3.88-1.15,5.84s.38,4.03,1.15,5.84c.71,1.76,1.53,2.93,2.73,4.39l-2.24,1.96Z"/>
        <path class="cls-1" d="m317.35,28.57h2.27c-.54-1.07-1.53-2.65-2.27-3.57l3.11-1.66c.89.94,2.17,3.01,2.78,4.18-.82.28-1.53.64-2.29,1.05h2.27c1.22-1.61,2.09-3.37,2.78-5.25l3.93,1.35c.15.05.28.18.28.31,0,.38-.41.41-.89.41-.54,1.17-1.05,2.12-1.78,3.19h2.52v8.95h-2.83v5c0,.41,0,.66.43.66.64,0,.79-.33.99-2.63.87.71,1.99,1.53,3.01,1.96-.1.97-.48,2.14-1.05,2.96-.54.79-1.05.89-1.96.89h-2.86c-1.63,0-2.24-.87-2.24-2.42v-6.43h-2.8l2.17.66c.18.05.25.13.25.31,0,.31-.31.38-.56.41-.66,3.8-2.17,6.22-5.58,8.11-.54-.79-1.68-1.86-2.47-2.4v2.09h-3.72v-6.43c-.41.92-.82,1.81-1.3,2.7-.89-1.05-1.91-1.81-3.01-2.58,2.01-2.58,3.21-4.44,4.18-7.57h-3.34v-3.26h3.47v-1.73c-.71.15-1.4.25-2.14.33-.48-1.1-1.15-2.14-1.86-3.11,2.24-.05,6.43-.89,8.41-1.89l1.94,2.8c.05.08.08.25.08.33,0,.2-.23.28-.38.28-.18,0-.38-.13-.54-.23-.61.25-1.15.43-1.78.61v2.6h2.01v3.26h-2.01v.56c.79,1.45,1.63,2.47,2.8,3.62v-8.44Zm-2.12,11.14c-.26-.33-.48-.69-.69-1.02v5.58c1.4-.46,2.73-1.71,3.47-2.98.71-1.2.97-2.37,1.02-3.77h-1.66c-.89.76-1.45,1.27-2.14,2.19Zm5.64-5.41h5.69v-2.52h-5.69v2.52Z"/>
        <path class="cls-1" d="m343.23,35.14c1.02-1.73,1.86-4.36,2.12-6.32l1.4.28c-.03-.43-.05-1.22-.05-1.68h-3.8v-3.67h7.62c-.18.94-.23,1.89-.23,2.83,0,1.96.23,4.18.77,6.07.43,1.43,1.17,2.75,2.09,3.93.94,1.17,1.96,2.19,3.14,3.14-1.17.94-1.81,1.45-2.7,2.7-2.58-1.68-5.25-5.66-6.04-8.62-.92,2.37-1.58,3.75-3.11,5.81-.61.79-1.3,1.58-2.14,2.17-.56-.94-1.63-1.84-2.68-2.17v1.22c.33,2.01,1.73,2.14,4.77,2.14,4.79,0,7.78-.08,12.54-.46-.64,1.1-1.25,2.6-1.35,3.88h-11.7c-2.27,0-5.15-.28-6.37-2.47-.97.66-1.4.94-1.94,1.25-.64.36-1.05.59-1.48.87-.08.54-.15.87-.41.87-.2,0-.31-.15-.43-.51l-1.3-3.49c1.3-.36,2.7-1.05,3.8-1.84v-4.67h-2.68v-3.54h6.55v6.45c1.27-.94,2.83-2.8,3.62-4.16Zm-3.42-8.08c-1.02.77-1.81,1.48-2.63,2.47-1.33-1.38-2.73-2.52-4.33-3.54l2.6-2.47c1.38.87,3.24,2.35,4.36,3.54Z"/>
        <path class="cls-1" d="m361.44,40.91c.74-1.81,1.15-3.88,1.15-5.84s-.41-4-1.15-5.84c-.74-1.76-1.56-2.93-2.75-4.39l2.24-1.96c1.48,1.79,2.5,3.24,3.39,5.43.87,2.14,1.3,4.44,1.3,6.76s-.43,4.61-1.3,6.76c-.89,2.19-1.91,3.65-3.39,5.43l-2.24-1.96c1.2-1.45,2.01-2.63,2.75-4.39Z"/>
      </g>
    </g>
  </g>
</svg>