<?xml version="1.0" encoding="UTF-8"?>
<svg id="b" data-name="レイヤー 2" xmlns="http://www.w3.org/2000/svg" width="306.89" height="194.64" viewBox="0 0 306.89 194.64">
  <g id="c" data-name="レイヤー 1">
    <g>
      <path d="M153.44,0C68.7,0,0,40.12,0,89.61c0,34.58,33.54,64.58,82.65,79.52l-26.31,25.51,56.49-18.6c12.94,2.07,26.55,3.18,40.61,3.18,84.74,0,153.44-40.12,153.44-89.61S238.19,0,153.44,0Z" fill="#46af9a"/>
      <g>
        <path d="M57.72,66.45c.11-.01,.2-.02,.29-.02h.27c.88,0,1.54,.15,1.97,.46,.43,.31,.72,.72,.87,1.25,.15,.53,.21,1.13,.18,1.81v8.12c0,.25-.09,.47-.27,.65-.18,.18-.39,.27-.63,.27-.25,0-.47-.09-.65-.27-.18-.18-.27-.4-.27-.65,0-.11-.06-.16-.18-.16h-8.84c-.25,0-.47-.09-.64-.26-.17-.17-.26-.39-.26-.64,0-.24,.09-.45,.26-.63,.17-.18,.39-.27,.64-.27h8.84c.12,0,.18-.06,.18-.18v-2.28c0-.12-.05-.19-.14-.2-.52-.16-1.22-.26-2.09-.29-.87-.03-1.96-.05-3.27-.05h-2.92c-.25,0-.47-.09-.64-.28-.17-.19-.26-.41-.26-.66,0-.24,.09-.44,.26-.61,.17-.17,.38-.25,.62-.25,1.57,0,2.88,0,3.93,.02,1.05,.01,1.91,.05,2.59,.1,.68,.05,1.25,.14,1.72,.26,.01,0,.02,0,.03,.01s.02,0,.03,0c.09,0,.14-.05,.14-.16v-1.58c-.03-.47-.07-.83-.14-1.09-.07-.26-.21-.44-.43-.54-.22-.1-.59-.14-1.11-.11-.56,.01-1.19,.03-1.88,.05-.69,.02-1.41,.03-2.16,.03-.57,0-1.14,0-1.71-.02-.57-.01-1.1-.03-1.61-.04-.24-.01-.44-.11-.61-.28-.17-.17-.25-.38-.25-.62,0-.27,.1-.49,.29-.67,.19-.18,.42-.26,.67-.25,.64,.01,1.32,.03,2.05,.05s1.44,.03,2.13,.03c1.15,0,2.15-.02,3-.06Z" fill="#fff"/>
        <path d="M80.43,67.71c.15-.03,.28-.04,.4-.04h.38c1.03,0,1.82,.27,2.37,.81,.55,.54,.83,1.31,.83,2.31,0,.24-.02,.5-.06,.78-.05,.43-.12,.89-.19,1.39-.07,.5-.14,.98-.21,1.43-.07,.45-.12,.83-.16,1.12-.04,.29-.06,.45-.06,.46-.33,2.05-1.51,3.08-3.54,3.08-.41,0-.86-.04-1.34-.12-.23-.04-.41-.15-.56-.33-.15-.18-.22-.38-.22-.61,0-.31,.12-.54,.35-.71,.23-.17,.48-.23,.73-.19,.48,.08,.87,.12,1.18,.12,.63,0,1.04-.13,1.23-.4s.32-.64,.39-1.12c.05-.31,.11-.7,.18-1.17,.07-.47,.14-.99,.22-1.54s.15-1.1,.22-1.65c.01-.11,.02-.21,.03-.3,0-.09,0-.18,0-.26,0-.47-.11-.8-.32-1.01-.21-.21-.56-.31-1.04-.31-.09,0-.19,0-.3,.01-.11,0-.21,.02-.32,.03l-2,.22c-.12,.03-.19,.08-.2,.16-.56,1.99-1.34,3.79-2.34,5.4-1,1.61-2.17,2.91-3.52,3.9-.15,.11-.31,.16-.5,.16-.31,0-.55-.13-.74-.4-.09-.13-.14-.29-.14-.48,0-.15,.03-.29,.09-.42,.06-.13,.16-.25,.29-.34,1.09-.84,2.06-1.92,2.89-3.23s1.52-2.78,2.05-4.39c0-.01,0-.03,0-.04s0-.03,0-.04c0-.11-.06-.15-.18-.12-.29,.01-.58,.02-.87,.03-.29,0-.58,0-.89,0-.69,0-1.42-.02-2.18-.06-.24-.01-.44-.11-.6-.28-.16-.17-.24-.37-.24-.6,0-.27,.1-.49,.29-.67,.19-.18,.42-.26,.67-.23,.71,.04,1.37,.06,2,.06,.41,0,.82-.01,1.21-.03,.39-.02,.78-.04,1.15-.05,.12-.03,.19-.09,.2-.18,.12-.55,.22-1.11,.3-1.7,.08-.59,.14-1.17,.18-1.76,.03-.23,.13-.43,.3-.6,.17-.17,.37-.26,.6-.26,.27,0,.49,.09,.66,.27,.17,.18,.25,.4,.22,.65-.04,.53-.09,1.07-.15,1.61-.06,.54-.14,1.07-.25,1.59v.04c0,.12,.05,.17,.16,.14,.23-.03,.45-.05,.67-.07s.44-.04,.65-.07Zm3.64-2.98c.36,.33,.68,.7,.95,1.09,.27,.39,.52,.84,.73,1.35,.04,.08,.06,.16,.06,.24,0,.28-.13,.49-.4,.62-.08,.04-.16,.06-.24,.06-.28,0-.47-.14-.58-.42-.31-.8-.76-1.47-1.36-2.02-.13-.12-.2-.28-.2-.48,0-.16,.05-.29,.14-.4,.13-.13,.29-.2,.48-.2,.17,0,.31,.05,.42,.16Zm3.32,1.7c.04,.08,.06,.16,.06,.24,0,.17-.06,.33-.17,.46-.11,.13-.26,.2-.45,.2-.28,0-.47-.13-.58-.4-.32-.83-.79-1.54-1.4-2.14-.13-.13-.2-.27-.2-.42s.06-.28,.18-.4c.13-.13,.28-.2,.44-.2s.3,.06,.42,.18c.39,.35,.71,.71,.96,1.08,.25,.37,.5,.84,.74,1.4Z" fill="#fff"/>
        <path d="M101.89,78.66c-.25,.03-.49-.05-.7-.24s-.32-.42-.32-.7c0-.21,.07-.4,.22-.56,.15-.16,.33-.26,.54-.3,1.63-.25,2.88-.8,3.75-1.64s1.31-1.91,1.31-3.22c0-.77-.19-1.48-.56-2.12-.37-.64-.88-1.16-1.53-1.55s-1.37-.61-2.17-.65c-.11,0-.17,.05-.2,.16-.28,1.27-.62,2.48-1.03,3.63-.41,1.15-.87,2.18-1.38,3.08-.51,.9-1.06,1.61-1.64,2.13-.58,.52-1.18,.78-1.81,.78-.16,0-.32-.02-.48-.06-.67-.16-1.17-.56-1.51-1.2-.34-.64-.51-1.39-.51-2.26,0-.79,.14-1.61,.41-2.46,.27-.85,.68-1.65,1.23-2.4,.79-1.07,1.75-1.86,2.89-2.38,1.14-.52,2.29-.78,3.45-.78,.96,0,1.88,.17,2.75,.5,.87,.33,1.63,.83,2.28,1.49s1.1,1.47,1.37,2.43c.16,.53,.24,1.09,.24,1.68,0,.72-.13,1.44-.39,2.16s-.66,1.39-1.19,2.01c-.53,.62-1.22,1.15-2.05,1.58s-1.82,.73-2.97,.89Zm-6.1-3.38c.16,.28,.36,.42,.6,.42,.32,0,.67-.23,1.05-.7s.76-1.08,1.13-1.84,.72-1.59,1.04-2.49c.32-.9,.57-1.78,.76-2.63v-.02c0-.09-.08-.14-.24-.14-.04,0-.08,0-.12,.01-.04,0-.08,.02-.12,.03-.77,.23-1.44,.57-1.99,1.03s-1.01,.98-1.36,1.57-.61,1.18-.78,1.77c-.17,.59-.25,1.14-.25,1.65,0,.56,.09,1.01,.28,1.34Z" fill="#fff"/>
        <path d="M124.28,78.36h7.3c.24,0,.44,.09,.61,.26,.17,.17,.25,.38,.25,.62s-.08,.45-.25,.62c-.17,.17-.37,.26-.61,.26h-7.3c-2.45,0-4.3-.69-5.54-2.08-.04-.07-.09-.07-.16,0-.33,.4-.72,.79-1.15,1.18-.43,.39-.86,.71-1.27,.98-.05,.04-.11,.07-.18,.08-.07,.01-.13,.02-.2,.02-.33,0-.57-.16-.7-.48-.05-.11-.08-.22-.08-.34,0-.36,.15-.63,.44-.82,.35-.24,.72-.55,1.13-.94,.41-.39,.76-.81,1.07-1.26,.03-.05,.04-.1,.04-.14v-4.36c0-.08-.04-.12-.12-.12h-1.38c-.24,0-.44-.09-.61-.26s-.25-.37-.25-.6c0-.24,.08-.44,.25-.61,.17-.17,.37-.25,.61-.25h1.94c.36,0,.67,.13,.93,.39,.26,.26,.39,.57,.39,.93v4.56c0,.07,.01,.11,.04,.14,.51,.77,1.14,1.34,1.89,1.69s1.72,.53,2.91,.53Zm-8.46-12.94c-.2-.04-.36-.14-.49-.31-.13-.17-.19-.36-.19-.57,0-.24,.09-.44,.26-.59,.17-.15,.37-.23,.58-.23h.1s.07,0,.1,.02c.45,.09,.95,.22,1.49,.39,.54,.17,1.06,.35,1.57,.55,.2,.08,.35,.21,.46,.39,.11,.18,.16,.38,.16,.59,0,.23-.08,.41-.23,.56-.15,.15-.33,.22-.53,.22-.09,0-.19-.02-.3-.06-.43-.19-.9-.37-1.43-.54-.53-.17-1.04-.31-1.55-.42Zm5.04,.86c-.23,0-.43-.08-.6-.25-.17-.17-.26-.37-.26-.61v-1.02c0-.36,.13-.67,.39-.93,.26-.26,.57-.39,.93-.39h9.78c.36,0,.67,.13,.93,.38,.26,.25,.39,.57,.39,.94v1.02c0,.23-.08,.43-.25,.6-.17,.17-.36,.26-.59,.26s-.43-.08-.6-.25c-.17-.17-.26-.37-.26-.61v-.58c0-.08-.04-.12-.12-.12h-3.8c-.11,0-.12,.04-.04,.12,.19,.16,.28,.37,.28,.62v.32c0,.08,.04,.12,.12,.12h2.84c.23,0,.42,.08,.59,.24,.17,.16,.25,.35,.25,.58,0,.21-.08,.4-.25,.57-.17,.17-.36,.25-.59,.25h-2.84c-.08,0-.12,.04-.12,.12v.4c0,.08,.04,.12,.12,.12h2.36c.36,0,.67,.13,.93,.38,.26,.25,.39,.57,.39,.94v3.6c0,.36-.13,.67-.39,.93-.26,.26-.57,.39-.93,.39h-2.36c-.08,0-.12,.04-.12,.12v.42c0,.08,.04,.12,.12,.12h4.22c.23,0,.42,.08,.59,.24,.17,.16,.25,.35,.25,.58,0,.21-.08,.4-.25,.57-.17,.17-.36,.25-.59,.25h-4.22c-.08,0-.12,.04-.12,.12v.54c0,.21-.08,.4-.24,.57-.16,.17-.35,.25-.58,.25s-.42-.08-.59-.25c-.17-.17-.25-.36-.25-.57v-.54c0-.08-.04-.12-.12-.12h-4.22c-.21,0-.4-.08-.57-.24-.17-.16-.25-.35-.25-.58s.08-.42,.24-.58c.16-.16,.35-.24,.58-.24h4.22c.08,0,.12-.04,.12-.12v-.42c0-.08-.04-.12-.12-.12h-2.34c-.36,0-.67-.13-.93-.38-.26-.25-.39-.57-.39-.94v-3.6c0-.36,.13-.67,.38-.93,.25-.26,.57-.39,.94-.39h2.34c.08,0,.12-.04,.12-.12v-.4c0-.08-.04-.12-.12-.12h-2.82c-.23,0-.42-.08-.59-.24-.17-.16-.25-.35-.25-.58s.08-.42,.25-.58c.17-.16,.36-.24,.59-.24h2.82c.08,0,.12-.04,.12-.12v-.32c0-.24,.1-.45,.3-.62,.08-.08,.07-.12-.04-.12h-3.82c-.08,0-.12,.04-.12,.12v.58c0,.24-.08,.44-.25,.61-.17,.17-.36,.25-.59,.25Zm4.4,4.22c.08,0,.12-.04,.12-.12v-.46c0-.08-.04-.12-.12-.12h-1.88c-.08,0-.12,.04-.12,.12v.46c0,.08,.04,.12,.12,.12h1.88Zm-1.88,1.6c-.08,0-.12,.04-.12,.12v.46c0,.08,.04,.12,.12,.12h1.88c.08,0,.12-.04,.12-.12v-.46c0-.08-.04-.12-.12-.12h-1.88Zm5.68-1.6c.08,0,.12-.04,.12-.12v-.46c0-.08-.04-.12-.12-.12h-1.9c-.08,0-.12,.04-.12,.12v.46c0,.08,.04,.12,.12,.12h1.9Zm-1.9,1.6c-.08,0-.12,.04-.12,.12v.46c0,.08,.04,.12,.12,.12h1.9c.08,0,.12-.04,.12-.12v-.46c0-.08-.04-.12-.12-.12h-1.9Z" fill="#fff"/>
        <path d="M151.05,65.15c-.07,.09-.05,.14,.06,.14h2.16c.36,0,.67,.13,.93,.38,.26,.25,.39,.57,.39,.94v2.4c0,.23-.08,.43-.25,.6-.17,.17-.37,.26-.61,.26-.23,0-.43-.08-.6-.25-.17-.17-.26-.37-.26-.61v-1.96c0-.08-.04-.12-.12-.12h-12.16c-.08,0-.12,.04-.12,.12v1.96c0,.23-.08,.43-.25,.6-.17,.17-.37,.26-.61,.26s-.43-.08-.6-.25c-.17-.17-.26-.37-.26-.61v-2.4c0-.36,.13-.67,.39-.93,.26-.26,.57-.39,.93-.39h1.88c.11,0,.13-.05,.08-.14-.2-.35-.45-.65-.74-.9-.17-.17-.26-.38-.26-.62,0-.27,.11-.48,.32-.64,.19-.15,.39-.22,.6-.22,.32,0,.57,.13,.76,.4,.21,.29,.43,.62,.65,.97,.22,.35,.42,.71,.59,1.07,.01,.05,.06,.08,.14,.08h1.34s.07-.01,.09-.04c.02-.03,.02-.06-.01-.1-.19-.37-.43-.75-.74-1.14-.12-.16-.18-.33-.18-.5,0-.29,.13-.51,.4-.66,.16-.08,.32-.12,.48-.12,.39,0,.69,.16,.9,.48,.19,.31,.36,.63,.53,.97s.32,.67,.45,.99v.02s.03,.03,.06,.06c.03,.03,.05,.04,.08,.04h1.06c.05,0,.1-.02,.14-.06,.6-.56,1.15-1.26,1.64-2.1,.19-.33,.47-.5,.86-.5,.27,0,.47,.08,.62,.24,.15,.16,.22,.35,.22,.56,0,.16-.03,.29-.1,.4-.13,.21-.27,.43-.42,.65s-.3,.44-.46,.67Zm-4.42,8.98s-.03,.07,0,.1c.02,.03,.05,.04,.09,.04h5.12c.36,0,.67,.13,.93,.39s.39,.57,.39,.93v3.28c0,.37-.13,.69-.39,.94-.26,.25-.57,.38-.93,.38h-10.32c-.36,0-.67-.13-.93-.38-.26-.25-.39-.57-.39-.94v-3.28c0-.36,.13-.67,.39-.93,.26-.26,.57-.39,.93-.39h2.72c.05,0,.1-.02,.14-.06,.36-.32,.65-.69,.88-1.12,.03-.04,.03-.07,0-.1-.02-.03-.05-.04-.09-.04h-1.98c-.36,0-.67-.13-.93-.38-.26-.25-.39-.57-.39-.94v-2.14c0-.36,.13-.67,.38-.93,.25-.26,.57-.39,.94-.39h6.96c.36,0,.67,.13,.93,.39,.26,.26,.39,.57,.39,.93v2.14c0,.36-.13,.67-.38,.93-.25,.26-.57,.39-.94,.39h-2.86c-.08,0-.13,.03-.14,.1-.07,.17-.14,.35-.23,.53-.09,.18-.18,.36-.29,.55Zm-4.72,4.24c0,.08,.04,.12,.12,.12h9.28c.08,0,.12-.04,.12-.12v-2.26c0-.08-.04-.12-.12-.12h-9.28c-.08,0-.12,.04-.12,.12v2.26Zm7.86-8.42c0-.08-.04-.12-.12-.12h-5.96c-.08,0-.12,.04-.12,.12v1.22c0,.08,.04,.12,.12,.12h5.96c.08,0,.12-.04,.12-.12v-1.22Z" fill="#fff"/>
        <path d="M164.27,78.88c-.19,0-.36-.05-.52-.16-.16-.11-.27-.25-.34-.44-.28-.87-.49-1.84-.62-2.92-.13-1.08-.2-2.18-.2-3.3,0-1.2,.07-2.38,.22-3.53,.15-1.15,.37-2.18,.66-3.07,.15-.43,.45-.64,.92-.64,.27,0,.47,.08,.62,.25,.15,.17,.22,.36,.22,.59,0,.07-.01,.15-.04,.26-.27,.84-.47,1.79-.6,2.84-.13,1.05-.2,2.13-.2,3.24,0,1.03,.06,2.04,.18,3.03,.12,.99,.3,1.9,.54,2.71,.01,.04,.02,.08,.03,.12s0,.08,0,.12c0,.23-.08,.43-.24,.62-.16,.19-.37,.28-.64,.28Zm12.04-1.54c-.57,.19-1.2,.34-1.87,.46-.67,.12-1.37,.18-2.09,.18-1.05,0-2.09-.15-3.11-.46s-1.92-.83-2.71-1.58c-.17-.16-.26-.36-.26-.6,0-.25,.09-.47,.26-.64,.13-.17,.33-.26,.58-.26,.21,0,.41,.07,.6,.22,.59,.51,1.29,.89,2.1,1.16,.81,.27,1.69,.4,2.62,.4,.55,0,1.11-.05,1.68-.14,.57-.09,1.14-.24,1.7-.44,.05-.03,.1-.04,.14-.04h.14c.23,0,.42,.08,.59,.23,.17,.15,.25,.36,.25,.63,0,.44-.21,.73-.62,.88Zm-8.56-8.72c-.21-.04-.39-.14-.52-.31-.13-.17-.2-.36-.2-.57,0-.27,.1-.48,.29-.64,.19-.16,.42-.23,.67-.2,1.07,.16,2.19,.24,3.36,.24,.65,0,1.29-.03,1.9-.08s1.17-.13,1.68-.24c.04-.01,.1-.02,.18-.02,.23,0,.42,.08,.59,.25,.17,.17,.25,.36,.25,.59,0,.21-.07,.41-.21,.58-.14,.17-.32,.28-.53,.32-.57,.11-1.2,.19-1.89,.26-.69,.07-1.4,.1-2.13,.1-1.17,0-2.32-.09-3.44-.28Z" fill="#fff"/>
        <path d="M198.38,71.7c0,.08,.04,.12,.12,.12h1.42c.24,0,.44,.09,.61,.26,.17,.17,.25,.37,.25,.6s-.08,.43-.25,.6c-.17,.17-.37,.26-.61,.26h-1.42c-.08,0-.12,.04-.12,.12v3.54c0,.93-.3,1.67-.9,2.2-.6,.53-1.41,.8-2.44,.8-.25,0-.53-.02-.84-.06-.25-.03-.45-.15-.6-.36-.15-.21-.19-.45-.14-.7,.03-.23,.14-.41,.35-.55,.21-.14,.43-.19,.67-.15,.27,.04,.51,.06,.72,.06,.95,0,1.42-.41,1.42-1.24v-3.54c0-.08-.04-.12-.12-.12h-5.78c-.36,0-.62-.17-.78-.5-.03-.09-.06-.09-.1,0-.11,.24-.28,.4-.52,.48-.13,.05-.28,.1-.43,.15s-.3,.09-.45,.13c-.07,.04-.1,.09-.1,.14v5.22c0,.23-.09,.42-.26,.59-.17,.17-.37,.25-.6,.25-.24,0-.44-.08-.61-.25-.17-.17-.25-.36-.25-.59v-4.7c0-.09-.05-.13-.14-.1-.33,.08-.67,.16-1,.23-.33,.07-.65,.14-.94,.21-.25,.04-.48-.02-.67-.19-.19-.17-.29-.38-.29-.63,0-.2,.07-.38,.2-.55,.13-.17,.31-.28,.52-.33,.35-.07,.71-.14,1.08-.23,.37-.09,.75-.18,1.14-.29,.07-.03,.1-.07,.1-.12v-4.08c0-.08-.04-.12-.12-.12h-.64c-.08,0-.13,.03-.14,.1-.13,.29-.28,.59-.45,.88-.17,.29-.36,.57-.59,.84-.13,.17-.31,.26-.54,.26-.24,0-.44-.1-.6-.3-.13-.17-.2-.37-.2-.6,0-.25,.08-.49,.24-.7,.37-.51,.65-1.09,.84-1.75,.19-.66,.31-1.34,.36-2.03,.03-.24,.13-.44,.3-.6,.17-.16,.37-.24,.58-.24,.24,0,.44,.08,.61,.25,.17,.17,.24,.37,.21,.61-.01,.21-.04,.44-.07,.68-.03,.24-.07,.49-.11,.74v.04c0,.07,.04,.1,.12,.1h.08c.08,0,.12-.04,.12-.12v-2.7c0-.23,.08-.42,.25-.59s.37-.25,.61-.25c.23,0,.43,.08,.6,.25,.17,.17,.26,.36,.26,.59v2.7c0,.08,.04,.12,.12,.12h.98c.23,0,.42,.09,.59,.26,.17,.17,.25,.37,.25,.6s-.08,.43-.25,.6c-.17,.17-.36,.26-.59,.26h-.98c-.08,0-.12,.04-.12,.12v3.5c0,.11,.05,.14,.14,.1l.36-.14c.05-.03,.1-.04,.15-.04h.13c.19,0,.35,.05,.49,.15,.14,.1,.24,.24,.29,.43,.03-.04,.05-.07,.06-.1,.07-.13,.17-.24,.31-.33,.14-.09,.29-.13,.45-.13h5.78c.08,0,.12-.04,.12-.12v-.6c0-.24,.09-.44,.26-.61,.17-.17,.38-.26,.62-.27,.24,0,.45,.09,.62,.26,.17,.17,.26,.38,.26,.62v.6Zm-7.78-3.24h3.52c.08,0,.12-.04,.12-.12v-1.54c0-.08-.04-.12-.12-.12h-2.52c-.24,0-.44-.09-.61-.26-.17-.17-.25-.37-.25-.6s.08-.43,.25-.6c.17-.17,.37-.26,.61-.26h2.52c.08,0,.12-.04,.12-.12v-1.1c0-.24,.09-.44,.26-.61,.17-.17,.37-.25,.6-.25,.24,0,.45,.08,.62,.25,.17,.17,.26,.37,.26,.61v1.1c0,.08,.04,.12,.12,.12h2.9c.24,0,.44,.09,.61,.26,.17,.17,.25,.37,.25,.6s-.08,.43-.25,.6c-.17,.17-.37,.26-.61,.26h-2.9c-.08,0-.12,.04-.12,.12v1.54c0,.08,.04,.12,.12,.12h3.88c.24,0,.44,.08,.61,.25s.25,.37,.25,.61-.08,.44-.25,.61-.37,.25-.61,.25h-9.38c-.23,0-.42-.09-.59-.26-.17-.17-.25-.37-.25-.6,0-.24,.08-.44,.25-.61,.17-.17,.36-.25,.59-.25Zm3.14,9.48c-.05,.01-.1,.02-.14,.03-.04,0-.09,.01-.14,.01-.37,0-.65-.17-.84-.5-.17-.35-.4-.74-.67-1.19-.27-.45-.53-.84-.77-1.19-.09-.13-.14-.29-.14-.46,0-.15,.04-.28,.11-.41,.07-.13,.18-.22,.31-.27,.15-.08,.3-.12,.46-.12,.36,0,.63,.16,.82,.48,.23,.35,.47,.76,.74,1.24,.27,.48,.5,.91,.7,1.3,.05,.11,.08,.22,.08,.34,0,.35-.17,.59-.52,.74Z" fill="#fff"/>
        <path d="M212.17,62.79c.31,0,.54,.11,.7,.33,.16,.22,.22,.46,.18,.73-.17,.81-.41,1.62-.7,2.42-.29,.8-.63,1.58-1.02,2.34-.03,.05-.04,.1-.04,.14v10.7c0,.23-.08,.43-.25,.6-.17,.17-.37,.26-.61,.26s-.45-.08-.62-.25c-.17-.17-.26-.37-.26-.61v-7.82c0-.05-.02-.09-.05-.1s-.06,0-.09,.04c-.25,.31-.51,.6-.78,.88-.27,.28-.53,.54-.8,.78-.15,.13-.33,.2-.56,.2-.27,0-.49-.11-.68-.34-.13-.17-.2-.35-.2-.54,0-.28,.11-.51,.34-.7,.72-.63,1.39-1.39,2-2.28,.61-.89,1.15-1.86,1.6-2.91,.45-1.05,.78-2.1,.98-3.15,.04-.2,.14-.37,.31-.51,.17-.14,.35-.21,.55-.21Zm11.32,14.02c.21,.19,.32,.42,.32,.7,0,.2-.06,.38-.18,.54-.35,.44-.72,.82-1.13,1.13s-.92,.56-1.54,.73c-.62,.17-1.42,.26-2.41,.26-1.56,0-2.67-.28-3.33-.83-.66-.55-.99-1.48-.99-2.79v-12.8c0-.24,.09-.44,.26-.61,.17-.17,.38-.26,.62-.27,.24,0,.45,.09,.62,.26,.17,.17,.26,.38,.26,.62v7.5s.01,.07,.04,.09c.03,.02,.06,.02,.1-.01,1-.51,1.94-1.19,2.82-2.05,.88-.86,1.64-1.82,2.28-2.87,.08-.15,.19-.25,.33-.32,.14-.07,.28-.1,.41-.1,.17,0,.33,.05,.46,.14,.15,.08,.25,.19,.32,.33,.07,.14,.1,.28,.1,.43,0,.19-.05,.35-.14,.48-.85,1.37-1.85,2.56-2.99,3.57s-2.35,1.78-3.63,2.33c-.07,.01-.1,.06-.1,.14v3.12c0,.55,.06,.96,.18,1.23,.12,.27,.36,.46,.73,.55,.37,.09,.92,.14,1.65,.14,.81,0,1.45-.07,1.92-.2,.47-.13,.83-.31,1.1-.54s.5-.48,.7-.76c.16-.23,.39-.34,.68-.34,.21,0,.39,.07,.54,.2Z" fill="#fff"/>
        <path d="M234.73,78.24c-.64-.56-1.12-1.29-1.43-2.2-.31-.91-.47-2.02-.47-3.34,0-.71,.04-1.47,.13-2.29s.22-1.7,.39-2.65c.12-.63,.18-1.11,.18-1.46,0-.29-.03-.54-.1-.75-.07-.21-.17-.42-.3-.63-.09-.13-.14-.29-.14-.48,0-.13,.03-.26,.09-.38,.06-.12,.16-.21,.29-.28,.16-.08,.32-.12,.48-.12,.15,0,.29,.03,.43,.1,.14,.07,.25,.17,.33,.32,.21,.33,.37,.68,.47,1.03,.1,.35,.15,.75,.15,1.19,0,.25-.02,.53-.05,.82-.03,.29-.08,.61-.15,.96-.17,.93-.3,1.79-.38,2.58-.08,.79-.12,1.5-.12,2.14,0,1.77,.35,3.05,1.04,3.82,.65,.75,1.43,1.12,2.34,1.12,.79,0,1.61-.28,2.46-.84,.85-.56,1.67-1.39,2.46-2.48,.19-.23,.41-.34,.68-.34,.21,0,.39,.07,.54,.2,.24,.21,.36,.48,.36,.8,0,.2-.06,.39-.18,.58-.85,1.23-1.83,2.17-2.94,2.83s-2.21,.99-3.3,.99c-.59,0-1.16-.1-1.71-.31-.55-.21-1.07-.52-1.55-.93Z" fill="#fff"/>
        <path d="M261.54,67.91c-.36,.21-.74,.4-1.15,.55-.41,.15-.84,.28-1.29,.39-.08,.01-.13,.07-.16,.18-.37,1.81-.89,3.54-1.55,5.19-.66,1.65-1.38,3.12-2.17,4.43-.08,.13-.19,.24-.32,.31-.13,.07-.27,.11-.42,.11-.19,0-.35-.05-.48-.14-.28-.19-.42-.44-.42-.76,0-.17,.04-.33,.12-.46,.79-1.33,1.46-2.69,2.02-4.06,.56-1.37,1.01-2.78,1.34-4.22v-.04c0-.13-.06-.19-.18-.16-.99,.11-1.99,.15-3.02,.12-.23-.01-.42-.1-.59-.27-.17-.17-.25-.36-.25-.59,0-.25,.09-.47,.26-.64,.17-.17,.39-.25,.64-.24,.17,.01,.34,.02,.51,.02h.51c.4,0,.79,0,1.18-.03,.39-.02,.77-.06,1.14-.11,.11-.01,.17-.07,.18-.18,.08-.47,.14-.94,.19-1.43,.05-.49,.08-.98,.11-1.47,.01-.23,.11-.43,.28-.6,.17-.17,.37-.26,.6-.26,.27,0,.49,.09,.66,.26,.17,.17,.25,.39,.24,.66-.01,.39-.04,.77-.07,1.16-.03,.39-.08,.77-.13,1.16v.04c0,.13,.06,.17,.18,.12,.36-.13,.72-.3,1.08-.5,.15-.08,.3-.12,.46-.12,.32,0,.57,.13,.76,.38,.11,.15,.16,.31,.16,.48,0,.31-.14,.55-.42,.72Zm7.04,9.74c0,.2-.06,.39-.18,.56-.12,.17-.29,.29-.5,.36-.48,.13-.96,.23-1.44,.3-.48,.07-.96,.1-1.44,.1-.97,0-1.92-.14-2.85-.42-.93-.28-1.81-.71-2.65-1.28-.25-.17-.38-.41-.38-.7,0-.19,.06-.36,.18-.52,.16-.24,.39-.36,.7-.36,.16,0,.33,.05,.5,.16,1.36,.89,2.85,1.34,4.46,1.34,.84,0,1.69-.12,2.54-.36,.05-.01,.13-.02,.22-.02,.23,0,.42,.08,.59,.23,.17,.15,.25,.36,.25,.61Zm-7.74-8.24c0-.23,.07-.42,.22-.59,.15-.17,.33-.26,.54-.29,.25-.03,.51-.05,.76-.06,.25-.01,.51-.02,.76-.02,.81,0,1.61,.07,2.38,.2,.77,.13,1.47,.33,2.08,.6,.16,.07,.29,.18,.38,.33,.09,.15,.14,.32,.14,.49,0,.25-.08,.46-.25,.62-.17,.16-.36,.24-.59,.24-.15,0-.27-.03-.38-.08-1.13-.49-2.39-.74-3.78-.74-.21,0-.43,0-.66,.02s-.45,.03-.68,.06c-.24,.03-.45-.04-.64-.19-.19-.15-.28-.35-.28-.59Z" fill="#fff"/>
        <path d="M55.56,103.78c.24,0,.44,.09,.61,.26s.25,.37,.25,.6c0,.25-.09,.47-.26,.64-.17,.17-.38,.26-.62,.26h-4.9c-.12,0-.18,.06-.18,.18,0,1.33-.15,2.47-.46,3.4s-.74,1.74-1.3,2.42c-.56,.68-1.21,1.31-1.96,1.88-.12,.11-.28,.16-.48,.16-.32,0-.56-.14-.72-.42-.08-.16-.12-.33-.12-.5,0-.32,.13-.58,.38-.78,.83-.65,1.44-1.3,1.84-1.94,.4-.64,.66-1.3,.79-1.99,.13-.69,.2-1.42,.21-2.21,0-.12-.06-.18-.18-.18-1.12,.01-2.2,.04-3.23,.08s-1.9,.09-2.61,.16c-.24,.01-.45-.06-.63-.22-.18-.16-.27-.36-.27-.6,0-.25,.09-.47,.26-.66,.17-.19,.38-.29,.62-.3,.6-.04,1.3-.08,2.1-.12s1.65-.07,2.56-.09,1.82-.04,2.75-.05c.93-.01,1.81-.02,2.65-.02,.56,0,1.09,0,1.58,0,.49,0,.93,.02,1.32,.03Zm-11.02-2.38c-.24,.01-.45-.06-.62-.23-.17-.17-.26-.37-.26-.61,0-.25,.08-.47,.25-.64,.17-.17,.38-.27,.63-.28,.59-.03,1.32-.05,2.2-.06s1.77-.02,2.68-.02c.76,0,1.49,0,2.18,.02s1.28,.03,1.76,.06c.23,.01,.42,.11,.59,.29,.17,.18,.25,.39,.25,.63,0,.25-.09,.46-.26,.63-.17,.17-.39,.24-.64,.23-.51-.03-1.15-.05-1.93-.06-.78-.01-1.58-.02-2.41-.02s-1.65,0-2.43,.01c-.78,0-1.44,.02-1.99,.05Zm10.14-3.36c.31,.29,.61,.64,.92,1.03s.58,.78,.82,1.15c.07,.08,.1,.19,.1,.34,0,.24-.09,.42-.28,.54-.08,.07-.19,.1-.34,.1-.24,0-.42-.09-.54-.28-.21-.35-.47-.7-.76-1.06s-.56-.67-.8-.92c-.13-.13-.2-.29-.2-.46,0-.16,.06-.3,.18-.42,.12-.13,.27-.2,.46-.2,.17,0,.32,.06,.44,.18Zm3.24,1.3c.07,.08,.1,.19,.1,.34,0,.25-.09,.44-.28,.56-.11,.07-.22,.1-.34,.1-.23,0-.4-.1-.52-.3-.21-.33-.46-.68-.75-1.03-.29-.35-.55-.65-.79-.89-.12-.15-.18-.29-.18-.44,0-.17,.06-.32,.18-.44,.12-.12,.27-.18,.46-.18,.17,0,.32,.06,.44,.18,.31,.29,.61,.63,.9,1,.29,.37,.55,.74,.78,1.1Z" fill="#fff"/>
        <path d="M78.81,101.94c.25-.01,.47,.07,.65,.24s.27,.39,.27,.66c0,.23-.08,.42-.24,.59-.16,.17-.36,.26-.6,.27-.37,.01-.81,.03-1.31,.04-.5,.01-1.03,.02-1.59,.02-.12,0-.18,.06-.18,.18-.04,1.03-.13,2.01-.27,2.94-.14,.93-.38,1.81-.72,2.62s-.83,1.57-1.47,2.26c-.64,.69-1.48,1.31-2.52,1.86-.13,.07-.27,.1-.4,.1-.16,0-.31-.04-.46-.13-.15-.09-.25-.21-.32-.37-.07-.13-.1-.27-.1-.4,0-.35,.17-.61,.5-.8,1.11-.6,1.94-1.29,2.5-2.07,.56-.78,.94-1.67,1.15-2.67,.21-1,.33-2.11,.37-3.34,0-.12-.06-.18-.18-.18h-3.94c-.12,0-.18,.06-.18,.18,0,.85,.02,1.61,.06,2.26,.04,.65,.13,1.26,.28,1.82,.01,.04,.02,.08,.03,.12s.01,.08,.01,.12c0,.23-.08,.42-.25,.59-.17,.17-.38,.25-.65,.25-.19,0-.36-.05-.51-.15-.15-.1-.26-.24-.33-.41-.17-.55-.29-1.22-.34-2.02-.05-.8-.09-1.66-.1-2.58,0-.12-.06-.18-.18-.18-.53,.01-1.03,.02-1.5,.03-.47,0-.91,.02-1.32,.05-.25,.01-.47-.07-.65-.24-.18-.17-.27-.39-.27-.64,0-.23,.08-.43,.24-.6,.16-.17,.36-.27,.6-.28,.43-.01,.88-.02,1.37-.03,.49,0,1-.01,1.53-.01,.12,0,.18-.06,.18-.18v-.8c0-.39,0-.76-.02-1.11-.01-.35-.02-.7-.02-1.05,0-.25,.09-.46,.26-.62,.17-.16,.38-.24,.62-.24s.45,.09,.62,.26c.17,.17,.27,.38,.28,.62,.04,1.09,.06,2.07,.06,2.92,0,.12,.06,.18,.18,.18h3.96c.12,0,.18-.06,.18-.18v-1.62c0-.56,0-1.14,.02-1.74,.01-.25,.11-.46,.28-.63,.17-.17,.38-.25,.62-.25s.45,.09,.62,.26c.17,.17,.25,.38,.24,.62-.01,.57-.02,1.14-.03,1.7,0,.56,0,1.11,0,1.64,0,.12,.09,.18,.26,.18,.55-.01,1.05-.02,1.5-.03s.86-.02,1.22-.03Zm-.48-.92c-.21-.33-.46-.68-.75-1.04-.29-.36-.56-.67-.81-.92-.13-.13-.2-.29-.2-.46s.06-.32,.18-.44c.13-.13,.29-.2,.48-.2,.17,0,.32,.06,.44,.18,.31,.31,.61,.66,.92,1.05,.31,.39,.58,.77,.82,1.13,.07,.08,.1,.19,.1,.34,0,.25-.1,.44-.3,.56-.08,.07-.19,.1-.34,.1-.24,0-.42-.1-.54-.3Zm2.58-1.56c.07,.11,.1,.22,.1,.34,0,.24-.1,.42-.3,.54-.09,.08-.21,.12-.34,.12-.21,0-.39-.1-.52-.3-.21-.35-.46-.69-.74-1.04-.28-.35-.54-.65-.78-.9-.13-.12-.2-.27-.2-.44,0-.16,.06-.3,.18-.42,.15-.12,.3-.18,.46-.18,.19,0,.34,.06,.46,.18,.31,.29,.6,.63,.89,1,.29,.37,.55,.74,.79,1.1Z" fill="#fff"/>
        <path d="M98.71,98c.19,.08,.33,.2,.42,.35,.09,.15,.14,.32,.14,.51,0,.13-.03,.25-.08,.36-.31,.65-.69,1.33-1.15,2.02-.46,.69-.99,1.39-1.59,2.1-.07,.05-.09,.13-.06,.24,.15,.43,.25,.94,.32,1.53,.07,.59,.1,1.27,.1,2.03s-.03,1.61-.08,2.54c-.05,.93-.13,1.97-.24,3.1-.01,.24-.11,.45-.3,.62s-.41,.26-.66,.26-.47-.1-.64-.29c-.17-.19-.25-.42-.24-.67,.11-1.21,.2-2.31,.27-3.3s.11-1.87,.11-2.64c0-.31,0-.59-.02-.86-.01-.27-.03-.51-.06-.74-.03-.17-.11-.2-.24-.08-.67,.61-1.4,1.2-2.21,1.76-.81,.56-1.68,1.09-2.63,1.58-.11,.05-.24,.08-.4,.08-.17,0-.33-.04-.48-.13-.15-.09-.25-.22-.32-.39-.05-.12-.08-.25-.08-.4,0-.39,.17-.67,.52-.86,1.99-1.08,3.69-2.31,5.11-3.7,1.42-1.39,2.52-2.91,3.29-4.56,.08-.17,.2-.31,.35-.4s.32-.14,.49-.14c.13,0,.25,.03,.36,.08Z" fill="#fff"/>
        <path d="M116.2,104.3c-.16,.17-.37,.26-.64,.26s-.49-.09-.68-.26c-.89-.81-2.04-1.33-3.44-1.56-.23-.04-.42-.15-.57-.32-.15-.17-.23-.37-.23-.6,0-.29,.1-.53,.31-.72s.45-.27,.73-.24c.88,.12,1.72,.38,2.53,.79s1.46,.82,1.95,1.25c.21,.19,.32,.42,.32,.7,0,.25-.09,.49-.28,.7Zm-4.5,8.38s-.09,.02-.16,.02c-.24,0-.45-.09-.62-.26-.17-.17-.26-.39-.26-.64,0-.23,.07-.43,.22-.62,.15-.19,.34-.31,.58-.36,.88-.21,1.84-.53,2.87-.95s2.08-.95,3.15-1.6c1.07-.65,2.1-1.41,3.11-2.3,1.01-.89,1.94-1.9,2.79-3.03,.19-.25,.43-.38,.74-.38,.21,0,.41,.07,.58,.2,.25,.21,.38,.48,.38,.8,0,.2-.07,.39-.2,.56-.73,.97-1.59,1.91-2.58,2.82-.99,.91-2.06,1.74-3.21,2.51-1.15,.77-2.36,1.43-3.61,1.99-1.25,.56-2.51,.97-3.78,1.24Z" fill="#fff"/>
        <path d="M148.11,102.84c0,.23-.08,.42-.24,.59-.16,.17-.36,.26-.6,.27-.37,.01-.81,.03-1.31,.04-.5,.01-1.03,.02-1.59,.02-.12,0-.18,.06-.18,.18-.04,1.03-.13,2.01-.27,2.94-.14,.93-.38,1.81-.72,2.62s-.83,1.57-1.47,2.26c-.64,.69-1.48,1.31-2.52,1.86-.13,.07-.27,.1-.4,.1-.16,0-.31-.04-.46-.13-.15-.09-.25-.21-.32-.37-.07-.13-.1-.27-.1-.4,0-.35,.17-.61,.5-.8,1.11-.6,1.94-1.29,2.5-2.07,.56-.78,.94-1.67,1.15-2.67,.21-1,.33-2.11,.37-3.34,0-.12-.06-.18-.18-.18h-3.94c-.12,0-.18,.06-.18,.18,0,.85,.02,1.61,.06,2.26,.04,.65,.13,1.26,.28,1.82,.01,.04,.02,.08,.03,.12s.01,.08,.01,.12c0,.23-.08,.42-.25,.59-.17,.17-.38,.25-.65,.25-.19,0-.36-.05-.51-.15-.15-.1-.26-.24-.33-.41-.17-.55-.29-1.22-.34-2.02-.05-.8-.09-1.66-.1-2.58,0-.12-.06-.18-.18-.18-.53,.01-1.03,.02-1.5,.03-.47,0-.91,.02-1.32,.05-.25,.01-.47-.07-.65-.24-.18-.17-.27-.39-.27-.64,0-.23,.08-.43,.24-.6,.16-.17,.36-.27,.6-.28,.43-.01,.88-.02,1.37-.03,.49,0,1-.01,1.53-.01,.12,0,.18-.06,.18-.18v-.8c0-.39,0-.76-.02-1.11-.01-.35-.02-.7-.02-1.05,0-.25,.09-.46,.26-.62,.17-.16,.38-.24,.62-.24s.45,.09,.62,.26c.17,.17,.27,.38,.28,.62,.04,1.09,.06,2.07,.06,2.92,0,.12,.06,.18,.18,.18h3.96c.12,0,.18-.06,.18-.18v-1.62c0-.56,0-1.14,.02-1.74,.01-.25,.11-.46,.28-.63,.17-.17,.38-.25,.62-.25s.45,.09,.62,.26c.17,.17,.25,.38,.24,.62-.01,.57-.02,1.14-.03,1.7,0,.56,0,1.11,0,1.64,0,.12,.06,.18,.18,.18,.55-.01,1.06-.02,1.53-.03,.47,0,.9-.02,1.27-.03,.25-.01,.47,.07,.65,.24s.27,.39,.27,.66Z" fill="#fff"/>
        <path d="M169.31,106.58h-12.48c-.24,0-.45-.09-.62-.26-.17-.17-.26-.38-.26-.62,0-.25,.09-.46,.26-.63,.17-.17,.38-.25,.62-.25h12.48c.24,0,.45,.09,.62,.26,.17,.17,.26,.38,.26,.62,0,.25-.09,.46-.26,.63-.17,.17-.38,.25-.62,.25Z" fill="#fff"/>
        <path d="M191.38,111.14c.27-.03,.5,.04,.7,.21,.2,.17,.3,.38,.3,.65,0,.24-.07,.45-.22,.63-.15,.18-.33,.28-.56,.31-.43,.05-.95,.1-1.57,.15-.62,.05-1.28,.08-1.98,.11-.7,.03-1.39,.05-2.08,.07s-1.32,.03-1.91,.03c-1.45-.01-2.51-.34-3.16-.97-.65-.63-.95-1.64-.9-3.01v-9.54c0-.25,.09-.47,.27-.64,.18-.17,.39-.26,.63-.26,.25,0,.47,.09,.64,.27,.17,.18,.26,.39,.26,.63v4.12c0,.12,.06,.17,.18,.16,1.47-.12,2.88-.33,4.23-.64s2.73-.75,4.13-1.32c.11-.04,.21-.06,.32-.06,.23,0,.43,.08,.61,.24,.18,.16,.27,.38,.27,.66,0,.19-.06,.37-.17,.54-.11,.17-.26,.29-.45,.36-1.39,.53-2.83,.97-4.32,1.31-1.49,.34-3.03,.58-4.62,.71-.12,.01-.18,.08-.18,.2v3.28c0,.65,.07,1.13,.2,1.42,.13,.29,.37,.48,.7,.57,.33,.09,.79,.14,1.38,.17,.15,.01,.3,.02,.47,.02h.53c.64,0,1.35-.02,2.12-.05,.77-.03,1.53-.08,2.28-.13,.75-.05,1.38-.12,1.9-.2Zm-.18-9.76c-.21-.31-.47-.65-.76-1.02s-.56-.69-.8-.94c-.13-.13-.2-.29-.2-.48,0-.13,.05-.27,.16-.4,.13-.13,.29-.2,.48-.2,.17,0,.32,.06,.44,.18,.29,.29,.59,.63,.9,1.02s.59,.77,.84,1.16c.07,.08,.1,.19,.1,.32,0,.25-.1,.44-.3,.56-.08,.07-.19,.1-.32,.1-.24,0-.42-.1-.54-.3Zm2.56-1.54c.07,.08,.1,.19,.1,.32,0,.25-.1,.44-.3,.56-.11,.07-.22,.1-.34,.1-.23,0-.4-.1-.52-.3-.21-.32-.46-.66-.73-1.01-.27-.35-.54-.66-.79-.91-.13-.13-.2-.28-.2-.44,0-.17,.07-.31,.2-.42,.12-.13,.27-.2,.46-.2,.17,0,.32,.06,.44,.18,.27,.25,.54,.56,.82,.93,.28,.37,.57,.76,.86,1.19Z" fill="#fff"/>
        <path d="M216.11,111.98c.12,.16,.18,.34,.18,.54,0,.32-.13,.59-.38,.8-.16,.12-.33,.18-.52,.18-.29,0-.53-.12-.72-.36-.41-.61-.91-1.2-1.48-1.76-.57-.56-1.18-1.06-1.81-1.5-.63-.44-1.27-.79-1.91-1.04-.09-.04-.17-.03-.24,.04-.85,.8-1.83,1.58-2.93,2.34s-2.34,1.45-3.73,2.08c-.11,.05-.23,.08-.36,.08-.21,0-.41-.08-.58-.24-.17-.16-.26-.37-.26-.62,0-.2,.06-.39,.17-.56,.11-.17,.26-.3,.45-.38,1.29-.57,2.46-1.22,3.49-1.95,1.03-.73,1.93-1.47,2.7-2.24,.77-.77,1.4-1.5,1.91-2.2,.51-.7,.88-1.3,1.12-1.79,.27-.57,.4-1.01,.4-1.32,0-.41-.27-.62-.8-.62h-.25c-.09,0-.18,.01-.29,.04-.45,.07-1.06,.13-1.82,.2-.76,.07-1.59,.12-2.49,.16s-1.78,.06-2.65,.06c-.23,0-.42-.08-.59-.25-.17-.17-.25-.37-.25-.61,0-.25,.09-.47,.26-.64,.17-.17,.39-.26,.64-.26h.9c1.17,0,2.28-.04,3.32-.12,1.04-.08,1.85-.17,2.42-.28,.15-.03,.29-.05,.42-.06,.13-.01,.27-.02,.4-.02,.8,0,1.42,.22,1.87,.65,.45,.43,.67,1.01,.67,1.73,0,.67-.19,1.38-.56,2.14-.21,.44-.49,.91-.82,1.42-.33,.51-.73,1.03-1.18,1.58-.03,.03-.04,.07-.04,.12s.03,.1,.1,.14c.67,.33,1.33,.75,1.98,1.25s1.26,1.03,1.82,1.6c.56,.57,1.04,1.12,1.44,1.67Z" fill="#fff"/>
        <path d="M236.71,111.4s.08-.02,.12-.03c.04,0,.08,0,.12,0,.23,0,.42,.08,.59,.23,.17,.15,.25,.36,.25,.63,0,.21-.06,.41-.19,.6-.13,.19-.3,.31-.53,.36-.29,.08-.59,.14-.89,.17-.3,.03-.6,.05-.91,.05-1.05,0-2.05-.23-2.98-.68-.93-.45-1.69-1.09-2.26-1.92-.28-.4-.5-.87-.66-1.4-.16-.53-.24-1.11-.24-1.72,0-.88,.2-1.81,.6-2.78,.4-.97,1.09-1.93,2.06-2.86,.04-.04,.06-.08,.06-.12,0-.07-.05-.09-.14-.08-1.13,.12-2.3,.18-3.5,.18-1,0-2-.04-3-.12-.23-.01-.42-.11-.57-.28-.15-.17-.23-.37-.23-.6,0-.27,.1-.49,.3-.66s.43-.25,.68-.22c.96,.08,1.91,.12,2.84,.12,1.6,0,3.12-.12,4.58-.35,1.45-.23,2.82-.58,4.1-1.05,.11-.04,.21-.06,.3-.06,.23,0,.44,.08,.63,.25s.29,.38,.29,.65c0,.17-.05,.34-.14,.49-.09,.15-.23,.26-.42,.33-.75,.27-1.51,.5-2.3,.7-.07,.01-.14,.04-.22,.08-1.35,.87-2.39,1.86-3.14,2.97-.75,1.11-1.12,2.2-1.12,3.27,0,.89,.27,1.69,.8,2.4,.48,.61,1.03,1.05,1.66,1.3,.63,.25,1.25,.38,1.88,.38,.53,0,1.06-.07,1.58-.22Zm.14-8.94c.69,.64,1.25,1.45,1.68,2.44,.03,.04,.04,.08,.04,.12v.12c0,.31-.13,.51-.4,.62-.08,.04-.16,.06-.24,.06-.27,0-.45-.14-.56-.42-.31-.8-.76-1.47-1.36-2.02-.15-.12-.22-.27-.22-.46,0-.16,.05-.29,.16-.4,.12-.15,.28-.22,.48-.22,.15,0,.29,.05,.42,.16Zm3.3,1.7c.04,.08,.06,.17,.06,.26,0,.27-.13,.46-.38,.58-.08,.04-.16,.06-.24,.06-.27,0-.45-.13-.56-.4-.31-.81-.78-1.52-1.42-2.12-.12-.12-.18-.26-.18-.42,0-.15,.05-.29,.16-.42,.12-.12,.27-.18,.46-.18,.13,0,.27,.05,.4,.16,.39,.35,.71,.71,.97,1.09,.26,.38,.5,.84,.73,1.39Z" fill="#fff"/>
        <path d="M261.02,100.14c.23,.04,.41,.14,.54,.31,.13,.17,.2,.36,.2,.59,0,.25-.09,.46-.28,.63s-.41,.23-.66,.19c-.36-.05-.73-.09-1.11-.11-.38-.02-.77-.03-1.17-.03-.35,0-.7,0-1.05,.02-.35,.01-.72,.03-1.09,.06-.12,.01-.18,.08-.18,.2v3s0,.08,0,.11,.02,.07,.03,.11c.33,.81,.5,1.63,.5,2.46,0,.72-.12,1.42-.36,2.1s-.61,1.3-1.1,1.86c-.49,.56-1.11,1.01-1.86,1.36-.75,.35-1.62,.54-2.62,.58-.24,.01-.45-.06-.63-.23-.18-.17-.27-.38-.27-.63s.09-.47,.27-.64,.4-.27,.65-.28c1.11-.03,2.04-.33,2.81-.92s1.23-1.34,1.39-2.26v-.02c0-.08-.03-.13-.09-.16-.06-.03-.12,0-.19,.06-.24,.21-.5,.37-.77,.47-.27,.1-.55,.15-.83,.15-.41,0-.82-.1-1.21-.3-.39-.2-.72-.48-.99-.83-.27-.35-.43-.76-.48-1.21-.01-.07-.02-.14-.02-.22v-.22c0-.57,.12-1.08,.37-1.52,.25-.44,.57-.78,.97-1.03,.4-.25,.84-.37,1.32-.37,.39,0,.79,.09,1.2,.28,.03,.01,.06,.02,.1,.02,.08,0,.12-.05,.12-.16v-1.44c0-.13-.06-.19-.18-.16-.77,.05-1.54,.11-2.3,.16s-1.49,.08-2.2,.08c-.43,0-.84-.01-1.24-.04-.4-.03-.78-.07-1.14-.12-.23-.04-.41-.15-.55-.33-.14-.18-.21-.38-.21-.61,0-.25,.1-.46,.29-.61,.19-.15,.41-.21,.65-.17,.37,.05,.76,.09,1.15,.12,.39,.03,.79,.04,1.19,.04,.71,0,1.42-.03,2.15-.09s1.46-.12,2.19-.17c.12-.03,.18-.09,.18-.2v-1.68c-.01-.24,.06-.44,.23-.61,.17-.17,.37-.25,.61-.25s.44,.09,.61,.26c.17,.17,.25,.37,.25,.6v1.54c0,.13,.07,.19,.2,.16,.37-.03,.74-.05,1.1-.06,.36-.01,.71-.02,1.06-.02,.43,0,.84,.01,1.25,.04s.8,.07,1.19,.14Zm-8.8,6.64c.07,.2,.2,.37,.4,.5,.2,.13,.41,.2,.64,.2,.29,0,.57-.13,.82-.4s.39-.73,.4-1.38c0-.09-.03-.17-.08-.24-.15-.2-.31-.34-.5-.43-.19-.09-.37-.13-.56-.13-.32,0-.6,.12-.85,.36-.25,.24-.37,.55-.37,.94,0,.16,.03,.35,.1,.58Z" fill="#fff"/>
        <path d="M270.42,115c-.48,0-.92-.12-1.33-.36-.41-.24-.73-.56-.97-.96-.24-.4-.36-.84-.36-1.32,.01-.49,.14-.94,.37-1.34,.23-.4,.55-.72,.96-.96,.41-.24,.85-.36,1.33-.36s.94,.12,1.34,.36c.4,.24,.72,.56,.96,.96,.24,.4,.36,.85,.36,1.34s-.12,.92-.36,1.32c-.24,.4-.56,.72-.96,.96-.4,.24-.85,.36-1.34,.36Zm0-1.26c.39,0,.72-.14,.99-.41,.27-.27,.41-.6,.41-.97s-.14-.72-.41-.99c-.27-.27-.6-.41-.99-.41s-.7,.14-.97,.41c-.27,.27-.41,.6-.41,.99s.14,.71,.41,.98c.27,.27,.6,.4,.97,.4Z" fill="#fff"/>
      </g>
    </g>
  </g>
</svg>