<?xml version="1.0" encoding="UTF-8"?><svg id="_レイヤー_2" xmlns="http://www.w3.org/2000/svg" viewBox="0 0 123.79 84.58"><g id="_レイヤー_1-2"><g><path d="M18.93,68.31v14.24h-6.39v-14.24S0,44.91,0,44.91H7.12s8.87,17.46,8.87,17.46h.06s8.87-17.46,8.87-17.46h6.22s-12.21,23.4-12.21,23.4Z"/><path d="M27.53,67.97c0-7.97,5.59-15.26,15.71-15.26s15.71,7.06,15.71,15.09-5.48,15.26-15.66,15.26-15.77-7.06-15.77-15.09Zm25.04,0c0-5.6-2.94-10.4-9.27-10.4s-9.38,4.75-9.38,10.23c0,5.6,3.05,10.4,9.33,10.4s9.33-4.75,9.33-10.23Z"/><path d="M99.25,82.55h-5.99s11.76-29.28,11.76-29.28h5.88s11.98,29.28,11.98,29.28h-6.39s-2.21-5.76-2.21-5.76h-12.89s-2.15,5.76-2.15,5.76Zm10.34-18.2c-.96-2.6-1.75-5.26-1.75-5.26h-.11s-.85,2.77-1.75,5.26l-2.88,7.8h9.44s-2.94-7.8-2.94-7.8Z"/><path d="M62.52,67.91c0-8.2,5.99-15.2,16.5-15.2,5.09,0,8.08,1.36,9.95,2.66l-2.66,4.46c-1.64-1.07-3.84-2.09-7.4-2.09-6.78,0-10,4.13-10,10,0,5.88,3.05,10.46,9.72,10.46,3.85,0,5.71-2.01,5.71-2.01v-5.76s-5.76,0-5.76,0v-5.03h11.59v13.16s-3.62,4.53-11.59,4.5c-10.46-.03-16.05-7.12-16.05-15.15Z"/><rect x=".92" y="82.23" width="122.88" height="2.34"/><path d="M31.43,8.37h6.05v29.28h-6.05V8.37Z"/><path d="M43.19,23.01c0-8.14,5.48-15.2,15.71-15.2,3.96,0,6.73,.85,8.99,2.37l-2.71,4.46c-1.58-1.07-3.45-1.81-6.33-1.81-6.05,0-9.27,4.13-9.27,9.95,0,5.99,3.11,10.4,9.33,10.4,3.33,0,5.43-1.13,7.01-2.26l2.43,4.3c-1.7,1.36-5.03,2.94-9.61,2.94-10.29,0-15.54-7.06-15.54-15.15Z"/><path d="M91.51,8.37h6.73s-11.25,13.68-11.25,13.68l11.64,15.6h-6.73s-11.47-15.15-11.47-15.15v15.15h-6.05V8.37h6.05v13.56s11.08-13.56,11.08-13.56Z"/><path d="M.92,0V37.65s6.38,0,6.38,0V0s-6.38,0-6.38,0Z"/><path d="M11.94,0H7.3s0,5.03,0,5.03h4.13c5.71,0,7.97,2.92,7.97,6.99,0,4.52-2.43,8.47-8.14,8.47h-3.96s0,5.03,0,5.03h3.9c9.1,0,14.64-5.81,14.64-13.67C25.84,4.17,19.85,0,11.94,0Z"/><rect x=".92" y="37.33" width="122.88" height="2.34"/><polygon points="115.45 23.82 100.52 25.52 100.52 20.57 115.45 18.87 115.45 23.82"/></g></g></svg>