<svg xmlns="http://www.w3.org/2000/svg" width="137" height="137" viewBox="0 0 137 137">
  <g id="グループ_470" data-name="グループ 470" transform="translate(2314.138 13.015)">
    <rect id="長方形_1322" data-name="長方形 1322" width="137" height="137" rx="8.068" transform="translate(-2314.138 -13.015)" fill="#fff"/>
    <g id="グループ_469" data-name="グループ 469">
      <g id="グループ_467" data-name="グループ 467">
        <path id="パス_754" data-name="パス 754" d="M-2284.546,63.375V76h-5.662V63.375l-11.121-20.74h6.312l7.866,15.48h.05l7.865-15.48h5.511Z" fill="#1d2088"/>
        <path id="パス_755" data-name="パス 755" d="M-2276.929,63.075c0-7.064,4.959-13.526,13.927-13.526,8.917,0,13.926,6.262,13.926,13.375s-4.859,13.527-13.876,13.527C-2271.87,76.451-2276.929,70.189-2276.929,63.075Zm22.192,0c0-4.96-2.6-9.218-8.215-9.218-5.561,0-8.316,4.208-8.316,9.067,0,4.96,2.705,9.218,8.266,9.218C-2257.391,72.142-2254.737,67.934-2254.737,63.075Z" fill="#1d2088"/>
        <path id="パス_756" data-name="パス 756" d="M-2213.354,76h-5.31l10.42-25.95h5.21l10.62,25.95h-5.66l-1.954-5.11h-11.422Zm9.168-16.132c-.852-2.3-1.553-4.658-1.553-4.658h-.1s-.752,2.454-1.553,4.658l-2.555,6.914h8.366Z" fill="#1d2088"/>
        <path id="パス_757" data-name="パス 757" d="M-2245.915,63.025c0-7.264,5.31-13.476,14.628-13.476,4.509,0,7.164,1.2,8.817,2.354l-2.355,3.958a11.249,11.249,0,0,0-6.563-1.854c-6.01,0-8.866,3.657-8.866,8.868s2.7,9.267,8.616,9.267a7.056,7.056,0,0,0,5.06-1.782V65.251h-5.11V60.792h10.27V72.46s-3.205,4.012-10.27,3.991C-2240.956,76.423-2245.915,70.138-2245.915,63.025Z" fill="#1d2088"/>
        <rect id="長方形_1323" data-name="長方形 1323" width="110.567" height="3.835" transform="translate(-2300.514 75.719)" fill="#1d2088"/>
        <path id="パス_758" data-name="パス 758" d="M-2273.469,10.247h5.361V36.2h-5.361Z" fill="#1d2088"/>
        <path id="パス_759" data-name="パス 759" d="M-2263.05,23.222c0-7.214,4.859-13.476,13.926-13.476a13.562,13.562,0,0,1,7.966,2.1l-2.405,3.958a9.338,9.338,0,0,0-5.611-1.6c-5.36,0-8.215,3.657-8.215,8.817,0,5.31,2.755,9.218,8.265,9.218a10.028,10.028,0,0,0,6.213-2l2.154,3.807a13.879,13.879,0,0,1-8.517,2.6C-2258.392,36.648-2263.05,30.386-2263.05,23.222Z" fill="#1d2088"/>
        <path id="パス_760" data-name="パス 760" d="M-2220.214,10.247h5.962l-9.969,12.124L-2213.9,36.2h-5.961l-10.17-13.426V36.2h-5.36V10.247h5.36V22.271Z" fill="#1d2088"/>
        <path id="パス_761" data-name="パス 761" d="M-2300.514,2.828V36.2h5.655V2.828Z" fill="#1d2088"/>
        <path id="パス_762" data-name="パス 762" d="M-2290.746,2.828h-4.113V7.287h3.661c5.061,0,7.065,2.585,7.065,6.192,0,4.007-2.155,7.511-7.216,7.511h-3.51v4.458h3.457c8.066,0,12.977-5.152,12.977-12.119C-2278.425,6.521-2283.735,2.828-2290.746,2.828Z" fill="#1d2088"/>
        <rect id="長方形_1324" data-name="長方形 1324" width="110.567" height="3.835" transform="translate(-2300.514 35.916)" fill="#1d2088"/>
        <rect id="長方形_1325" data-name="長方形 1325" width="110.567" height="3.835" transform="translate(-2300.514 104.307)" fill="#1d2088"/>
        <path id="パス_763" data-name="パス 763" d="M-2199,23.941l-13.234,1.508V21.064L-2199,19.557Z" fill="#1d2088"/>
      </g>
      <g id="グループ_468" data-name="グループ 468">
        <path id="パス_764" data-name="パス 764" d="M-2294.893,84.447h-2.583v1.882h2.494V87.4h-2.494V90.8h-1.136V83.378h3.719Z" fill="#1d2088"/>
        <path id="パス_765" data-name="パス 765" d="M-2289.039,88.466a2.435,2.435,0,0,1-2.5,2.483,2.436,2.436,0,0,1-2.505-2.483A2.419,2.419,0,0,1-2291.544,86,2.419,2.419,0,0,1-2289.039,88.466Zm-1.113.011a1.356,1.356,0,0,0-1.392-1.5,1.355,1.355,0,0,0-1.391,1.5,1.349,1.349,0,0,0,1.391,1.492A1.35,1.35,0,0,0-2290.152,88.477Z" fill="#1d2088"/>
        <path id="パス_766" data-name="パス 766" d="M-2287.905,86.117h1.091v.423a1.892,1.892,0,0,1,.457-.39,1.262,1.262,0,0,1,.668-.155,1.619,1.619,0,0,1,.857.222l-.446.991a.983.983,0,0,0-.556-.167.847.847,0,0,0-.679.256,1.509,1.509,0,0,0-.3,1.08V90.8h-1.091Z" fill="#1d2088"/>
        <path id="パス_767" data-name="パス 767" d="M-2280.236,90.069l-2-3.952h1.313l1.336,2.739,1.359-2.739h1.224l-3.729,7.236h-1.225Z" fill="#1d2088"/>
        <path id="パス_768" data-name="パス 768" d="M-2271.487,88.466a2.435,2.435,0,0,1-2.5,2.483,2.436,2.436,0,0,1-2.505-2.483A2.419,2.419,0,0,1-2273.992,86,2.419,2.419,0,0,1-2271.487,88.466Zm-1.114.011a1.355,1.355,0,0,0-1.391-1.5,1.356,1.356,0,0,0-1.392,1.5,1.349,1.349,0,0,0,1.392,1.492A1.349,1.349,0,0,0-2272.6,88.477Z" fill="#1d2088"/>
        <path id="パス_769" data-name="パス 769" d="M-2266.925,86.117h1.091v4.308a2.9,2.9,0,0,1-.768,2.439,2.378,2.378,0,0,1-1.558.5,2.074,2.074,0,0,1-1.537-.579,2.637,2.637,0,0,1-.69-1.459h1.058a1.55,1.55,0,0,0,.345.735,1.113,1.113,0,0,0,.846.323,1.168,1.168,0,0,0,.857-.312,1.544,1.544,0,0,0,.356-1.18v-.612a1.7,1.7,0,0,1-1.425.668,1.986,1.986,0,0,1-1.547-.635,2.648,2.648,0,0,1-.7-1.859,2.489,2.489,0,0,1,.69-1.815,2.129,2.129,0,0,1,1.592-.645,1.76,1.76,0,0,1,1.391.634Zm-2.081,1.169a1.627,1.627,0,0,0-.479,1.191,1.61,1.61,0,0,0,.467,1.18,1.274,1.274,0,0,0,.835.312,1.184,1.184,0,0,0,.913-.379,1.556,1.556,0,0,0,.412-1.1,1.568,1.568,0,0,0-.445-1.18,1.16,1.16,0,0,0-.88-.334A1.128,1.128,0,0,0-2269.006,87.286Z" fill="#1d2088"/>
        <path id="パス_770" data-name="パス 770" d="M-2261.026,86.117h1.091V90.8h-1.091v-.49a1.8,1.8,0,0,1-1.4.635,2.32,2.32,0,0,1-2.272-2.494,2.291,2.291,0,0,1,2.283-2.46,1.706,1.706,0,0,1,1.391.667Zm-2.56,2.36a1.368,1.368,0,0,0,1.3,1.492,1.338,1.338,0,0,0,1.325-1.481,1.344,1.344,0,0,0-1.325-1.514A1.365,1.365,0,0,0-2263.586,88.477Z" fill="#1d2088"/>
        <path id="パス_771" data-name="パス 771" d="M-2255.417,83.478a.685.685,0,0,1,.7.7.684.684,0,0,1-.7.7.685.685,0,0,1-.7-.7A.686.686,0,0,1-2255.417,83.478Zm.545,2.639V90.8h-1.091V86.117Z" fill="#1d2088"/>
        <path id="パス_772" data-name="パス 772" d="M-2253.5,86.117h1.091v.434a1.614,1.614,0,0,1,1.269-.556,1.57,1.57,0,0,1,1.381.634,2.1,2.1,0,0,1,.289,1.3V90.8h-1.091V88.2c0-1.191-.445-1.225-.857-1.225-.49,0-.991.067-.991,1.581V90.8h-1.091Z" fill="#1d2088"/>
        <path id="パス_773" data-name="パス 773" d="M-2246.046,87.353a.785.785,0,0,0-.668-.4.466.466,0,0,0-.334.122.357.357,0,0,0-.1.245.3.3,0,0,0,.156.267c.067.045.134.067.367.19l.557.278a2.266,2.266,0,0,1,.657.434,1.158,1.158,0,0,1,.345.869,1.554,1.554,0,0,1-.412,1.068,1.673,1.673,0,0,1-1.314.524,1.615,1.615,0,0,1-1.013-.3,1.823,1.823,0,0,1-.6-.857l.891-.423a1.224,1.224,0,0,0,.256.445.666.666,0,0,0,.478.178.659.659,0,0,0,.446-.155.556.556,0,0,0,.156-.368.507.507,0,0,0-.145-.356,1.441,1.441,0,0,0-.468-.29l-.4-.189a2.3,2.3,0,0,1-.646-.4,1.022,1.022,0,0,1-.334-.79,1.466,1.466,0,0,1,.389-1,1.51,1.51,0,0,1,1.147-.445,1.47,1.47,0,0,1,.869.244,1.629,1.629,0,0,1,.534.579Z" fill="#1d2088"/>
        <path id="パス_774" data-name="パス 774" d="M-2242.963,87.119V90.8h-1.091V87.119h-.457v-1h.457V84.4h1.091v1.714h.835v1Z" fill="#1d2088"/>
        <path id="パス_775" data-name="パス 775" d="M-2241.394,86.117h1.091v.423a1.869,1.869,0,0,1,.456-.39,1.264,1.264,0,0,1,.668-.155,1.617,1.617,0,0,1,.857.222l-.445.991a.986.986,0,0,0-.557-.167.85.85,0,0,0-.679.256,1.512,1.512,0,0,0-.3,1.08V90.8h-1.091Z" fill="#1d2088"/>
        <path id="パス_776" data-name="パス 776" d="M-2236.608,86.117V88.8a1.351,1.351,0,0,0,.2.846.885.885,0,0,0,.713.323.885.885,0,0,0,.712-.323,1.352,1.352,0,0,0,.2-.846V86.117h1.091v2.717a1.961,1.961,0,0,1-.5,1.536,2.139,2.139,0,0,1-1.526.579,2.06,2.06,0,0,1-1.48-.579,1.957,1.957,0,0,1-.5-1.536V86.117Z" fill="#1d2088"/>
        <path id="パス_777" data-name="パス 777" d="M-2228.683,87.553a1.84,1.84,0,0,0-1.325-.579,1.4,1.4,0,0,0-1.035.412,1.5,1.5,0,0,0-.4,1.08,1.548,1.548,0,0,0,.423,1.124,1.417,1.417,0,0,0,.991.379,1.827,1.827,0,0,0,1.347-.6v1.213a2.565,2.565,0,0,1-1.425.368,2.284,2.284,0,0,1-1.781-.69,2.439,2.439,0,0,1-.668-1.76,2.5,2.5,0,0,1,.712-1.814,2.543,2.543,0,0,1,1.882-.69,2.508,2.508,0,0,1,1.28.334Z" fill="#1d2088"/>
        <path id="パス_778" data-name="パス 778" d="M-2226.514,87.119V90.8h-1.091V87.119h-.456v-1h.456V84.4h1.091v1.714h.835v1Z" fill="#1d2088"/>
        <path id="パス_779" data-name="パス 779" d="M-2220.18,88.466a2.436,2.436,0,0,1-2.505,2.483,2.435,2.435,0,0,1-2.5-2.483,2.419,2.419,0,0,1,2.5-2.471A2.419,2.419,0,0,1-2220.18,88.466Zm-1.113.011a1.356,1.356,0,0,0-1.392-1.5,1.355,1.355,0,0,0-1.391,1.5,1.349,1.349,0,0,0,1.391,1.492A1.349,1.349,0,0,0-2221.293,88.477Z" fill="#1d2088"/>
        <path id="パス_780" data-name="パス 780" d="M-2219.046,86.117h1.091v.423a1.892,1.892,0,0,1,.457-.39,1.263,1.263,0,0,1,.668-.155,1.62,1.62,0,0,1,.857.222l-.445.991a.989.989,0,0,0-.557-.167.848.848,0,0,0-.679.256,1.509,1.509,0,0,0-.3,1.08V90.8h-1.091Z" fill="#1d2088"/>
        <path id="パス_781" data-name="パス 781" d="M-2213.3,87.353a.787.787,0,0,0-.668-.4.464.464,0,0,0-.334.122.353.353,0,0,0-.1.245.3.3,0,0,0,.156.267c.067.045.134.067.368.19l.556.278a2.264,2.264,0,0,1,.657.434,1.158,1.158,0,0,1,.345.869,1.554,1.554,0,0,1-.412,1.068,1.671,1.671,0,0,1-1.313.524,1.613,1.613,0,0,1-1.013-.3,1.824,1.824,0,0,1-.6-.857l.891-.423a1.239,1.239,0,0,0,.256.445.669.669,0,0,0,.479.178.656.656,0,0,0,.445-.155.555.555,0,0,0,.156-.368.506.506,0,0,0-.145-.356,1.427,1.427,0,0,0-.467-.29l-.4-.189a2.305,2.305,0,0,1-.646-.4,1.021,1.021,0,0,1-.334-.79,1.463,1.463,0,0,1,.39-1,1.509,1.509,0,0,1,1.147-.445,1.466,1.466,0,0,1,.868.244,1.62,1.62,0,0,1,.534.579Z" fill="#1d2088"/>
        <path id="パス_782" data-name="パス 782" d="M-2298.211,95.656l1.213,2.683,1.314-3.084,1.314,3.084,1.213-2.683h1.225l-2.438,5.021-1.314-3-1.314,3-2.438-5.021Z" fill="#1d2088"/>
        <path id="パス_783" data-name="パス 783" d="M-2291.177,92.227h1.091v3.83a1.683,1.683,0,0,1,1.258-.523,1.593,1.593,0,0,1,1.38.634,2.3,2.3,0,0,1,.3,1.3v2.872h-1.091V97.571a1.129,1.129,0,0,0-.212-.813.824.824,0,0,0-.612-.245.969.969,0,0,0-.8.39,2.109,2.109,0,0,0-.222,1.18v2.26h-1.091Z" fill="#1d2088"/>
        <path id="パス_784" data-name="パス 784" d="M-2281,98a2.436,2.436,0,0,1-2.505,2.483,2.435,2.435,0,0,1-2.5-2.483,2.419,2.419,0,0,1,2.5-2.471A2.419,2.419,0,0,1-2281,98Zm-1.114.011a1.356,1.356,0,0,0-1.391-1.5,1.356,1.356,0,0,0-1.392,1.5,1.35,1.35,0,0,0,1.392,1.492A1.349,1.349,0,0,0-2282.117,98.016Z" fill="#1d2088"/>
        <path id="パス_785" data-name="パス 785" d="M-2273.847,95.656h1.091v4.687h-1.091v-.49a1.8,1.8,0,0,1-1.4.635,2.319,2.319,0,0,1-2.271-2.494,2.291,2.291,0,0,1,2.282-2.46,1.712,1.712,0,0,1,1.392.667Zm-2.561,2.36a1.368,1.368,0,0,0,1.3,1.492,1.338,1.338,0,0,0,1.325-1.481,1.344,1.344,0,0,0-1.325-1.514A1.365,1.365,0,0,0-2276.408,98.016Z" fill="#1d2088"/>
        <path id="パス_786" data-name="パス 786" d="M-2271.377,95.656h1.091v.423a1.864,1.864,0,0,1,.456-.39,1.265,1.265,0,0,1,.668-.155,1.617,1.617,0,0,1,.857.222l-.445.991a.987.987,0,0,0-.557-.167.851.851,0,0,0-.679.256,1.513,1.513,0,0,0-.3,1.08v2.427h-1.091Z" fill="#1d2088"/>
        <path id="パス_787" data-name="パス 787" d="M-2263.485,99.274a2.452,2.452,0,0,1-.791.857,2.567,2.567,0,0,1-1.38.357,2.076,2.076,0,0,1-1.581-.6,2.515,2.515,0,0,1-.69-1.792,2.748,2.748,0,0,1,.746-1.926,2.13,2.13,0,0,1,1.569-.634,2.016,2.016,0,0,1,1.5.612,2.816,2.816,0,0,1,.657,1.982v.133h-3.362a1.544,1.544,0,0,0,.4.946,1.116,1.116,0,0,0,.835.3,1.151,1.151,0,0,0,.746-.234,1.688,1.688,0,0,0,.434-.512Zm-1.08-1.9a1.136,1.136,0,0,0-.334-.635,1.047,1.047,0,0,0-.735-.267,1.055,1.055,0,0,0-.768.3,1.234,1.234,0,0,0-.334.6Z" fill="#1d2088"/>
        <path id="パス_788" data-name="パス 788" d="M-2257.676,96.892a.787.787,0,0,0-.668-.4.466.466,0,0,0-.334.122.353.353,0,0,0-.1.245.3.3,0,0,0,.155.268c.067.044.134.066.368.189l.556.278a2.264,2.264,0,0,1,.657.434,1.158,1.158,0,0,1,.345.869,1.554,1.554,0,0,1-.411,1.068,1.675,1.675,0,0,1-1.314.524,1.614,1.614,0,0,1-1.013-.3,1.822,1.822,0,0,1-.6-.857l.89-.423a1.235,1.235,0,0,0,.256.445.668.668,0,0,0,.479.178.655.655,0,0,0,.445-.155.555.555,0,0,0,.156-.368.5.5,0,0,0-.145-.356,1.422,1.422,0,0,0-.467-.29l-.4-.189a2.282,2.282,0,0,1-.646-.4,1.021,1.021,0,0,1-.334-.79,1.463,1.463,0,0,1,.39-1,1.511,1.511,0,0,1,1.147-.445,1.466,1.466,0,0,1,.868.244,1.62,1.62,0,0,1,.534.579Z" fill="#1d2088"/>
        <path id="パス_789" data-name="パス 789" d="M-2254.594,96.658v3.685h-1.091V96.658h-.456v-1h.456V93.942h1.091v1.714h.835v1Z" fill="#1d2088"/>
        <path id="パス_790" data-name="パス 790" d="M-2249.6,95.656h1.091v4.687h-1.091v-.49a1.8,1.8,0,0,1-1.4.635,2.319,2.319,0,0,1-2.271-2.494,2.291,2.291,0,0,1,2.283-2.46,1.709,1.709,0,0,1,1.391.667Zm-2.56,2.36a1.368,1.368,0,0,0,1.3,1.492,1.338,1.338,0,0,0,1.325-1.481,1.344,1.344,0,0,0-1.325-1.514A1.365,1.365,0,0,0-2252.156,98.016Z" fill="#1d2088"/>
        <path id="パス_791" data-name="パス 791" d="M-2247.126,95.656h1.091v.423a1.886,1.886,0,0,1,.456-.39,1.268,1.268,0,0,1,.668-.155,1.62,1.62,0,0,1,.858.222l-.446.991a.985.985,0,0,0-.556-.167.847.847,0,0,0-.679.256,1.509,1.509,0,0,0-.3,1.08v2.427h-1.091Z" fill="#1d2088"/>
        <path id="パス_792" data-name="パス 792" d="M-2242.307,96.658v3.685h-1.091V96.658h-.456v-1h.456V93.942h1.091v1.714h.835v1Z" fill="#1d2088"/>
        <path id="パス_793" data-name="パス 793" d="M-2240.192,93.018a.684.684,0,0,1,.7.7.684.684,0,0,1-.7.7.685.685,0,0,1-.7-.7A.685.685,0,0,1-2240.192,93.018Zm.545,2.638v4.687h-1.091V95.656Z" fill="#1d2088"/>
        <path id="パス_794" data-name="パス 794" d="M-2238.278,95.656h1.091v.434a1.613,1.613,0,0,1,1.269-.556,1.57,1.57,0,0,1,1.381.634,2.1,2.1,0,0,1,.289,1.3v2.872h-1.091V97.738c0-1.191-.445-1.225-.857-1.225-.49,0-.991.067-.991,1.581v2.249h-1.091Z" fill="#1d2088"/>
        <path id="パス_795" data-name="パス 795" d="M-2229.44,95.656h1.091v4.308a2.907,2.907,0,0,1-.768,2.439,2.383,2.383,0,0,1-1.559.5,2.07,2.07,0,0,1-1.536-.579,2.64,2.64,0,0,1-.691-1.459h1.058a1.556,1.556,0,0,0,.345.735,1.116,1.116,0,0,0,.846.323,1.172,1.172,0,0,0,.858-.312,1.544,1.544,0,0,0,.356-1.18V99.82a1.7,1.7,0,0,1-1.425.668,1.989,1.989,0,0,1-1.548-.635,2.65,2.65,0,0,1-.7-1.859,2.493,2.493,0,0,1,.69-1.815,2.134,2.134,0,0,1,1.592-.645,1.762,1.762,0,0,1,1.392.634Zm-2.082,1.169a1.63,1.63,0,0,0-.479,1.191,1.606,1.606,0,0,0,.468,1.18,1.271,1.271,0,0,0,.835.312,1.19,1.19,0,0,0,.913-.378,1.559,1.559,0,0,0,.412-1.1,1.565,1.565,0,0,0-.446-1.18,1.159,1.159,0,0,0-.879-.334A1.128,1.128,0,0,0-2231.522,96.825Z" fill="#1d2088"/>
        <path id="パス_796" data-name="パス 796" d="M-2220.948,95.656h1.091v4.687h-1.091v-.49a1.8,1.8,0,0,1-1.4.635,2.319,2.319,0,0,1-2.271-2.494,2.291,2.291,0,0,1,2.282-2.46,1.712,1.712,0,0,1,1.392.667Zm-2.561,2.36a1.368,1.368,0,0,0,1.3,1.492,1.338,1.338,0,0,0,1.325-1.481,1.344,1.344,0,0,0-1.325-1.514A1.365,1.365,0,0,0-2223.509,98.016Z" fill="#1d2088"/>
        <path id="パス_797" data-name="パス 797" d="M-2213.837,96.892a.785.785,0,0,0-.668-.4.467.467,0,0,0-.334.122.357.357,0,0,0-.1.245.3.3,0,0,0,.156.268c.067.044.133.066.367.189l.557.278a2.264,2.264,0,0,1,.657.434,1.158,1.158,0,0,1,.345.869,1.554,1.554,0,0,1-.412,1.068,1.673,1.673,0,0,1-1.314.524,1.615,1.615,0,0,1-1.013-.3,1.823,1.823,0,0,1-.6-.857l.891-.423a1.211,1.211,0,0,0,.256.445.664.664,0,0,0,.478.178.659.659,0,0,0,.446-.155.556.556,0,0,0,.156-.368.506.506,0,0,0-.145-.356,1.441,1.441,0,0,0-.468-.29l-.4-.189a2.288,2.288,0,0,1-.645-.4,1.021,1.021,0,0,1-.334-.79,1.466,1.466,0,0,1,.389-1,1.51,1.51,0,0,1,1.147-.445,1.47,1.47,0,0,1,.869.244,1.629,1.629,0,0,1,.534.579Z" fill="#1d2088"/>
        <path id="パス_798" data-name="パス 798" d="M-2208.45,95.656h1.091v4.687h-1.091v-.49a1.8,1.8,0,0,1-1.4.635,2.32,2.32,0,0,1-2.272-2.494,2.291,2.291,0,0,1,2.283-2.46,1.709,1.709,0,0,1,1.391.667Zm-2.56,2.36a1.368,1.368,0,0,0,1.3,1.492,1.338,1.338,0,0,0,1.325-1.481,1.344,1.344,0,0,0-1.325-1.514A1.365,1.365,0,0,0-2211.01,98.016Z" fill="#1d2088"/>
        <path id="パス_799" data-name="パス 799" d="M-2204.889,92.227v8.116h-1.091V92.227Z" fill="#1d2088"/>
        <path id="パス_800" data-name="パス 800" d="M-2198.744,98a2.436,2.436,0,0,1-2.505,2.483,2.435,2.435,0,0,1-2.5-2.483,2.419,2.419,0,0,1,2.5-2.471A2.419,2.419,0,0,1-2198.744,98Zm-1.114.011a1.356,1.356,0,0,0-1.391-1.5,1.357,1.357,0,0,0-1.392,1.5,1.35,1.35,0,0,0,1.392,1.492A1.349,1.349,0,0,0-2199.858,98.016Z" fill="#1d2088"/>
        <path id="パス_801" data-name="パス 801" d="M-2197.621,95.656h1.091v.434a1.613,1.613,0,0,1,1.269-.556,1.567,1.567,0,0,1,1.38.634,2.094,2.094,0,0,1,.29,1.3v2.872h-1.091V97.738c0-1.191-.446-1.225-.858-1.225-.489,0-.99.067-.99,1.581v2.249h-1.091Z" fill="#1d2088"/>
        <path id="パス_802" data-name="パス 802" d="M-2191.567,99.141a.669.669,0,0,1,.668.668.67.67,0,0,1-.668.668.671.671,0,0,1-.668-.668A.67.67,0,0,1-2191.567,99.141Z" fill="#1d2088"/>
      </g>
    </g>
  </g>
</svg>
