<?xml version="1.0" encoding="UTF-8"?><svg id="_レイヤー_2" xmlns="http://www.w3.org/2000/svg" viewBox="0 0 336.94 68.2"><defs><style>.cls-1{fill:#1d2088;}</style></defs><g id="_レイヤー_1-2"><g><g><path class="cls-1" d="M6.33,53.01H1.93v3.21H6.18v1.82H1.93v5.8H0v-12.65H6.33v1.82Z"/><path class="cls-1" d="M16.31,59.85c0,2.45-1.86,4.23-4.27,4.23s-4.27-1.78-4.27-4.23,1.86-4.21,4.27-4.21,4.27,1.74,4.27,4.21Zm-1.9,.02c0-1.82-1.19-2.56-2.37-2.56s-2.37,.74-2.37,2.56c0,1.54,.91,2.54,2.37,2.54s2.37-1.01,2.37-2.54Z"/><path class="cls-1" d="M18.24,55.85h1.86v.72c.21-.25,.51-.51,.78-.66,.36-.21,.72-.27,1.14-.27,.46,0,.95,.08,1.46,.38l-.76,1.69c-.42-.27-.76-.28-.95-.28-.4,0-.8,.06-1.16,.44-.51,.55-.51,1.31-.51,1.84v4.13h-1.86v-7.98Z"/><path class="cls-1" d="M31.31,62.59l-3.41-6.73h2.24l2.28,4.67,2.31-4.67h2.09l-6.35,12.33h-2.09l2.94-5.6Z"/><path class="cls-1" d="M46.21,59.85c0,2.45-1.86,4.23-4.27,4.23s-4.27-1.78-4.27-4.23,1.86-4.21,4.27-4.21,4.27,1.74,4.27,4.21Zm-1.9,.02c0-1.82-1.19-2.56-2.37-2.56s-2.37,.74-2.37,2.56c0,1.54,.91,2.54,2.37,2.54s2.37-1.01,2.37-2.54Z"/><path class="cls-1" d="M53.98,55.85h1.86v7.34c0,1.88-.21,3.22-1.31,4.15-.51,.42-1.35,.85-2.66,.85-.93,0-1.86-.23-2.62-.99-.59-.59-1.04-1.52-1.18-2.48h1.8c.08,.44,.3,.95,.59,1.25,.23,.25,.68,.55,1.44,.55s1.23-.3,1.46-.53c.61-.59,.61-1.42,.61-2.01v-1.04c-.85,1.08-1.9,1.14-2.43,1.14-1.02,0-1.88-.28-2.64-1.08-.72-.76-1.19-1.84-1.19-3.17,0-1.46,.55-2.47,1.18-3.09,.8-.82,1.74-1.1,2.71-1.1,.8,0,1.69,.27,2.37,1.08v-.87Zm-3.55,1.99c-.47,.44-.82,1.18-.82,2.03,0,.8,.3,1.57,.8,2.01,.34,.3,.85,.53,1.42,.53s1.1-.17,1.56-.65c.55-.59,.7-1.27,.7-1.88,0-.89-.28-1.56-.76-2.01-.46-.46-.97-.57-1.5-.57s-.99,.13-1.4,.53Z"/><path class="cls-1" d="M64.03,55.85h1.86v7.98h-1.86v-.83c-.82,.95-1.82,1.08-2.39,1.08-2.47,0-3.87-2.05-3.87-4.25,0-2.6,1.78-4.19,3.89-4.19,.59,0,1.61,.15,2.37,1.14v-.93Zm-4.36,4.02c0,1.38,.87,2.54,2.22,2.54,1.18,0,2.26-.85,2.26-2.52s-1.08-2.58-2.26-2.58c-1.35,0-2.22,1.14-2.22,2.56Z"/><path class="cls-1" d="M73.59,51.36c.68,0,1.19,.51,1.19,1.19s-.51,1.19-1.19,1.19-1.19-.51-1.19-1.19,.51-1.19,1.19-1.19Zm.93,4.5v7.98h-1.86v-7.98h1.86Z"/><path class="cls-1" d="M76.85,55.85h1.86v.74c.8-.89,1.71-.95,2.16-.95,1.48,0,2.11,.74,2.35,1.08,.3,.44,.49,.99,.49,2.22v4.89h-1.86v-4.44c0-2.03-.76-2.09-1.46-2.09-.83,0-1.69,.11-1.69,2.69v3.83h-1.86v-7.98Z"/><path class="cls-1" d="M89.55,57.96c-.19-.3-.55-.68-1.14-.68-.27,0-.46,.09-.57,.21-.09,.1-.17,.25-.17,.42,0,.21,.09,.34,.27,.46,.11,.08,.23,.11,.63,.32l.95,.47c.42,.21,.82,.42,1.12,.74,.44,.44,.59,.93,.59,1.48,0,.72-.27,1.35-.7,1.82-.63,.68-1.4,.89-2.24,.89-.51,0-1.16-.08-1.73-.51-.46-.34-.83-.89-1.02-1.46l1.52-.72c.09,.27,.27,.61,.44,.76,.11,.11,.38,.3,.82,.3,.28,0,.59-.09,.76-.27,.15-.15,.27-.4,.27-.63s-.08-.42-.25-.61c-.23-.23-.49-.36-.8-.49l-.68-.32c-.36-.17-.8-.38-1.1-.68-.42-.4-.57-.83-.57-1.35,0-.65,.25-1.27,.66-1.71,.36-.38,.97-.76,1.95-.76,.57,0,1.02,.11,1.48,.42,.27,.17,.63,.47,.91,.99l-1.38,.91Z"/><path class="cls-1" d="M94.81,57.56v6.28h-1.86v-6.28h-.78v-1.71h.78v-2.92h1.86v2.92h1.42v1.71h-1.42Z"/><path class="cls-1" d="M97.48,55.85h1.86v.72c.21-.25,.51-.51,.78-.66,.36-.21,.72-.27,1.14-.27,.46,0,.95,.08,1.46,.38l-.76,1.69c-.42-.27-.76-.28-.95-.28-.4,0-.8,.06-1.16,.44-.51,.55-.51,1.31-.51,1.84v4.13h-1.86v-7.98Z"/><path class="cls-1" d="M105.63,55.85v4.57c0,.47,.02,1.02,.34,1.44,.25,.32,.68,.55,1.21,.55s.97-.23,1.21-.55c.32-.42,.34-.97,.34-1.44v-4.57h1.86v4.63c0,1.02-.11,1.88-.85,2.62-.72,.72-1.71,.99-2.6,.99-.82,0-1.8-.25-2.52-.99-.74-.74-.85-1.59-.85-2.62v-4.63h1.86Z"/><path class="cls-1" d="M119.13,58.3c-.85-.83-1.69-.99-2.26-.99-.87,0-1.42,.36-1.76,.7s-.68,.95-.68,1.84,.36,1.56,.72,1.92c.42,.4,1.01,.65,1.69,.65,.76,0,1.65-.3,2.29-1.02v2.07c-.46,.28-1.19,.63-2.43,.63-1.33,0-2.28-.38-3.03-1.18-.57-.59-1.14-1.54-1.14-3s.63-2.5,1.21-3.09c.63-.63,1.63-1.18,3.21-1.18,.61,0,1.33,.09,2.18,.57v2.09Z"/><path class="cls-1" d="M122.83,57.56v6.28h-1.86v-6.28h-.78v-1.71h.78v-2.92h1.86v2.92h1.42v1.71h-1.42Z"/><path class="cls-1" d="M133.62,59.85c0,2.45-1.86,4.23-4.27,4.23s-4.27-1.78-4.27-4.23,1.86-4.21,4.27-4.21,4.27,1.74,4.27,4.21Zm-1.9,.02c0-1.82-1.19-2.56-2.37-2.56s-2.37,.74-2.37,2.56c0,1.54,.91,2.54,2.37,2.54s2.37-1.01,2.37-2.54Z"/><path class="cls-1" d="M135.55,55.85h1.86v.72c.21-.25,.51-.51,.78-.66,.36-.21,.72-.27,1.14-.27,.46,0,.95,.08,1.46,.38l-.76,1.69c-.42-.27-.76-.28-.95-.28-.4,0-.8,.06-1.16,.44-.51,.55-.51,1.31-.51,1.84v4.13h-1.86v-7.98Z"/><path class="cls-1" d="M145.34,57.96c-.19-.3-.55-.68-1.14-.68-.27,0-.46,.09-.57,.21-.09,.1-.17,.25-.17,.42,0,.21,.09,.34,.27,.46,.11,.08,.23,.11,.63,.32l.95,.47c.42,.21,.82,.42,1.12,.74,.44,.44,.59,.93,.59,1.48,0,.72-.27,1.35-.7,1.82-.63,.68-1.4,.89-2.24,.89-.51,0-1.16-.08-1.73-.51-.46-.34-.83-.89-1.02-1.46l1.52-.72c.09,.27,.27,.61,.44,.76,.11,.11,.38,.3,.82,.3,.28,0,.59-.09,.76-.27,.15-.15,.27-.4,.27-.63s-.08-.42-.25-.61c-.23-.23-.49-.36-.8-.49l-.68-.32c-.36-.17-.8-.38-1.1-.68-.42-.4-.57-.83-.57-1.35,0-.65,.25-1.27,.66-1.71,.36-.38,.97-.76,1.95-.76,.57,0,1.02,.11,1.48,.42,.27,.17,.63,.47,.91,.99l-1.38,.91Z"/><path class="cls-1" d="M154.11,55.85l2.07,4.57,2.24-5.25,2.24,5.25,2.07-4.57h2.09l-4.15,8.55-2.24-5.1-2.24,5.1-4.15-8.55h2.09Z"/><path class="cls-1" d="M166.1,50.01h1.86v6.52c.8-.82,1.67-.89,2.14-.89,1.46,0,2.12,.76,2.35,1.08,.49,.72,.51,1.65,.51,2.22v4.89h-1.86v-4.72c0-.47,0-.99-.36-1.38-.21-.23-.57-.42-1.04-.42-.63,0-1.12,.3-1.37,.66-.27,.38-.38,.99-.38,2.01v3.85h-1.86v-13.83Z"/><path class="cls-1" d="M183.43,59.85c0,2.45-1.86,4.23-4.27,4.23s-4.27-1.78-4.27-4.23,1.86-4.21,4.27-4.21,4.27,1.74,4.27,4.21Zm-1.9,.02c0-1.82-1.19-2.56-2.37-2.56s-2.37,.74-2.37,2.56c0,1.54,.91,2.54,2.37,2.54s2.37-1.01,2.37-2.54Z"/><path class="cls-1" d="M195.62,55.85h1.86v7.98h-1.86v-.83c-.82,.95-1.82,1.08-2.39,1.08-2.47,0-3.87-2.05-3.87-4.25,0-2.6,1.78-4.19,3.89-4.19,.59,0,1.61,.15,2.37,1.14v-.93Zm-4.36,4.02c0,1.38,.87,2.54,2.22,2.54,1.18,0,2.26-.85,2.26-2.52s-1.08-2.58-2.26-2.58c-1.35,0-2.22,1.14-2.22,2.56Z"/><path class="cls-1" d="M199.83,55.85h1.86v.72c.21-.25,.51-.51,.78-.66,.36-.21,.72-.27,1.14-.27,.46,0,.95,.08,1.46,.38l-.76,1.69c-.42-.27-.76-.28-.95-.28-.4,0-.8,.06-1.16,.44-.51,.55-.51,1.31-.51,1.84v4.13h-1.86v-7.98Z"/><path class="cls-1" d="M213.27,62.02c-.34,.61-.83,1.14-1.35,1.46-.64,.42-1.5,.61-2.35,.61-1.06,0-1.93-.27-2.69-1.02-.76-.76-1.18-1.86-1.18-3.05s.44-2.43,1.27-3.28c.66-.66,1.54-1.08,2.67-1.08,1.27,0,2.09,.55,2.56,1.04,1.02,1.06,1.12,2.54,1.12,3.38v.23h-5.73c.04,.57,.28,1.21,.68,1.61,.44,.44,.97,.51,1.42,.51,.51,0,.89-.11,1.27-.4,.32-.25,.57-.57,.74-.87l1.56,.87Zm-1.84-3.24c-.08-.44-.28-.82-.57-1.08-.25-.23-.64-.46-1.25-.46-.64,0-1.06,.27-1.31,.51-.27,.25-.47,.63-.57,1.02h3.7Z"/><path class="cls-1" d="M223.17,57.96c-.19-.3-.55-.68-1.14-.68-.27,0-.46,.09-.57,.21-.09,.1-.17,.25-.17,.42,0,.21,.09,.34,.27,.46,.11,.08,.23,.11,.63,.32l.95,.47c.42,.21,.82,.42,1.12,.74,.44,.44,.59,.93,.59,1.48,0,.72-.27,1.35-.7,1.82-.63,.68-1.4,.89-2.24,.89-.51,0-1.16-.08-1.73-.51-.46-.34-.83-.89-1.02-1.46l1.52-.72c.09,.27,.27,.61,.44,.76,.11,.11,.38,.3,.82,.3,.28,0,.59-.09,.76-.27,.15-.15,.27-.4,.27-.63s-.08-.42-.25-.61c-.23-.23-.49-.36-.8-.49l-.68-.32c-.36-.17-.8-.38-1.1-.68-.42-.4-.57-.83-.57-1.35,0-.65,.25-1.27,.66-1.71,.36-.38,.97-.76,1.95-.76,.57,0,1.02,.11,1.48,.42,.27,.17,.63,.47,.91,.99l-1.38,.91Z"/><path class="cls-1" d="M228.42,57.56v6.28h-1.86v-6.28h-.78v-1.71h.78v-2.92h1.86v2.92h1.42v1.71h-1.42Z"/><path class="cls-1" d="M236.94,55.85h1.86v7.98h-1.86v-.83c-.82,.95-1.82,1.08-2.39,1.08-2.47,0-3.87-2.05-3.87-4.25,0-2.6,1.78-4.19,3.89-4.19,.59,0,1.61,.15,2.37,1.14v-.93Zm-4.36,4.02c0,1.38,.87,2.54,2.22,2.54,1.18,0,2.26-.85,2.26-2.52s-1.08-2.58-2.26-2.58c-1.35,0-2.22,1.14-2.22,2.56Z"/><path class="cls-1" d="M241.15,55.85h1.86v.72c.21-.25,.51-.51,.78-.66,.36-.21,.72-.27,1.14-.27,.46,0,.95,.08,1.46,.38l-.76,1.69c-.42-.27-.76-.28-.95-.28-.4,0-.8,.06-1.16,.44-.51,.55-.51,1.31-.51,1.84v4.13h-1.86v-7.98Z"/><path class="cls-1" d="M249.36,57.56v6.28h-1.86v-6.28h-.78v-1.71h.78v-2.92h1.86v2.92h1.42v1.71h-1.42Z"/><path class="cls-1" d="M252.96,51.36c.68,0,1.19,.51,1.19,1.19s-.51,1.19-1.19,1.19-1.19-.51-1.19-1.19,.51-1.19,1.19-1.19Zm.93,4.5v7.98h-1.86v-7.98h1.86Z"/><path class="cls-1" d="M256.22,55.85h1.86v.74c.8-.89,1.71-.95,2.16-.95,1.48,0,2.11,.74,2.35,1.08,.3,.44,.49,.99,.49,2.22v4.89h-1.86v-4.44c0-2.03-.76-2.09-1.46-2.09-.83,0-1.69,.11-1.69,2.69v3.83h-1.86v-7.98Z"/><path class="cls-1" d="M271.28,55.85h1.86v7.34c0,1.88-.21,3.22-1.31,4.15-.51,.42-1.35,.85-2.66,.85-.93,0-1.86-.23-2.62-.99-.59-.59-1.04-1.52-1.18-2.48h1.8c.08,.44,.3,.95,.59,1.25,.23,.25,.68,.55,1.44,.55s1.23-.3,1.46-.53c.61-.59,.61-1.42,.61-2.01v-1.04c-.85,1.08-1.9,1.14-2.43,1.14-1.02,0-1.88-.28-2.64-1.08-.72-.76-1.19-1.84-1.19-3.17,0-1.46,.55-2.47,1.18-3.09,.8-.82,1.74-1.1,2.71-1.1,.8,0,1.69,.27,2.37,1.08v-.87Zm-3.55,1.99c-.47,.44-.82,1.18-.82,2.03,0,.8,.3,1.57,.8,2.01,.34,.3,.85,.53,1.42,.53s1.1-.17,1.56-.65c.55-.59,.7-1.27,.7-1.88,0-.89-.28-1.56-.76-2.01-.46-.46-.97-.57-1.5-.57s-.99,.13-1.4,.53Z"/><path class="cls-1" d="M285.74,55.85h1.86v7.98h-1.86v-.83c-.82,.95-1.82,1.08-2.39,1.08-2.47,0-3.87-2.05-3.87-4.25,0-2.6,1.78-4.19,3.89-4.19,.59,0,1.61,.15,2.37,1.14v-.93Zm-4.36,4.02c0,1.38,.87,2.54,2.22,2.54,1.18,0,2.26-.85,2.26-2.52s-1.08-2.58-2.26-2.58c-1.35,0-2.22,1.14-2.22,2.56Z"/><path class="cls-1" d="M297.86,57.96c-.19-.3-.55-.68-1.14-.68-.27,0-.46,.09-.57,.21-.09,.1-.17,.25-.17,.42,0,.21,.09,.34,.27,.46,.11,.08,.23,.11,.63,.32l.95,.47c.42,.21,.82,.42,1.12,.74,.44,.44,.59,.93,.59,1.48,0,.72-.27,1.35-.7,1.82-.63,.68-1.4,.89-2.24,.89-.51,0-1.16-.08-1.73-.51-.46-.34-.83-.89-1.02-1.46l1.52-.72c.09,.27,.27,.61,.44,.76,.11,.11,.38,.3,.82,.3,.28,0,.59-.09,.76-.27,.15-.15,.27-.4,.27-.63s-.08-.42-.25-.61c-.23-.23-.49-.36-.8-.49l-.68-.32c-.36-.17-.8-.38-1.1-.68-.42-.4-.57-.83-.57-1.35,0-.65,.25-1.27,.66-1.71,.36-.38,.97-.76,1.95-.76,.57,0,1.02,.11,1.48,.42,.27,.17,.63,.47,.91,.99l-1.38,.91Z"/><path class="cls-1" d="M307.04,55.85h1.86v7.98h-1.86v-.83c-.82,.95-1.82,1.08-2.39,1.08-2.47,0-3.87-2.05-3.87-4.25,0-2.6,1.78-4.19,3.89-4.19,.59,0,1.61,.15,2.37,1.14v-.93Zm-4.36,4.02c0,1.38,.87,2.54,2.22,2.54,1.18,0,2.26-.85,2.26-2.52s-1.08-2.58-2.26-2.58c-1.35,0-2.22,1.14-2.22,2.56Z"/><path class="cls-1" d="M313.1,50.01v13.83h-1.86v-13.83h1.86Z"/><path class="cls-1" d="M323.57,59.85c0,2.45-1.86,4.23-4.27,4.23s-4.27-1.78-4.27-4.23,1.86-4.21,4.27-4.21,4.27,1.74,4.27,4.21Zm-1.9,.02c0-1.82-1.19-2.56-2.37-2.56s-2.37,.74-2.37,2.56c0,1.54,.91,2.54,2.37,2.54s2.37-1.01,2.37-2.54Z"/><path class="cls-1" d="M325.48,55.85h1.86v.74c.8-.89,1.71-.95,2.16-.95,1.48,0,2.11,.74,2.35,1.08,.3,.44,.49,.99,.49,2.22v4.89h-1.86v-4.44c0-2.03-.76-2.09-1.46-2.09-.83,0-1.69,.11-1.69,2.69v3.83h-1.86v-7.98Z"/><path class="cls-1" d="M335.8,61.79c.63,0,1.14,.51,1.14,1.14s-.51,1.14-1.14,1.14-1.14-.51-1.14-1.14,.51-1.14,1.14-1.14Z"/></g><g><path class="cls-1" d="M33.9,9.06h6.55v31.69h-6.55V9.06Z"/><path class="cls-1" d="M46.62,24.9c0-8.81,5.93-16.45,17-16.45,4.28,0,7.28,.92,9.73,2.57l-2.94,4.83c-1.71-1.16-3.73-1.96-6.85-1.96-6.55,0-10.03,4.47-10.03,10.77,0,6.48,3.36,11.26,10.09,11.26,3.61,0,5.87-1.22,7.59-2.45l2.63,4.65c-1.83,1.47-5.44,3.18-10.4,3.18-11.13,0-16.82-7.65-16.82-16.39Z"/><path class="cls-1" d="M98.92,9.06h7.28s-12.17,14.8-12.17,14.8l12.6,16.88h-7.28s-12.42-16.39-12.42-16.39v16.39h-6.54V9.06h6.54v14.68s11.99-14.68,11.99-14.68Z"/><path class="cls-1" d="M143.47,25.33v15.41h-6.91v-15.41S122.98,0,122.98,0h7.71s9.6,18.9,9.6,18.9h.06S149.95,0,149.95,0h6.73s-13.21,25.32-13.21,25.32Z"/><path class="cls-1" d="M152.77,24.96c0-8.62,6.06-16.52,17-16.52,10.89,0,17,7.65,17,16.33,0,8.69-5.93,16.52-16.94,16.52-10.89,0-17.07-7.65-17.07-16.33Zm27.1,0c0-6.06-3.18-11.26-10.03-11.26s-10.15,5.14-10.15,11.07c0,6.06,3.3,11.26,10.09,11.26s10.09-5.14,10.09-11.07Z"/><path class="cls-1" d="M230.4,40.74h-6.48s12.72-31.69,12.72-31.69h6.36s12.97,31.69,12.97,31.69h-6.91s-2.39-6.24-2.39-6.24h-13.95s-2.32,6.24-2.32,6.24Zm11.19-19.7c-1.04-2.81-1.9-5.69-1.9-5.69h-.12s-.92,3-1.9,5.69l-3.12,8.44h10.22s-3.18-8.44-3.18-8.44Z"/><path class="cls-1" d="M190.64,24.9c0-8.87,6.48-16.45,17.86-16.45,5.51,0,8.75,1.47,10.77,2.87l-2.87,4.83c-1.77-1.16-4.16-2.26-8.01-2.26-7.34,0-10.83,4.47-10.83,10.83,0,6.36,3.3,11.32,10.52,11.32,4.17,0,6.18-2.18,6.18-2.18v-6.24s-6.24,0-6.24,0v-5.44h12.54v14.25s-3.91,4.9-12.54,4.87c-11.32-.03-17.37-7.71-17.37-16.39Z"/><path class="cls-1" d="M.88,0V40.75s6.91,0,6.91,0V0s-6.91,0-6.91,0Z"/><path class="cls-1" d="M12.8,0H7.78s0,5.44,0,5.44h4.47c6.18,0,8.63,3.16,8.63,7.56,0,4.89-2.63,9.17-8.81,9.17H7.78s0,5.44,0,5.44h4.22c9.85,0,15.84-6.29,15.84-14.8C27.85,4.51,21.36,0,12.8,0Z"/><rect class="cls-1" x=".88" y="40.4" width="334.29" height="2.54"/><polygon class="cls-1" points="124.83 25.78 108.67 27.62 108.67 22.27 124.83 20.43 124.83 25.78"/></g></g></g></svg>