<svg xmlns="http://www.w3.org/2000/svg" viewBox="0 0 625.03 162.59"><defs><style>.cls-1{fill:#1D2088;}</style></defs><g ><g ><rect class="cls-1" y="25.4" width="136.96" height="18.89"/><rect class="cls-1" x="58.44" y="84.08" width="137.18" height="19.84" transform="translate(221.03 -33.04) rotate(90)"/><rect class="cls-1" x="154.53" y="36.25" width="148.63" height="18.89"/><rect class="cls-1" x="230.07" y="89.5" width="126.34" height="19.84" transform="translate(392.66 -193.82) rotate(90)"/><rect class="cls-1" x="121.55" y="73.51" width="158.32" height="19.84" transform="translate(284.14 -117.28) rotate(90)"/><rect class="cls-1" x="256.73" y="7.01" width="25.31" height="19.84" transform="translate(286.31 -252.46) rotate(90)"/><rect class="cls-1" x="284" y="7.01" width="25.31" height="19.84" transform="translate(313.58 -279.73) rotate(90)"/><rect class="cls-1" y="143.69" width="136.96" height="18.89"/><rect class="cls-1" x="5.84" y="84.55" width="131.12" height="18.89"/><rect class="cls-1" x="330.78" y="15.92" width="134.04" height="15.75"/><rect class="cls-1" x="359.25" y="135.43" width="40.53" height="15.75"/><rect class="cls-1" x="496.42" y="6.27" width="51.35" height="15.75"/><rect class="cls-1" x="496.42" y="31.81" width="51.35" height="15.75"/><rect class="cls-1" x="496.42" y="57.34" width="51.35" height="15.75"/><rect class="cls-1" x="570.11" y="6.27" width="51.35" height="15.75"/><rect class="cls-1" x="570.11" y="31.81" width="51.35" height="15.75"/><rect class="cls-1" x="570.11" y="57.34" width="51.35" height="15.75"/><rect class="cls-1" x="330.78" y="107.96" width="134.04" height="15.75"/><rect class="cls-1" x="339.04" y="39.68" width="117.5" height="15.75"/><rect class="cls-1" x="339.04" y="60.09" width="117.5" height="15.75"/><rect class="cls-1" x="339.04" y="80.49" width="117.5" height="15.75"/><rect class="cls-1" x="426" y="76.16" width="156.31" height="16.53" transform="translate(588.59 -419.73) rotate(90)"/><rect class="cls-1" x="538.6" y="76.16" width="156.31" height="16.53" transform="translate(701.19 -532.33) rotate(90)"/><rect class="cls-1" x="509.95" y="31.41" width="66.81" height="16.53" transform="translate(583.04 -503.68) rotate(90)"/><rect class="cls-1" x="542.22" y="31.41" width="66.81" height="16.53" transform="translate(615.31 -535.95) rotate(90)"/><rect class="cls-1" x="350.99" y="38.54" width="93.62" height="16.53" transform="translate(444.61 -350.99) rotate(90)"/><rect class="cls-1" x="392.68" y="118.91" width="70.82" height="16.53" transform="translate(555.27 -300.91) rotate(90)"/><rect class="cls-1" x="420.25" y="59.45" width="56.06" height="16.53" transform="translate(515.99 -380.57) rotate(90)"/><rect class="cls-1" x="319.28" y="59.45" width="56.06" height="16.53" transform="translate(415.02 -279.6) rotate(90)"/></g></g></svg>