<svg xmlns="http://www.w3.org/2000/svg" xmlns:xlink="http://www.w3.org/1999/xlink" viewBox="0 0 695.42 373.85"><defs><style>.cls-1,.cls-14,.cls-16{fill:none;}.cls-2{clip-path:url(#clip-path);}.cls-3{fill:#fff;}.cls-4{fill:#02b4ff;}.cls-5{fill:#f76430;}.cls-6{fill:#edbfb7;}.cls-7{fill:#754c24;}.cls-8{fill:#a57c52;}.cls-9{clip-path:url(#clip-path-2);}.cls-10{fill:#46e1a3;}.cls-11{fill:#f9d28c;}.cls-12{fill:#ffaf00;}.cls-13{fill:#603813;}.cls-14{stroke:#fff;stroke-width:1.56px;}.cls-14,.cls-16{stroke-miterlimit:10;}.cls-15{fill:#8b6239;}.cls-16{stroke:#f76430;stroke-width:2.9px;}</style><clipPath id="clip-path" transform="translate(20.34 36.27)"><path class="cls-1" d="M318,155.58c-15.87,41.12-33.57,82.12-67.43,109-24.43,19.38-82.92,32.91-131.58,24.29C41,275,1.45,228.5,1.45,152.77,1.45,46.08,93.4,9.58,150,8.83S278.57,47.71,310.2,134.9Q314,145.39,318,155.58Z"/></clipPath><clipPath id="clip-path-2" transform="translate(20.34 36.27)"><path class="cls-1" d="M620.51,135.51c0,103.52-39.06,155.83-136.66,157.17-92.3,1.22-135-59.48-165.82-137.1C336.89,106.75,353.22,57.75,391.15,32,502.33-43.37,620.51,32,620.51,135.51Z"/></clipPath></defs><g id="レイヤー_2" data-name="レイヤー 2"><g id="レイヤー_1-2" data-name="レイヤー 1"><g class="cls-2"><rect class="cls-3" width="365.15" height="365.15"/><polygon class="cls-4" points="120.94 294.4 111.7 294.85 106.53 342.6 118.24 342.6 120.94 294.4"/><polygon class="cls-5" points="173.41 209.95 140.76 245.08 123.42 270.31 121.61 271.88 98.41 254.27 117.44 226.14 130.67 203.81 156.75 203.87 167.78 201.84 173.41 209.95"/><polygon class="cls-5" points="189.55 222.48 177.42 237.73 146.81 265.03 120.94 294.4 123.19 324.58 120.26 345.53 190.98 341.7 187.15 283.59 200.44 278.64 215.08 268.73 189.55 222.48"/><polygon class="cls-6" points="174.09 208.37 137.6 250.94 124.09 268.73 123.87 285.85 144.59 259.05 188.95 219.41 174.09 208.37"/><path class="cls-7" d="M183.58,126.53a9.28,9.28,0,0,1,2.52-5.66,12.38,12.38,0,0,0,3.55-9.19c-1.48,1.81-3,3.48-4.46,5,.22-.15.46-.3.74-.5l-1.7,3.31c-.3-.67-.5-1.06-.43-1.41-1,1-1.9,1.8-2.68,2.5a10.56,10.56,0,0,1,.11,5.62,69.64,69.64,0,0,1-1.83,7.27c-1.31,3.94-2.79,7.83-4.25,11.73a15.29,15.29,0,0,1-1.21,2c-1.55-.22-1.81-1.46-2.33-2.55-.64.72-1.33,1.44-2.07,2.15.8,1.14,1.48,2.05,2.26,3.07a25,25,0,0,1-6.31,6.14c-1.37.92-2.81,1.72-4.2,2.59-2,1.26-3,1.24-4.86-.19-.39-.31-.76-.66-1.22-1.09l-3.13,1.11c1.5,1.09,2.72,2,4.07,2.85,1.85,1.13,3.72,1.52,5.7.11s4.12-2.64,6.1-4A30.11,30.11,0,0,0,179.64,141c.52-1.78,1.2-3.5,1.83-5.33.54.19.8.32,1.11.39s.67.2.89.07c.46-.24,1-.61,1.11-1a1.55,1.55,0,0,0-.7-1.3c-1.43-.72-1.54-1.72-1.11-3.12A24.55,24.55,0,0,0,183.58,126.53ZM234,184.65a24.79,24.79,0,0,1-1.93-4,4.57,4.57,0,0,1-.26-2.5c.8-3.92,1.74-7.82,2.61-11.71.08-.37.06-.79.11-1.18a1.69,1.69,0,0,0-1.51-2c-1.45-.3-2.91-.65-4.37-.91Q216.33,160.1,204,158c-3.18-.54-6.38-1-9.58-1.48-2.66-.37-4.18.81-4.88,3.48-1.37,5.4-2.85,10.78-4.11,16.22-1,4.11-1.72,8.29-2.5,12.45-.44,2.31-.68,4.64-1.18,6.92-.63,3-1.48,5.93-2.18,8.91-.24,1-.37,2-.61,3.39a12.14,12.14,0,0,1-.76-1.17c-2.3-4.9-4.63-9.8-6.88-14.74a44.11,44.11,0,0,1-2.13-5.75,32.19,32.19,0,0,0-4-9.25,4.25,4.25,0,0,0-3.16-2.15c-.54-.09-1.09-.22-1.63-.33-4.36-.76-8.34-2.24-11-6a2.22,2.22,0,0,0-.48-.54c-2.07-1.61-2.61-4-3.39-6.53L143,162.57a5.86,5.86,0,0,1,.5.92c.17.52.28,1,.41,1.52-6.4,5.94-18.52,6.62-23.7,1a17.23,17.23,0,0,0,.41-1.68,5.23,5.23,0,0,1,1.26-2.83l-2.76.37c-.46,1.24-.89,2.33-1.33,3.42-.3.8-.67,1.59-1,2.37-1.5,3.37-2.88,6.81-4.55,10.1-.94,1.85-1.94,3.77-3.81,5a11.28,11.28,0,0,0-2.11,1.87,29,29,0,0,0-4.07,4.53c-2.27,3.68-4.29,7.49-6.27,11.32a98.67,98.67,0,0,1-12.63,19.57,2.46,2.46,0,0,0-.15,3.26c2.39,3.42,4.81,6.84,8.75,8.73.61.28,1.18.7,1.87,1.11-.5,2.63-1,5.18-1.46,7.73-1.39,7-2.76,14-4.18,21.05q-2.06,10.15-4.2,20.31c-.74,3.52-1.52,7.05-2.46,10.53s-2.13,6.9-3.15,10.34c-.48,1.64-.24,2.48.63,2.64,1.35.26,1.52-.89,1.81-1.74,1.19-3.73,2.41-7.47,3.48-11.24a134.33,134.33,0,0,0,3-14.54c1-5.94,2.48-11.82,3.72-17.74,1.57-7.55,3.1-15.11,4.64-22.66.24-1.11.41-2.24.63-3.42,2.33.79,4.38,1.5,6.53,2.22-.11,7.23-.41,14.26-.89,21.36-2,.13-3.74.28-5.46.35-2,.06-3.07,1.11-3.77,2.94-2.13,5.5-2.59,11.34-3.42,17.08-.72,5-1.15,10.13-1.7,15.22-.34,3.05-.69,6.09-1,9.14a4.77,4.77,0,0,0,1,3.27c2,2.91,5,3.31,8.12,3.35.89,0,2.4.09,2.44-1.26s-1.39-1.22-2.35-1.38c-1.15-.21-2.35-.19-3.51-.45a3.83,3.83,0,0,1-3-3.66c.7-6.81,1.39-13.63,2.18-20.42.45-3.81,1-7.64,1.67-11.43.46-2.61,1.09-5.22,1.76-7.79.22-.91.72-1.85,1.83-1.94,1.68-.15,3.38-.19,5.21-.28-.11,2.55-.18,4.75-.31,6.94q-.58,9.29-1.2,18.59c-.28,4.4-.54,8.78-.82,13.17-.13,2,.3,4-.31,6.08-.13.39.48,1,.76,1.5a6.18,6.18,0,0,0,1.38-1,2.66,2.66,0,0,0,.26-1.35c.06-.92,0-1.85.13-2.77s.28-1.85.35-2.8c.28-5,.54-10,.82-15.05.61-10.36,1.27-20.72,1.83-31.1a3.39,3.39,0,0,1,1.16-2.42,14,14,0,0,0,2.39-2.83c2.37-4.16,4.42-8.49,7.62-12.12,2.92-3.31,5.55-6.86,8.49-10.13s6.31-6.59,9.53-9.79c5.25-5.2,10.58-10.32,15.83-15.52,4.59-4.53,9.12-9.1,13.69-13.65.7-.68,1.46-1.31,2.09-1.85.94,2.37,1.7,4.59,2.66,6.75,1.87,4.13,4.05,8.16,5.72,12.4a75.85,75.85,0,0,0,7,12.78c2.88,4.46,6,8.82,9,13.15a1.86,1.86,0,0,1-.09,2.55c-1.18,1.37-2.35,2.74-3.61,4-3.27,3.27-7.34,5.42-11.26,7.73a18.46,18.46,0,0,1-9.75,2.33c-.09-.74-.2-1.35-.22-2-.22-3.46-.33-6.92-.63-10.36-.54-6.36-1.33-12.69-.22-19.07a18.12,18.12,0,0,0-.13-4.7c0-.37-.67-.83-1.09-.94-.21-.06-.71.5-.91.87a4,4,0,0,0-.24,1.4c-.26,2.56-.57,5.15-.74,7.75a44.21,44.21,0,0,0-.07,5.87c.33,5.27.74,10.52,1.16,15.76.3,3.92.72,7.84,1,11.78.37,5.4.65,10.82,1,16.24.22,3.44.54,6.9.85,10.34.39,4.46.78,8.92,1.24,13.36a26.82,26.82,0,0,0,.63,3.49,4.77,4.77,0,0,0,.72,1.72,1.1,1.1,0,0,0,1,.45,1.65,1.65,0,0,0,.94-.89,5,5,0,0,0-.09-1.87c-.13-1-.44-2-.55-3-.56-6.49-1.13-13-1.67-19.49-.46-5.72-.87-11.45-1.29-17.17-.17-2.24-.3-4.49-.43-6.53l9.75-2c3.44,4.39,6.88,8.86,10.38,13.27,1.29,1.62,2.73,3.07,4,4.62,1.18,1.35,4,1.31,5.1.65A17,17,0,0,0,198,263.6c3.29-3.26,6.59-6.49,9.69-10,3.61-4,7-8.27,10.49-12.43a23.34,23.34,0,0,0,2.7-3.52c1.33-2.4,2.54-4.88,3.7-7.36,2.28-4.94,4.31-10,4.44-15.54a15.32,15.32,0,0,1,1-4.86c1.48-4.22,2.89-8.47,4.72-12.54A12.77,12.77,0,0,0,234,184.65ZM103.32,208.53c-.22.54-.79,1.22-.61,1.61,1.7,4.24.3,8.57.39,12.84.09,3.53,0,7.08,0,10.93a40.59,40.59,0,0,1-5-1.72,65.24,65.24,0,0,1-7.42-4.09,17.57,17.57,0,0,1-5.16-6.1c1.83-2.63,3.72-5.11,5.35-7.79,2.88-4.77,5.62-9.62,8.38-14.48,1.75-3.07,3.27-6.27,5.16-9.23a18.44,18.44,0,0,1,4-4.33c3.3-2.63,5.39-6.12,7.25-9.77,1.19-2.38,2.13-4.88,3.26-7.47.52.35,1.09.72,1.65,1.07,4.66,2.78,9.65,3,14.81,2a20.78,20.78,0,0,0,7.18-2.83c.78-.5,1.63-.87,2.48-1.31,2,2.13,3.94,4.18,6.08,6.45-1,1-2.16,2-3.18,3.11-3.79,4.2-7.47,8.51-11.32,12.65q-4.6,4.89-9.54,9.46c-5.09,4.71-9,10.28-12.8,16-2.83,4.31-5.5,8.76-8.36,13.28a6.57,6.57,0,0,1-.28-1.26c.09-4.42.28-8.82.22-13.21a15.91,15.91,0,0,0-1-4.79C104.8,209.07,103.88,208.85,103.32,208.53Zm58.9-24.14c-4.2,4.33-8.42,8.68-12.75,12.88-2.83,2.75-5.86,5.25-8.73,7.9-1.5,1.4-2.92,2.88-4.38,4.31-3.7,3.75-7.49,7.41-11.05,11.26s-6.71,7.7-10,11.58a49.53,49.53,0,0,0-8,12.45,12.24,12.24,0,0,1-1.46,2.16,2.31,2.31,0,0,1-.59.39c0-2.44,0-4.75,0-7.08,0-1.17.14-2.35.18-3.52,0-1.44,0-2.68,1.33-3.9s1.78-3.09,2.63-4.68a153,153,0,0,1,10.32-16A72.7,72.7,0,0,1,130,200.45c5.81-5.42,11-11.43,16.23-17.39,2.33-2.64,4.79-5.16,7.1-7.66,2.94.78,5.51,1.48,8.08,2.11a2.32,2.32,0,0,1,1.8,1.32c.7,1.44,1.53,2.83,2.2,4.49C163.9,182.77,163.12,183.49,162.22,184.39Zm18.94,25.14c.44-1.74.68-3.55,1.05-5.31.93-4.36,1.91-8.71,2.8-13.09.66-3.22,1.05-6.5,1.79-9.7,1.39-6,3-11.89,4.46-17.83.24-1,.39-2,.55-3,.21-1.46.5-1.8,2-1.61,3.18.42,6.36,1,9.54,1.5,5.87,1,11.75,2.14,17.63,3.14,3,.52,6.05.87,9.08,1.33a16.27,16.27,0,0,1,2,.56c-1.88,8.17-3.73,16.13-5.55,24.12h-.46c-.48-1-.92-2-1.42-2.94-.56-1.13-1.08-2.26-1.74-3.33a2.32,2.32,0,0,0-2.41-1.17,2.18,2.18,0,0,0-2,2.06,26.62,26.62,0,0,0,0,5.43,112.63,112.63,0,0,1,.83,14.58,19.42,19.42,0,0,1-.7,3.42c-.54,3.09-1.07,6.18-1.65,9.27-.18.91-.48,1.81-.81,3-2.55-.43-5-.87-7.44-1.26-5.19-.87-10.37-1.76-15.57-2.59-2.87-.43-5.77-.67-8.64-1.11A4.46,4.46,0,0,1,181.16,209.53Zm5.66,10.8c-.48-.7-.87-1.44-1.57-2.62A177.4,177.4,0,0,1,213,222.37a13.37,13.37,0,0,1-1.44,2.4c-3.72,4.15-7.53,8.22-11.25,12.36a34.84,34.84,0,0,0-2.35,3.22c-.42.57-.81,1.13-1,1.39-2.14-1.91-4.21-3.78-6.27-5.63.76-1.31,1.48-2.53,2.15-3.77a3.38,3.38,0,0,0-.43-3.92C190.44,225.81,188.67,223.05,186.82,220.33Zm45.82-25a119.39,119.39,0,0,0-5.9,17.61,20.75,20.75,0,0,0-.69,4.66,14.58,14.58,0,0,1-1.77,6.5c-1.3,2.77-2.56,5.56-3.67,8.39a32.18,32.18,0,0,1-5.49,8.44c-2.35,2.85-4.68,5.73-7.14,8.47-3,3.31-6.14,6.51-9.27,9.71a42.63,42.63,0,0,1-4,3.59c-1.59,1.24-2.26,1.26-3.66-.11a68.19,68.19,0,0,1-5-5.57c-2.33-2.88-4.55-5.84-6.77-8.77-.57-.74-1-1.57-1.51-2.36,3.88-2.67,7.64-5.28,11.48-7.94a61.34,61.34,0,0,1,8,9.82,4.08,4.08,0,0,0,1.13,1.48,1.91,1.91,0,0,0,1.65.08c.29-.13.46-1,.31-1.41a25.71,25.71,0,0,0-1.61-2.9c-.15-.26-.24-.56-.46-1.08,3.2-3.77,6.42-7.58,9.69-11.39.94-1.07,2-2,2.89-3.09,1.07-1.24,2-2.59,3.07-3.85s1.2-3,3.22-3.07c.27,0,.61-.5.75-.85a40.3,40.3,0,0,0,1.93-5.53c.81-3.75,1.48-7.53,2-11.34a34.45,34.45,0,0,0,0-6.34c-.24-4-.61-8-.94-12,0-.28.05-.55.09-1.29A22.29,22.29,0,0,1,224,192.7c.3,1.22.65,2.44,1,3.64.22.67.7,1.43,1.53,1.06a1.83,1.83,0,0,0,.65-1.52,3.58,3.58,0,0,1,.63-2.37,15.69,15.69,0,0,0,1-3.62l1.37-5.68.61,0c.92,2,2,3.92,2.68,6C234.1,191.92,233.32,193.66,232.64,195.36Z" transform="translate(20.34 36.27)"/><path class="cls-7" d="M237.77,107.49c.46-.54.91-1.09,1.37-1.61a7.42,7.42,0,0,1,5-2.37c2-.21,3.92-.29,5.88-.46a6.18,6.18,0,0,1,6.2,3.06,3,3,0,0,0,3.45,1.69,23.38,23.38,0,0,1,4,0,5,5,0,0,1,3.78,1.63,3.16,3.16,0,0,0,2.44,1.09,9.46,9.46,0,0,1,4,1.17c2.89,1.69,2.85,5,.06,6.94A18.3,18.3,0,0,1,266,121.4c-5.16.7-10.34.94-15.48-.32a2.24,2.24,0,0,0-1.77.21c-1.93,1.89-4.44,2-6.82,2.27-4.72.62-9.43.67-13.94-1.18-1.09-.44-2.12-1-3.29-1.61-2.55,1.34-5.33,1.25-8.18.83-3.87-.58-6.2-6.16-4.8-8.81a8.23,8.23,0,0,1,4.2-3.61,13.9,13.9,0,0,1,7.83-1,5.88,5.88,0,0,0,3.55-.49A13,13,0,0,1,237.77,107.49Zm20.84,11.81c3.12-.29,5.65-.37,8.11-.8a34.52,34.52,0,0,0,5.12-1.7A1.56,1.56,0,0,0,273,115a2.52,2.52,0,0,0-1.43-1.36,23,23,0,0,0-2.53-.33c-.8-.18-1.86-.33-2.27-.88a4.71,4.71,0,0,0-4.34-1.83c-1.49,0-3-.06-4.48.08a2.3,2.3,0,0,1-2.69-1.35c-1.53-3.44-4.26-4.31-7.73-3.64a4.15,4.15,0,0,1-.7.07c-3.15.09-5.85.87-7.36,4.08-.68,1.46-1.3,1.48-2.63.58-3.33-2.26-6.55-1.59-9.66.37a2.51,2.51,0,0,1-2.59.35c-3.09-1.28-6-.28-8.82,1a3.84,3.84,0,0,0-1.08.9c-1,1.07-1,1.84-.43,3.21,1.39,3.43,6.4,3.53,9,2.06,1.63-.93,1.81-1,3.33,0a10.78,10.78,0,0,0,6,2.36c2.59.05,5.17.32,7.76.3a11.27,11.27,0,0,0,6.91-2,4.47,4.47,0,0,1,3.74-.78C253.75,118.65,256.46,119,258.61,119.3Z" transform="translate(20.34 36.27)"/><path class="cls-7" d="M64.57,138.21A23.64,23.64,0,0,1,56,140.32a7.44,7.44,0,0,1-6.62-2.9c-2.49-3.24-1.68-6.19,1.6-9a11,11,0,0,1,3.1-1.65,5.09,5.09,0,0,1,4.89.85c2.14-1.3,3.94-2.87,6-3.55,3.84-1.25,7.73-2.59,12-1.93a9.28,9.28,0,0,1,6.25,3.36,10.94,10.94,0,0,0,1.08,1A14.16,14.16,0,0,0,86,126a6.55,6.55,0,0,1,6.9.81,4,4,0,0,0,3.07.65,5.12,5.12,0,0,1,4.78,8.42,11.83,11.83,0,0,1-7.38,4.68c-1.69.32-3.36.79-5.06,1.06a15.1,15.1,0,0,1-7.42-.73,4.53,4.53,0,0,0-3.14.06c-3.76,1.23-7.56,1.56-11.08-.84A22.79,22.79,0,0,1,64.57,138.21Zm21.93,1c2.77-.71,5.86-1.33,8.83-2.31A6.44,6.44,0,0,0,99,133.4a2.09,2.09,0,0,0-.28-2.39c-.93-1.28-2.24-1.08-3.44-.81a3.84,3.84,0,0,1-4-1.16,3.1,3.1,0,0,0-3.27-.81,13,13,0,0,0-2.16.9c-2,1-2.65.83-4-1a7.23,7.23,0,0,0-6.63-3.36,36.74,36.74,0,0,0-6.28.83c-3.15.75-6.17,1.84-8.37,4.48-1.19,1.43-1.6,1.39-3,0a2.3,2.3,0,0,0-3-.65,15.22,15.22,0,0,0-3.46,2.33,3,3,0,0,0-.52,2.34,4.73,4.73,0,0,0,4.5,3.49c3-.06,6-.34,8.59-2a1.69,1.69,0,0,1,2.63.47,6.48,6.48,0,0,0,4,2.74,10.31,10.31,0,0,0,6.7-.49,5.07,5.07,0,0,1,4.49-.19A40.88,40.88,0,0,0,86.5,139.19Z" transform="translate(20.34 36.27)"/><path class="cls-1" d="M169.49,146.77l0,0c-.85.85-1.74,1.66-2.64,2.42-3.15,2.63-10,7.51-10,7.51l-1.7.59c-.11-.09-.21-.2-.34-.31C160,153.93,165,151,169.49,146.77Z" transform="translate(20.34 36.27)"/><path class="cls-1" d="M171.52,144.46a96.09,96.09,0,0,0,4.77-8.62,29.36,29.36,0,0,1-1.88,5.23,29.77,29.77,0,0,1-2.8,3.59A1.76,1.76,0,0,0,171.52,144.46Z" transform="translate(20.34 36.27)"/><path class="cls-1" d="M181.12,120.56c-1,.83-1.7,1.42-2.11,1.7a15.65,15.65,0,0,1-.42,4.11c0-1.17,0-2.48-.11-4l2.57-2.09C181.07,120.41,181.1,120.47,181.12,120.56Z" transform="translate(20.34 36.27)"/><path class="cls-8" d="M189.65,111.68c-1.48,1.81-3,3.48-4.46,5-.94.64-1.35,1-1.39,1.4-1,1-1.9,1.8-2.68,2.5,0-.09-.05-.15-.07-.24l-2.57,2.09c.07,1.48.11,2.79.11,4v.07a92.4,92.4,0,0,1-2.3,9.4,96.09,96.09,0,0,1-4.77,8.62,1.76,1.76,0,0,1,.09.2c-.64.72-1.33,1.44-2.07,2.15l0,0C165,151,160,153.93,154.87,157c.13.11.23.22.34.31l-3.13,1.11a1.21,1.21,0,0,0-.22-.15c-2,.89-4.16,1.87-6.42,2.87,0,.06,0,.15.07.22L143,162.57a2.87,2.87,0,0,0-.18-.34c-1.61.74-3.17,1.41-4.68,2.19-.65.31-1.24.87-1.87.2s-.15-1.33.24-1.92c.52-.76,1.13-1.5,1.66-2.28a8.27,8.27,0,0,0,1.63-5.86,10.9,10.9,0,0,0-1.61.61,45.87,45.87,0,0,1-13,4.73,5.82,5.82,0,0,0-3.27,1.63l-2.76.37a.33.33,0,0,1,0-.13c-2.59.28-4.92.56-7.25.76a7.56,7.56,0,0,1-2.56-.09c-.7-.17-1.68-.61-1.81-1.13A3,3,0,0,1,108,159c1-1.22,2.31-2.13,3.33-3.31,1.59-1.83,3.07-3.76,4.55-5.68a2.28,2.28,0,0,0,0-2.79,88,88,0,0,1-5.53-11.45c-2.59-7.22-4-14.6-2.39-22.42a63.15,63.15,0,0,1,4.4-14.6c2.78-6,6.48-11.32,12.16-15,1.44-.94,2.7-2.16,4.14-3.12a31.77,31.77,0,0,1,13.39-5.44c2.89-.39,5.83-.54,8.38,1.37,4.9-2.15,10-2.2,15.11-1.76a29.11,29.11,0,0,1,6,1.17c3.94,1.22,6.6,4.12,9.12,7.21a29.66,29.66,0,0,1,6.38,13q1.36,6.55,2.39,13.19A17.86,17.86,0,0,1,189.65,111.68Z" transform="translate(20.34 36.27)"/></g><g class="cls-9"><rect class="cls-3" x="330.27" width="365.15" height="365.15"/><polygon class="cls-10" points="545.95 283.03 547.51 287.72 545.95 298.66 541.26 300.22 511.56 304.91 499.06 303.35 499.06 293.97 535.01 287.72 545.95 283.03"/><polygon class="cls-6" points="399.8 191.59 402.93 199.41 404.49 205.66 404.49 207.22 415.43 208.78 423.25 208.78 423.25 199.41 424.52 185.05 413.87 188.46 399.8 191.59 399.8 191.59"/><path class="cls-5" d="M384.94,143.6l4.69-4.69h6.25c1.56,0,6.25,3.13,6.25,3.13l-1.56,8.39-3.13,4.11a67.44,67.44,0,0,1-7.81,1.57h-4.69c-1.57,0-1.87-6.93-1.87-6.93Z" transform="translate(20.34 36.27)"/><polygon class="cls-11" points="422.47 150.17 431.85 186.12 431.85 190.81 438.1 190.81 439.66 195.5 441.22 198.62 445.91 193.93 445.91 197.06 445.91 203.31 453.73 209.56 472.48 200.19 486.69 179.66 473.42 172.84 467.74 133.04 456.37 135.32 422.47 150.17"/><path class="cls-12" d="M422.45,218.63l12.41-.89,25.1.89S472.44,215,474,214.45s19.1-4,19.1-4l10.61,8.14h25l-4.69,29.7L516.23,253l-39.07,9.38-20.52.75-34.19-.75L420.89,253Z" transform="translate(20.34 36.27)"/><polygon class="cls-6" points="503.75 156.42 502.18 161.11 495.93 170.49 483.43 192.37 474.56 201.15 491.24 218.94 505.37 210.19 510 236.14 511.56 253.33 524.07 259.58 544.26 255.19 554.15 255.07 550.74 154.64 531.88 153.29 522.5 154.86 503.75 156.42"/><path class="cls-13" d="M533.52,329.21a5.64,5.64,0,0,0-.25-1c-1-2.83-2-5.64-2.95-8.47-1.39-4.13-2.8-8.24-4.1-12.38-1-3.18-1.91-6.38-2.77-9.58Q522,292.4,520.69,287c-1.16-4.89-2.22-9.8-3.33-14.71-.56-2.52-1.16-5-1.75-7.59l.76-.26c2.22-.62,4.43-1.28,6.68-1.84,1.72-.42,2.17-1.67,2.26-3.16s.08-2.94.08-4.4c0-2.72-.08-5.43-1.44-7.59.5-1.78,1-3.28,1.32-4.81.51-2.66,1.08-5.33,1.33-8s.17-5.19.18-7.78c0-2.88.05-5.75-.06-8.63s-.33-5.74-.64-8.58a33.3,33.3,0,0,0-1-4.21,5.4,5.4,0,0,0,.54-1.57c.07-1.8,0-3.62,0-5.41,0-4-.08-8,0-12,0-3.57.22-7.13.36-10.68a41.81,41.81,0,0,1,1.19-9.89,22,22,0,0,0,.84-5.52q.12-9-.06-17.94a30.14,30.14,0,0,0-1.25-9.18,17.4,17.4,0,0,0-5-7.91c-2.11-1.84-4.75-2.84-7.3-3.86a13.45,13.45,0,0,1-6-4.77,8.44,8.44,0,0,1-1.67-5.39,52.66,52.66,0,0,1,1.58-10.17,59.74,59.74,0,0,1,2.26-5.75c-.63-.32-2,1.64-2.55,1.12-.21.47-1.34,4.28-1.63,5.55s-.68,2.36-.93,3.56a24.32,24.32,0,0,0-.36,2.83c-.15,2.24-.81,4.49.25,6.68.29.59.54,1.21.86,2-2.82,2.14-5.76,3.86-9.3,4.19a29.71,29.71,0,0,1-5.25-.06c-2-.18-2.69-1.44-2.45-3.39a18.56,18.56,0,0,0-1.55-10.91c-.91-1.79-1.87-2.1-3.75-1.44-1.49.51-3,1-4.64,1.51h0a28,28,0,0,1-2.85.75,36,36,0,0,1-3.54.73,2.55,2.55,0,0,1-2.45-1.12,33.12,33.12,0,0,1-4.19-8.07,27.26,27.26,0,0,0,2.46-1.39c.53-.36,1-.92.46-1.56s-1.12-.39-1.61.11a1.88,1.88,0,0,1-1.76.72c-2.74-3-2.88-18.74-.38-24.29A27,27,0,0,1,466,70c.21-.81.45-1.62.74-2.41.12-1.73-.54-1.55-1.63-.34q0,.47-.12.93a31.75,31.75,0,0,1-1.33,4.15c-.55,1.65-1.09,3.3-1.66,5,0,0,0,0,0,0a.36.36,0,0,1,0,.09l0,.08c0,.08-.12,1-.15,1.75,0,1.13,0,2.3,0,2.58,0,1.86-.22,3.74-.08,5.58a47.9,47.9,0,0,0,1,7.55,43.17,43.17,0,0,0,2.38,6.86,24.31,24.31,0,0,0,4.75,7.77,2.29,2.29,0,0,0,2.27.81c.84-.15,2.55-.41,4.26-.76.79-.16,2.46-.52,3.9-1,1.69-.52,3.15-1.12,3.95-1.39,1.13-.37,1.25-.31,1.88.74a12.29,12.29,0,0,1,1.25,4.89c.56,4.3-.21,8.17-3.32,11.44a14.09,14.09,0,0,0-3.14,4.14,14.07,14.07,0,0,1-1.67,2.44,11.29,11.29,0,0,0-6.63-2.19c-3.61,0-7.22.07-10.83.1h-4.08c-.11-.86-.23-1.69-.34-2.52-.49-3.75-1.1-7.49-1.46-11.25-.51-5.63-.86-11.26-1.29-16.9-.11-1.36-.4-1.59-1.71-1.28-1.66.41-3.3.84-4.89,1.39-3.74,1.3-7.44,2.66-11.15,4-2.43.89-4.87,1.79-7.29,2.72-3.83,1.48-7.66,3-11.51,4.45-3.7,1.39-7.44,2.67-11.14,4a12.57,12.57,0,0,0-2,1,1.57,1.57,0,0,0-.77,1.88c.14.55.33,1.09.49,1.63.53,1.78,1.17,3.54,1.56,5.36.86,3.9,1.59,7.86,2.36,11.78.11.58.17,1.17.23,1.6l-7.58,2.7c-.18-.3-.45-.72-.69-1.16a6.77,6.77,0,0,0-5.54-3.7A12.74,12.74,0,0,0,384.51,138c-1.9,1.85-3.67,3.88-4.29,6.58a15.91,15.91,0,0,0,.37,8.49c.66,2.16,1.27,4.32,1.85,6.3-1.38,1.75-2.69,3.36-3.91,5a31.78,31.78,0,0,0-2.27,3.58,30.16,30.16,0,0,0-3.28,7.58c-.91,3.72-.8,7.5-.91,11.29a11.18,11.18,0,0,0,.85,5,5,5,0,0,1,.33,1.65c.25,3.27,1.62,6.21,2.89,9.15a11.59,11.59,0,0,0,1.37,2.33,19.45,19.45,0,0,0,10.13,6.42c2.38.72,4.77,1.37,7.16,2,2.17.58,4.34,1.25,6.55,1.67a146.72,146.72,0,0,0,16.46,2c2,.18,3.95.21,5.92.32,1.11.06,2.22.17,3.21.25-.3,2.19-.57,4.25-.85,6.31a97.44,97.44,0,0,0-1.23,13c0,2.14-.16,4.28-.27,6.42-.22,4.63-.39,9.26-.72,13.89-.14,2,.38,3.4,2.25,4.22,0,0,0,0,0,0a8,8,0,0,0-.39,2.24c.58,3.73,1.19,7.47,1.9,11.17q2,10.23,4.06,20.42c.95,4.64,2.16,9.23,3,13.89.95,5.27,1.65,10.6,2.45,15.9.25,1.62.47,3.25.7,4.86.1.69.22,1.5,1.14,1.36s.83-.92.71-1.63c0-.11,0-.21-.05-.32-.37-2.63-.77-5.26-1.14-7.88-.42-3-.7-6.07-1.31-9.05-1.38-6.93-3-13.8-4.4-20.71q-1.66-8-3.2-15.93c-.72-3.83-1.31-7.67-1.95-11.52-.13-.69-.27-1.39-.43-2.3l11.2,1.33c.14.78.25,1.39.34,2,.52,3.41,1,6.82,1.56,10.21.35,2,.88,4,1.21,6,.7,4.06,1.34,8.14,2,12.21.51,3.36,1.06,6.7,1.45,10.06.64,5.5,1.14,11,1.72,16.51a8.06,8.06,0,0,0,.23,1.17c.13.58.32,1.16,1.05,1.1s.83-.8.89-1.41a3.14,3.14,0,0,0-.08-.67c-.15-1.18-.33-2.35-.47-3.52-.87-7.07-1.68-14.13-2.62-21.18q-1-7.38-2.33-14.72c-1.05-5.87-2.28-11.7-3.44-17.64a11.12,11.12,0,0,1,1.5-.1,103.23,103.23,0,0,0,16.4-.66c5.83-.64,11.61-1.69,17.41-2.55,1.2-.17,2.42-.31,3.78-.48,0,1.29,0,2.36,0,3.44a3.67,3.67,0,0,0,1.86,3.54c.33.19.63.44.91.64-.08.75-.17,1.41-.22,2.08-.19,2.47-.3,5-.55,7.41-.36,3.66-.84,7.3-1.23,11-.5,4.59-.95,9.21-1.46,13.82s-.93,9.09-1.51,13.63c-.61,4.81-1.36,9.61-2,14.42-.27,2.08-.42,4.16-.55,6.26-.08,1.18.3,1.82.85,1.75.95-.13.82-1,.9-1.61.19-1.57.21-3.16.39-4.72.47-3.77,1-7.51,1.5-11.27.78-6.49,1.57-13,2.3-19.51q.91-8.25,1.75-16.52c.38-3.82.7-7.65,1-11.46.14-1.5.28-3,.42-4.53h5c-.13.75-.24,1.36-.35,2-.33,2-.72,4-.95,6-.38,3.36-.61,6.76-.95,10.12-.47,4.78-.93,9.56-1.47,14.33-.61,5.5-1.25,11-2,16.47s-1.52,11-2.27,16.46a3,3,0,0,0,0,1.33c.09.31.45.74.72.74s.65-.36.83-.66a3.28,3.28,0,0,0,.26-1.14c.36-2.58.72-5.14,1.05-7.72.9-7.22,1.86-14.45,2.72-21.68.62-5.33,1.15-10.66,1.7-16,.24-2.3.38-4.61.61-6.91.3-3,.63-5.94,1-8.89.18-1.44.54-2.86.83-4.3l10.51-.75c-.12,4.47-.21,8.8-.37,13.13-.17,4.63-.39,9.25-.63,13.88-.23,5-.51,9.93-.75,14.9-.2,4.34-.32,8.69-.57,13-.22,3.94-.55,7.88-.83,11.82a2,2,0,0,0,.08,1c.14.33.45.77.71.78s.68-.37.79-.69a5.54,5.54,0,0,0,.25-1.5c.25-3.44.54-6.86.75-10.3.26-4.52.48-9,.7-13.53.34-6.94.7-13.88,1-20.82.23-5.65.37-11.29.53-16.93,0-1.67,0-3.35,0-5,1.28-.28,2.38-.53,3.47-.73a3.41,3.41,0,0,1,.88.06c0,4.43,0,8.77,0,13.1.07,7.18.25,14.35.28,21.51.05,10.8,0,21.6.05,32.4a7.58,7.58,0,0,0,.21,2,1.31,1.31,0,0,0,.86.81c.61.06.83-.47.83-1,0-2,0-4,0-5.94,0-4.33,0-8.68,0-13,0-6,0-12.08-.07-18.13,0-2.65-.12-5.3-.14-7.95q-.09-8.65-.14-17.31c0-2.23,0-4.48,0-6.69,2.64-1,3.57-1.12,5.25-.89.8,3.72,1.6,7.47,2.44,11.21,1.24,5.39,2.44,10.8,3.75,16.18,1,4,2,8,3.21,11.91,1.56,5.19,3.3,10.31,5,15.47,1,3.1,2.13,6.18,3.19,9.27a4.58,4.58,0,0,0,.15.49c.26.5.61.84,1.21.65S533.58,329.76,533.52,329.21Zm-53.75-195a34.61,34.61,0,0,1,6.41-9.69,19.73,19.73,0,0,0,2-3c2.63,2.11,5.72,1.74,8.74,1.52,3.92-.27,7.24-2,10.58-4.71a23.65,23.65,0,0,0,1.89,2.29c1.91,1.84,4.52,2.47,6.79,3.7a37.22,37.22,0,0,1,3.59,1.91,10.59,10.59,0,0,1,2.42,2.53A18.56,18.56,0,0,1,525.78,139c.32,7.5.46,15,.24,22.51a5.81,5.81,0,0,1-.24,1.67c-1.54,4.62-1.62,9.44-1.81,14.24-.16,4.17-.36,8.34-.44,12.52-.06,3.33,0,6.66.07,10,0,1.07.11,2.15,0,3.21a4.1,4.1,0,0,1-.55,1.7,1.36,1.36,0,0,0,0,1.72,5.82,5.82,0,0,1,1.08,3.68c0,1.34.11,2.7.09,4a2.62,2.62,0,0,1-1.58,2.43c-1.14.59-2.23,1.31-3.36,1.95a14.57,14.57,0,0,1-5.83,1.59,32.09,32.09,0,0,1-10.75-.59,12.65,12.65,0,0,1-6.82-3.84,14.72,14.72,0,0,1-2.4-4.82,9.9,9.9,0,0,1-.52-5.74,17.5,17.5,0,0,0,.11-6.73,38.24,38.24,0,0,1-.53-4.54,18,18,0,0,0-2.75-7.92,80.59,80.59,0,0,1-5.44-11.27c-.3-.8-.57-1.59-.82-2.33.68-.95,1.24-1.67,1.71-2.42.31-.5.47-1.11-.16-1.5s-1,0-1.23.51c-1.1,2.15-3.27,3.26-4.75,5-1.1,1.3-2.3,2.49-3.38,3.78a3.42,3.42,0,0,1-2.88,1.49c-1.78,0-3.55.45-5.37,0a9,9,0,0,1-3.43-1.34c-2.19-1.55-4.2-3.22-5.19-5.85a14.93,14.93,0,0,0-1.28-2.56,1.45,1.45,0,0,1,.06-1.86c2.15-2.76,4.35-5.48,6.37-8.35,2.76-3.9,5.92-7.54,8.25-11.76,1-1.88,2.41-3.57,3.44-5.44C477.14,139.62,478.45,136.93,479.77,134.24ZM411.88,166a10.79,10.79,0,0,0-.45-1.24,3.26,3.26,0,0,1-.11-2.75,10.82,10.82,0,0,1,.56,4c1.68.33,2,0,1.79-1.67s-.4-3.36-.5-5a3.58,3.58,0,0,1,1-3.09,2.93,2.93,0,0,1,.32.8c.22,2.51.41,5,.63,7.58a3.62,3.62,0,0,0,.31,1.47c.17.32.64.48,1,.72.19-.32.53-.64.52-1-.07-1.58-.19-3.16-.35-4.72a23,23,0,0,1-.12-6.58,2.39,2.39,0,0,1,.17-.62c0-.08.19-.13.36-.24.16.19.44.35.48.56.3,1.44.46,2.91.85,4.3a50.41,50.41,0,0,0,1.83,5.22c.17.43.76.69,1.2,1.07,1.27-2.44,3.06-4.32,3.38-7a3.34,3.34,0,0,1,.42,2.68c-.6,2.58-1.14,5.18-1.88,7.71a2.17,2.17,0,0,0,.74,2.55c1.14,1,2.3,2,3.45,3l1.49,1.24c-1.16,1.28-1.69,2.86-3.25,3.7-.66.36-.91,1.46-1.41,2.32-3.11.56-5.72-1-8.22-2.77s-3.85-4.22-5.21-6.77a3.9,3.9,0,0,1-.34-2.73,6.78,6.78,0,0,0,.76.21c.83.08,1.21-.21,1.11-1A12,12,0,0,0,411.88,166ZM425.39,168l2.52,3.19c-.1.11-.21.22-.3.33-.8-.83-1.61-1.63-2.38-2.48C425.12,168.86,425.29,168.48,425.39,168Zm2.48,12.15a3,3,0,0,1,1,1.8c0,.87-.92,1.11-1.91,1.56a14.43,14.43,0,0,1-.56-2.75C426.42,179.74,427.22,179.43,427.87,180.1Zm2.6,2.84c.65-1,.17-2.17-.36-3.25l1.52-1.8a6.83,6.83,0,0,1,1.14.66q3,2.83,6,5.74c.94.9,1.79,1.87,2.67,2.84.55.63,1.17,1.25.63,2.25a1,1,0,0,0,.29,1,2.09,2.09,0,0,0,1.22-.1c.19,0,.31-.31.45-.48,2.12-2.72,4.18-5.47,6.35-8.14s4.56-5.43,6.94-8.26a16.9,16.9,0,0,0,8.47,7.68,25.84,25.84,0,0,1-1.7,2.3c-1.89,2-3.77,4-5.82,5.87-2.59,2.35-5.33,4.54-8,6.77a31.25,31.25,0,0,1-6.65,4,2.43,2.43,0,0,1-2.8-.42,48.28,48.28,0,0,1-7.83-7.69c-1.32-1.76-2.78-3.4-4.15-5.12a10.9,10.9,0,0,1-.86-1.39A16.51,16.51,0,0,0,430.47,182.94Zm25.85-11.36c-4.19,5-8.35,10-12.43,15-2.42-2.38-4.76-4.74-7.17-7-1.5-1.44-3.09-2.8-4.64-4.21-.39-.37-.74-.83-1.27-1.45,10.08-3,19.34-7.35,28.48-12a1.93,1.93,0,0,0,.22.28c-.62.83-1.25,1.65-1.88,2.46-.17.23-.32.47-.48.7C455,168.33,455,168.33,456.32,171.58Zm6.33-41c2.75,0,5.5-.11,8.25,0a25.17,25.17,0,0,1,4.83.65,12.56,12.56,0,0,1,2.76,1.46c-1.65,3.22-2.86,6.26-4.79,9.11-3.09-2.11-6.08-4.18-9.08-6.21-.75-.5-1.55-.92-2.3-1.42-1.4-.91-2.81-1.84-4.2-2.78-.1-.08-.1-.28-.2-.61C459.56,130.71,461.1,130.61,462.65,130.58ZM457,133c2.86,1.81,5.69,3.62,8.49,5.52,2.18,1.47,4.31,3,6.47,4.59a3.72,3.72,0,0,1,.48.53,79.63,79.63,0,0,1-5.92,9.27c-1.19,1.58-2.38,3.16-3.61,4.71a4.24,4.24,0,0,1-1.24,1.11c-2.95,1.5-5.92,3-8.94,4.39a175.28,175.28,0,0,1-17.63,7.36c-1.41.45-2.77,1-4.11,1.52-1.58-2-3.17-3.91-4.7-5.9a2.17,2.17,0,0,1-.36-1.39,5.47,5.47,0,0,1,.56-1.76,7.7,7.7,0,0,0,0-6.1,3.41,3.41,0,0,0-.55-1c-.79-1-1.78-.95-2.37.2a12.83,12.83,0,0,0-.68,1.89c-.25.78-.46,1.57-.75,2.52-1.21-.91-2-1.69-2.18-3.1a19.85,19.85,0,0,0-1-3.76c-.59-1.75-1.23-2-2.91-1.32l-.7.32-.84-1.35a7.36,7.36,0,0,1,.72-.5c3.64-1.76,7.3-3.51,10.94-5.28q11.2-5.46,22.8-10c2.25-.87,4.5-1.78,6.79-2.61A1.58,1.58,0,0,1,457,133ZM407.7,122.16c-.3-1.25-.74-2.49-1.11-3.72-.27-.86-.55-1.71-.85-2.68,1.56-.62,3-1.25,4.46-1.76,3.56-1.25,7.17-2.39,10.72-3.68,2.55-.92,5-2,7.53-3,1.88-.75,3.77-1.49,5.68-2.19,4.44-1.64,8.89-3.28,13.34-4.85,1.69-.59,3.44-1,5.4-1.58.26,3.46.67,6.71.73,10A114.69,114.69,0,0,0,455,124c.25,1.6.37,3.25.58,4.87.23,1.94.23,2-1.66,2.71-2.52,1-5.08,1.87-7.58,2.92-4.58,1.91-9.16,3.81-13.68,5.84-4.31,2-8.56,4-12.83,6.1-1.81.88-3.61,1.81-5.52,2.78-.23-.47-.54-.81-.51-1.14.17-2.22-1-4.14-1.49-6.19s-1.18-4.33-1.73-6.5c-.5-2-1-4-1.39-5.94C408.71,127,408.26,124.58,407.7,122.16Zm-6.57,23.69a2.53,2.53,0,0,1,.17,1.3,8,8,0,0,1-3.44,6.13,13.84,13.84,0,0,1-10.06,2.59c-1.08-.09-2.11-.91-3.16-1.39l.09-.38a16,16,0,0,1-.09-1.95,10.14,10.14,0,0,1,.41-3.14,12.3,12.3,0,0,1,3.47-5.31c2.79-2.29,6-2.41,9.23-1.46a4.71,4.71,0,0,1,1.8,1.5A11.62,11.62,0,0,1,401.13,145.85Zm-1.22,22.68a40.9,40.9,0,0,1-10.88.53c-1.87-.12-1.89-.23-2.23-1.86a51.28,51.28,0,0,0-3.24-10.48,2.25,2.25,0,0,1-.11-.63,1.13,1.13,0,0,1,.22-.05c3.11,2.3,6.49,2.19,10,1.21,3-.85,4.24-1.68,7.57-4.55C401.82,154.64,401.1,163.39,399.91,168.53ZM382.09,150a9.39,9.39,0,0,1,1.33-7.91,14.92,14.92,0,0,1,4.6-4.42,10.77,10.77,0,0,1,7.5-1.13c2.34.43,3.28,2.35,4.36,4.55a11.09,11.09,0,0,0-11.14.32c-3.57,2.12-5.21,5.48-6.13,9.69A8.05,8.05,0,0,1,382.09,150Zm-4.37,19.18c1.36-2.33,3-4.47,4.59-6.69a6.84,6.84,0,0,1,1.05-.92c.64,2.53,1.34,4.84,1.8,7.19.22,1.11.62,1.78,1.72,2a17.13,17.13,0,0,0,3.15.47c3.27,0,6.54-.21,9.8-.35,1.57-.06,2-.56,2.14-2.18.35-3,.77-5.91,1.16-8.85,2.2-.56,4.16-1.31,5.41-3.28a7.11,7.11,0,0,0,.64-6.18,7.23,7.23,0,0,0-1-2,3.8,3.8,0,0,0-2.89-1.84c-.66,0-1.33-.06-2-.1l-1.08-5.25a15.4,15.4,0,0,1,7.06-2.33c.78,3.07,2.35,5.93,2.74,9.15a24.68,24.68,0,0,0,.59,3.33,30.46,30.46,0,0,0,1.21,3,4.94,4.94,0,0,0-2.43,4.15c0,.22-.26.47-.45.67a6,6,0,0,0-1.59,5.14,2.87,2.87,0,0,1-.11,1.3,9.86,9.86,0,0,0,.9,8.46,17.2,17.2,0,0,0,7.13,7.23,9.5,9.5,0,0,0,4.8,1.44,3.16,3.16,0,0,1,3.27,2.13,29.33,29.33,0,0,0,4.8,6.72c1.14,1.26,2.21,2.56,3.31,3.86a38,38,0,0,0,7.16,6.16,3.25,3.25,0,0,0,3.48.17A39.7,39.7,0,0,0,456,193.52c1.94-1.81,4-3.45,5.91-5.33A74.57,74.57,0,0,0,467,182.4a2.17,2.17,0,0,1,2-.94c.84,0,1.69-.1,2.53-.06,2.81.11,4.8-1.3,6.52-3.33,1.17-1.36,2.39-2.68,3.8-4.27.78,1.95,1.31,3.5,2,5,.88,1.95,1.85,3.88,2.8,5.78,1.09,2.18,2.22,4.32,3.3,6.49a3,3,0,0,1,.26,1c.35,2.86.71,5.72,1,8.58a18.45,18.45,0,0,1,0,1.86c-2.46.92-4.87,1.86-7.29,2.74-4.59,1.67-9.47,2.07-14.21,3.14a90.71,90.71,0,0,1-10.53,1.47c-5.33.51-10.68,1-16,1.25-4.4.22-8.8.29-13.19.14a123.81,123.81,0,0,1-12.48-1.08c-5.26-.72-10.53-1.2-15.82-1.64a21,21,0,0,1-3.94-.91c-3.32-1-6.67-2.06-9.95-3.27a11.84,11.84,0,0,1-3.46-2.06c-1.75-1.41-3.4-2.94-5-4.48a16.69,16.69,0,0,1-5.44-13C374,179.22,374.9,173.94,377.72,169.14Zm25.77-11.64v-8.8c2.16-.5,3.44.29,3.85,2.23.29,1.46.6,2.82-.36,4.21A5.29,5.29,0,0,1,403.49,157.5Zm22.06,58c-4.08,0-8.1-.61-12.15-.86a82.63,82.63,0,0,1-15-2.26c-4.15-1-8.25-2.29-12.33-3.58a15,15,0,0,1-6.69-4.5,16.75,16.75,0,0,1-3.28-7.18c1.08,1,1.89,1.88,2.75,2.66,1.8,1.62,3.58,3.26,5.45,4.8a12.2,12.2,0,0,0,2.55,1.29,74.13,74.13,0,0,0,12.88,4.16,47.55,47.55,0,0,0,6.88.85q6,.6,12,1.17c3.37.31,6.76.4,10.11.91,4.24.64,8.46.1,12.68.07,3.64,0,7.28-.56,10.94-.82,2.59-.21,5.17-.36,7.77-.51a74.59,74.59,0,0,0,13.69-2.22c3.23-.79,6.61-.92,9.75-2.11,1.69-.64,3.38-1.25,5-1.87.69-.27,1.38-.5,2.24-.81v1.76a18.93,18.93,0,0,1-5.21,2.39c-3.22.85-6.35,2-9.58,2.76-5.5,1.21-11,2.51-16.62,3.2a145.12,145.12,0,0,1-18.41,1C435.8,215.81,430.67,215.52,425.55,215.53Zm36.23,44.82c-2.85.4-5.72.53-8.6.81a99.42,99.42,0,0,1-15.72.12c-3.1-.17-6.18-.62-9.26-1-1.94-.25-2.47-.93-2.39-2.93q.33-8.13.74-16.24c.15-3.44.26-6.87.54-10.31.21-2.64.66-5.27,1-7.9.14-1.18.15-2.37.26-3.54a13,13,0,0,1,.33-1.58h6.22c5.08,0,10.16.06,15.23-.11,3.14-.13,6.26-.64,9.4-1,2-.22,3.93-.4,5.87-.73,2.22-.39,4.4-1,6.62-1.38a129.31,129.31,0,0,0,14.88-3.94,39.42,39.42,0,0,0,4.13-1.68c.09.28.2.62.28,1a16.34,16.34,0,0,0,4.5,8.57,11.54,11.54,0,0,0,3.1,2c4.5,2.06,9.27,2.24,14.1,1.74a3.77,3.77,0,0,1,.67,0,15,15,0,0,0,8.1-2.65,29,29,0,0,1,2.87-1.68,6.26,6.26,0,0,1,.33,1.29c-.09,5.4-.19,10.83-.31,16.25a15.24,15.24,0,0,1-.32,2.52c-.4,2.11-.87,4.2-1.26,6.31a6.1,6.1,0,0,1-3.38,4.38,26.13,26.13,0,0,1-7,2.36c-3.74.86-7.47,1.74-11.22,2.53-3.19.69-6.4,1.32-9.6,1.94-2.6.5-5.21,1-7.82,1.44C476.59,258,469.2,259.24,461.78,260.35ZM513.55,263c-2.66.58-5.3,1.14-8,1.54-3.62.54-7.26,1-10.91,1.3-3.14.25-6.31.17-9.47.24a6.2,6.2,0,0,1-1.67-.18,3.27,3.27,0,0,1-2.75-3.51v-3c1.37-.24,2.53-.51,3.69-.68,9.27-1.38,18.38-3.5,27.49-5.6a71.34,71.34,0,0,0,7.86-2.56,16.58,16.58,0,0,0,2.6-1.47,2.87,2.87,0,0,1,.78,2.05c.11,2.76.12,5.53.17,8.3a1.59,1.59,0,0,1-1.42,1.65Q517.77,262.1,513.55,263Z" transform="translate(20.34 36.27)"/><path class="cls-13" d="M520,264.15c.71.07,1.07.63,1.37,1.27.84,1.78,1.72,3.55,2.5,5.36,3.06,7.1,5.67,14.37,8.13,21.7,2.09,6.26,4,12.57,6.07,18.85q2.51,7.82,5,15.62a7.25,7.25,0,0,0,.73,1.51,1.08,1.08,0,0,1-.37,1.61c-.59.4-1.1.1-1.45-.4a4.5,4.5,0,0,1-.58-1.21c-1.31-4.08-2.59-8.18-3.91-12.26s-2.66-8-4-12.06c-2-6.33-4-12.71-6.13-19-1.55-4.46-3.44-8.81-5.23-13.2-.87-2.14-1.84-4.24-2.75-6.37C519,264.7,519.23,264.16,520,264.15Z" transform="translate(20.34 36.27)"/><path class="cls-7" d="M458.63,296.21q.92,12.42,1.81,24.84c.13,1.92.16,3.84.24,5.76,0,.11,0,.22,0,.34,0,.56-.25,1-.87,1.05a1,1,0,0,1-1-.94c-.12-.95-.18-1.91-.25-2.87-.43-6.14-.87-12.29-1.27-18.43-.17-2.64-.26-5.3-.39-7.94a190.25,190.25,0,0,0-1.82-20.92c-.61-3.79-1.42-7.54-2.13-11.32a3.4,3.4,0,0,1-.14-1.33c.06-.31.42-.75.69-.78a1.09,1.09,0,0,1,.89.55,10,10,0,0,1,.48,2c.79,4,1.79,8.06,2.31,12.14.77,5.93,1.19,11.9,1.77,17.86Z" transform="translate(20.34 36.27)"/><path class="cls-7" d="M442.74,108.19a11.42,11.42,0,0,1-1,.54c-.52.21-1.07.35-1.59.57q-11.49,4.68-23,9.38c-.94.39-1.81.93-2.74,1.32a2.81,2.81,0,0,1-1.08,0c.08-.39,0-.95.28-1.16a8.26,8.26,0,0,1,2.1-1.37q9.44-3.94,18.89-7.81c1.93-.8,3.86-1.56,5.8-2.31a2.55,2.55,0,0,1,1.14-.26,3.3,3.3,0,0,1,1,.6Z" transform="translate(20.34 36.27)"/><path class="cls-7" d="M435.15,117.9a3.72,3.72,0,0,1-1,.91c-1.24.53-2.54.93-3.81,1.38l-12.6,4.37a4.78,4.78,0,0,1-1.29.39c-.32,0-.84-.19-.92-.42a1.15,1.15,0,0,1,.33-1,3.42,3.42,0,0,1,1.19-.6q7.34-2.57,14.67-5.13c.74-.26,1.44-.64,2.19-.89S435.09,117,435.15,117.9Z" transform="translate(20.34 36.27)"/><path class="cls-7" d="M428.26,124.47c.17.15.55.35.66.65a1.06,1.06,0,0,1-.35.84,6,6,0,0,1-1.34.72q-4.23,1.71-8.47,3.39a3.74,3.74,0,0,1-1.12.31.86.86,0,0,1-.66-.4.9.9,0,0,1,.13-.75,1.61,1.61,0,0,1,.66-.51c3-1.34,6.08-2.68,9.13-4A6.07,6.07,0,0,1,428.26,124.47Z" transform="translate(20.34 36.27)"/><path class="cls-7" d="M424.92,132.9c.75.22,1.35.41,1.4,1.19s-.54.85-1.12,1c-1.51.38-3,.84-4.53,1.23-.56.14-1.33.55-1.62-.23s.51-1.05,1.05-1.28C421.69,134.13,423.31,133.53,424.92,132.9Z" transform="translate(20.34 36.27)"/><path class="cls-7" d="M428,154.08a8.59,8.59,0,0,1-2.08-.73,1.55,1.55,0,0,1,.06-2.64c.45-.33.91-.65,1.39-.94a1.63,1.63,0,0,1,2.5.33c.9,1,1.21,2.58.42,3.19A7.2,7.2,0,0,1,428,154.08Zm-.46-2.39.12.43,1-.31c-.05-.15-.14-.43-.15-.43C428.16,151.47,427.83,151.58,427.5,151.69Z" transform="translate(20.34 36.27)"/><path class="cls-7" d="M434.38,146.42a2.3,2.3,0,0,1,2.44,1.78,2.16,2.16,0,0,1-1.13,2.4,7.13,7.13,0,0,1-1.45.43c-1.27.27-1.81,0-2.29-1.11s-.38-1.58.7-2.38C433.3,147.06,434,146.66,434.38,146.42Zm.71,2c-.78-.14-1.32-.16-1.6.77A1.17,1.17,0,0,0,435.09,148.44Z" transform="translate(20.34 36.27)"/><path class="cls-14" d="M499,45.64a4.58,4.58,0,0,0-3.06,4.18v6.25l.82,4.71A11.8,11.8,0,0,0,499,65.45a63.68,63.68,0,0,0,6.47,4.79L510.84,72" transform="translate(20.34 36.27)"/><path class="cls-15" d="M466.19,66.58a9.14,9.14,0,0,0,.09,2.9c.31,1.38,1.79,3.26,3.82,6.06.2.27.44.64.72.7,1.68.37,1.55,1.64,1.57,2.89,0,1.41.05,2.82.17,4.23a128.85,128.85,0,0,0,2.35,14.35,12.12,12.12,0,0,0,1.9,5.13A17.65,17.65,0,0,0,477,100c0-4-.14-7.9-.09-11.85,0-3.27.21-6.54.4-9.81,0-.62.26-1.54.69-1.77a3.79,3.79,0,0,1,3.72-.33,5,5,0,0,1,2.72,3.48,12.12,12.12,0,0,1-1,7.43c-.35.75-.69,1.51-1.11,2.42,2.46.33,3.77,1.88,5,3.63,1.45,2,3.05,3.91,4.68,5.78a5.31,5.31,0,0,0,2.06,1.41c2.17.81,4.39,1.46,6.57,2.21a1.6,1.6,0,0,0,1.71-.28c2.28-1.85,4.65-3.59,6.84-5.53A26.61,26.61,0,0,0,515.43,89c2.09-4.15,3.56-8.57,2.76-13.39-.26-1.54-.52-3.08-.77-4.63a16.25,16.25,0,0,0-1.74,0c-1.11.16-2.21.44-3.33.56a13.79,13.79,0,0,1-4.87-.19,16.52,16.52,0,0,1-7-4.28c-2.74-2.5-3.78-5.92-4.67-9.41-.6-2.4.41-4.63.53-7,.08-1.68,1.25-3,2.21-4.31.38-.52.74-1.06,1.23-1.77l-2.42-.45a30,30,0,0,0-10.26.38,18.2,18.2,0,0,0-3.56,1,23.49,23.49,0,0,0-3.45,1.79,33.28,33.28,0,0,0-7.27,5.78,45.58,45.58,0,0,0-3.7,4.4c-1.37,1.92-2.55,4-3.8,6a35.3,35.3,0,0,0-3.72,8.63,7.74,7.74,0,0,0-.06,4.32,3.65,3.65,0,0,0,.44.86c.56-1.71,1.1-3.36,1.65-5A45.1,45.1,0,0,1,466.19,66.58Z" transform="translate(20.34 36.27)"/><path class="cls-15" d="M505.08,68.34a15,15,0,0,0,3.4,1.18c4.41.38,8.69,0,12.46-2.67,1.85-1.29,3.43-2.79,3.49-5.28,0-2.08.23-4.17.11-6.24A16.12,16.12,0,0,0,520.62,46c-2.39-2.89-5.81-4-9.5-4.06-3.94,0-7.16,1.72-10,4.36a11.68,11.68,0,0,0-3.59,9,16.32,16.32,0,0,0,2.4,8,4.86,4.86,0,0,0,2.25,2.43c.74-1.44,1.55-2.79,2.16-4.22s1-2.87,1.56-4.58a23.51,23.51,0,0,1,1.49,1.94,4.12,4.12,0,0,1,.67,1.63c.17,1.59-.6,3-1.24,4.33C506.32,65.84,505.77,66.93,505.08,68.34Z" transform="translate(20.34 36.27)"/></g><path class="cls-16" d="M620.51,135.51c0,103.52-39.06,155.83-136.66,157.17-92.3,1.22-135-59.48-165.82-137.1C336.89,106.75,353.22,57.75,391.15,32,502.33-43.37,620.51,32,620.51,135.51Z" transform="translate(20.34 36.27)"/><path class="cls-16" d="M318,155.58c-15.87,41.12-33.57,82.12-67.43,109-24.43,19.38-82.92,32.91-131.58,24.29C41,275,1.45,228.5,1.45,152.77,1.45,46.08,93.4,9.58,150,8.83S278.57,47.71,310.2,134.9Q314,145.39,318,155.58Z" transform="translate(20.34 36.27)"/></g></g></svg>