<?xml version="1.0" encoding="UTF-8"?>
<svg   xmlns="http://www.w3.org/2000/svg" viewBox="0 0 86 14">
  <defs>
    <style>
      .cls-1 {
        fill: #a4a4a5;
      }

      .cls-2 {
        fill: #231815;
      }
    </style>
  </defs>
  <path class="cls-1" d="m6.75.69c.05-.22.25-.38.48-.38s.43.16.48.38l1.04,4.36c.03.1.09.2.18.27.09.07.2.1.31.09l4.46-.35c.22-.02.44.12.51.34.07.22-.02.46-.21.57l-3.82,2.34c-.09.06-.16.14-.2.25-.04.11-.03.22.01.32l1.72,4.14c.09.21.02.45-.17.59-.19.14-.44.12-.61-.02l-3.41-2.91c-.08-.07-.19-.11-.3-.11s-.22.04-.3.11l-3.41,2.91c-.17.14-.42.16-.61.02-.19-.14-.25-.38-.17-.59l1.72-4.14c.04-.1.05-.21.01-.32-.04-.11-.11-.2-.2-.25L.46,5.96c-.19-.12-.28-.35-.21-.57.07-.22.28-.36.51-.34l4.86.38L6.75.69Z"/>
  <g>
    <path class="cls-2" d="m25.53,5.96c0,1.31-.73,1.97-2.18,1.97h-2.62v3.6h-.66V3.99h3.28c1.45,0,2.18.66,2.18,1.97Zm-.68,0c0-.9-.52-1.34-1.55-1.34h-2.57v2.68h2.57c1.04,0,1.55-.44,1.55-1.33Z"/>
    <path class="cls-2" d="m27.59,11.53h-.67V3.99h.67v7.54Z"/>
    <path class="cls-2" d="m34.68,11.53h-.9l-3.84-3.78v3.78h-.67V3.99h.67v3.31l3.61-3.31h.9l-3.91,3.54,4.14,4Z"/>
    <path class="cls-2" d="m41.21,11.53h-.74l-.89-2.27h-3.39l-.9,2.27h-.72l3.03-7.54h.58l3.03,7.54Zm-1.87-2.91l-1.44-3.71-1.45,3.71h2.9Z"/>
    <path class="cls-2" d="m43.07,11.53h-.67V3.99h.67v7.54Z"/>
    <path class="cls-2" d="m50.78,10.23c-.64.97-1.56,1.45-2.77,1.45-1.03,0-1.86-.36-2.49-1.08s-.95-1.67-.95-2.85.32-2.12.95-2.84c.63-.72,1.46-1.08,2.49-1.08,1.21,0,2.13.48,2.77,1.45l-.58.35c-.51-.77-1.24-1.15-2.19-1.15-.82,0-1.49.3-2,.89-.51.59-.77,1.39-.77,2.39s.25,1.8.77,2.39c.51.59,1.18.89,2,.89.95,0,1.68-.38,2.19-1.15l.58.35Z"/>
    <path class="cls-2" d="m57.72,11.53h-.66v-3.62h-4.22v3.62h-.67V3.99h.67v3.29h4.22v-3.29h.66v7.54Z"/>
    <path class="cls-2" d="m60.17,11.53h-.67V3.99h.67v7.54Z"/>
    <path class="cls-2" d="m68.11,11.53h-.67V3.99h.67v7.54Z"/>
    <path class="cls-2" d="m75.58,11.53h-.65l-4.27-6.43v6.43h-.67V3.99h.67l4.25,6.38V3.99h.67v7.54Z"/>
    <path class="cls-2" d="m83.29,10.23c-.64.97-1.56,1.45-2.77,1.45-1.03,0-1.86-.36-2.49-1.08s-.95-1.67-.95-2.85.32-2.12.95-2.84c.63-.72,1.46-1.08,2.49-1.08,1.21,0,2.13.48,2.77,1.45l-.58.35c-.51-.77-1.24-1.15-2.19-1.15-.82,0-1.49.3-2,.89-.51.59-.77,1.39-.77,2.39s.25,1.8.77,2.39c.51.59,1.18.89,2,.89.95,0,1.68-.38,2.19-1.15l.58.35Z"/>
    <path class="cls-2" d="m85.78,11.07c0,.17-.06.31-.17.42-.12.12-.26.17-.42.17s-.31-.06-.42-.17c-.12-.12-.17-.26-.17-.42s.06-.31.17-.42c.12-.12.26-.17.42-.17s.31.06.42.17c.12.12.17.26.17.42Z"/>
  </g>
</svg>