<svg xmlns="http://www.w3.org/2000/svg" viewBox="0 0 53.51 114.24"><defs><style>.cls-1{fill:#e0cbb6;}.cls-2{fill:#953110;}.cls-3{fill:#576e47;}.cls-4{fill:#fff;}.cls-5{fill:#495f36;}.cls-6{fill:#de8e59;}.cls-7{fill:#252f31;}.cls-8{fill:#ddac99;}.cls-9{fill:#cd9880;}</style></defs><g id="レイヤー_2" data-name="レイヤー 2"><g id="レイヤー_1-2" data-name="レイヤー 1"><path class="cls-1" d="M4.29,106.22S.09,107.85,0,109.54s2.42,5.33,28.07,4.6,26-3,21.9-4.6a64.11,64.11,0,0,0-16.28-3.32C28.07,105.79,4.29,106.22,4.29,106.22Z"/><path class="cls-2" d="M14.17,9.1a1,1,0,0,0-.23-.48,1.35,1.35,0,0,0-.93-.3,1.5,1.5,0,0,0-.82.28,1,1,0,0,0-.65,1v0a1.22,1.22,0,0,0,.12.53l.09.16a1.27,1.27,0,0,0,.61.58,1.58,1.58,0,0,0,.29.22,1.21,1.21,0,0,0,1.67-.56A1.41,1.41,0,0,0,14.17,9.1Z"/><path class="cls-2" d="M13.62,9.81c-.2-.62-1.18-.35-1,.28a105.76,105.76,0,0,1,4.71,26.7c0,.65,1.05.66,1,0A107.05,107.05,0,0,0,13.62,9.81Z"/><path class="cls-2" d="M20.42,15.27c-.28-2.5-.65-5-1.1-7.48Q19,5.86,18.54,4c-.12-.54-.24-1.07-.37-1.61a1.74,1.74,0,0,0,.2-.3A1,1,0,0,0,18.59.71s0-.07,0-.11A.44.44,0,0,0,18.2.26,1,1,0,0,0,17.46,0a.62.62,0,0,0-.38,0,1.18,1.18,0,0,0-.41.14,1.26,1.26,0,0,0,.47,2.27c.12.38.2.8.29,1.21.41,1.78.76,3.57,1.08,5.37A108.07,108.07,0,0,1,20,31.09c0,.66,1,.66,1,0A110,110,0,0,0,20.42,15.27Z"/><path class="cls-2" d="M39.27,30.13q.42-3.76,1.1-7.49c.24-1.28.49-2.56.78-3.83.11-.54.24-1.08.37-1.61a1.74,1.74,0,0,1-.2-.3,1,1,0,0,1-.22-1.33s0-.07,0-.11a.47.47,0,0,1,.38-.35,1,1,0,0,1,.74-.22.52.52,0,0,1,.37,0A1.16,1.16,0,0,1,43,15c1,.53.54,2.06-.47,2.26-.12.39-.2.8-.29,1.22q-.61,2.67-1.08,5.37A108,108,0,0,0,39.68,46c0,.65-1,.65-1,0A110,110,0,0,1,39.27,30.13Z"/><path class="cls-3" d="M20,37.21a31.88,31.88,0,0,0-6.84-7.13,31.4,31.4,0,0,0-3.46-2.29.85.85,0,0,0-1.24.51A81.23,81.23,0,0,0,7.21,47c.1,2.09.27,4.19.54,6.26a27.71,27.71,0,0,0,1.17,5.92.79.79,0,0,0,.21.34c.12.31.27.62.42.92a.75.75,0,0,0,.08.66,5,5,0,0,0,1.48,1.51l.06.06a.82.82,0,0,0,.44.23,9,9,0,0,0,3.15.89c.9.11,1.81.17,2.73.2l.68.09a11.88,11.88,0,0,0,3.2,0h.11l2.34.44a.86.86,0,0,0,1-.59A32.31,32.31,0,0,0,20,37.21Z"/><path class="cls-4" d="M20.46,62.24C17.89,58.73,17,54.5,16.28,50.3a19.59,19.59,0,0,0,1.32-4.23c.09-.46-.61-.65-.7-.19A18.13,18.13,0,0,1,16,49c-.1-.58-.21-1.17-.32-1.75a62.11,62.11,0,0,0-1.6-6.28.19.19,0,0,0,0-.08,25.68,25.68,0,0,0,.8-4.44c0-.46-.69-.46-.73,0a24.81,24.81,0,0,1-.51,3.22c-1-3.13-2.17-6.22-3.23-9.32-.15-.44-.86-.25-.7.19,1.67,4.88,3.55,9.73,4.77,14.75a11.47,11.47,0,0,1-3.32-3.08c-.27-.38-.9,0-.62.36a12.08,12.08,0,0,0,4.16,3.69c.12.52.23,1.05.33,1.58A84.69,84.69,0,0,0,17,56.57,19.3,19.3,0,0,1,13.05,54c-.35-.3-.87.21-.51.51a19.66,19.66,0,0,0,4.6,2.94l.1,0a19,19,0,0,0,2.6,5.11C20.11,63,20.74,62.61,20.46,62.24Z"/><path class="cls-5" d="M34.43,16.57A45.38,45.38,0,0,0,28.15,6.43a.86.86,0,0,0-1.19,0c-2.62,2.4-3.77,5.94-4.87,9.21a84.92,84.92,0,0,0-3,11.4,87.09,87.09,0,0,0,.58,35.47.91.91,0,0,0,.21.92v0a.81.81,0,0,0,1.35.39,27.9,27.9,0,0,0,12.4-.07,2.23,2.23,0,0,0,2.62-.42A4.83,4.83,0,0,0,37,63l.26,0a.8.8,0,0,0,.59-.59l0-.12a.84.84,0,0,0,.09-.56C40.19,46.65,40.83,30.78,34.43,16.57Z"/><path class="cls-3" d="M51.42,46.89a130.71,130.71,0,0,1-3.5,13c-.4,1.27-.84,2.65-1.14,3.58a32.39,32.39,0,0,1-8.15,1.63A31,31,0,0,1,33.44,65a9.17,9.17,0,0,1-1.69-.24l-.63,0a.72.72,0,0,1-.71-.39.79.79,0,0,1-.24-.56C30,59.94,31.33,56,32.48,52.29a87.27,87.27,0,0,1,3.65-9.75,49.05,49.05,0,0,1,12.19-17,1.36,1.36,0,0,1,1.64.37h0A37.32,37.32,0,0,1,51.8,33.6,72.85,72.85,0,0,1,51.42,46.89Z"/><path class="cls-4" d="M49.72,40.5c-.95.57-1.89,1.16-2.85,1.72a16,16,0,0,1-2.16,1,159.83,159.83,0,0,0,4.52-15.5c.11-.45-.59-.65-.69-.19-.8,3.39-1.73,6.74-2.75,10.07a19.09,19.09,0,0,1-2-3c-.22-.42-.84-.05-.63.36a20,20,0,0,0,2.25,3.37.6.6,0,0,0,.08.08c-.89,2.83-1.85,5.65-2.88,8.44-.23.63-.47,1.24-.7,1.86-1.36-1.17-2.12-2.85-3.27-4.22-.3-.35-.81.16-.51.52,1.21,1.44,2,3.23,3.5,4.41h0c-.63,1.64-1.27,3.26-1.93,4.88a.29.29,0,0,0-.13.3L39,56.13c-.41,1-.86,2-1.3,2.94h0c-.69-.27-1.15-1.18-1.58-1.74s-.9-1.19-1.34-1.79c-.28-.37-.91,0-.63.37.61.82,1.23,1.64,1.85,2.45a4,4,0,0,0,1.41,1.37,45.44,45.44,0,0,0-2.19,5.51.36.36,0,0,0,.69.19c.93-3,2.48-6,3.71-8.89l.68-1.65a23.16,23.16,0,0,0,6.08-2.38c.42-.2.06-.83-.36-.63a25.55,25.55,0,0,1-5.4,2.21Q42,50.57,43.35,47l1-2.93A24.18,24.18,0,0,0,46.93,43c1.07-.59,2.11-1.26,3.16-1.89A.37.37,0,0,0,49.72,40.5Z"/><path class="cls-6" d="M52.41,77.07a93.58,93.58,0,0,0,1-15.14c0-1.32-2.09-1.7-2.38-.32l-.09.44,0,.07c-.15.59-.31,1.19-.47,1.78-6.62.87-13.28,1.89-20,1.61-3.47-.14-6.92-.46-10.38-.72a100.57,100.57,0,0,1-10.41-.9,1.5,1.5,0,0,0-.56,0v-.75a1,1,0,0,0,0-.36v-.13A1.12,1.12,0,0,0,8,61.5a1.16,1.16,0,0,0-1.73,1,98.58,98.58,0,0,0,1,15.73c.23,1.68.39,3.43.69,5.13H8s2.09,21.13,5,23.74,15,2.85,19.91,2.45,12.77-1,13.87-2.45c1.57-2.09,4.07-19,5.28-28.68a1.17,1.17,0,0,0,.09-.58v-.13l0-.14A.94.94,0,0,0,52.41,77.07Z"/><path class="cls-7" d="M51.42,61a2.06,2.06,0,0,0-1.25-1.33.59.59,0,0,0-.47-.08l-.23-.09c-.09.31-.2.63-.31.94h0c-.3.8-.59,1.61-.89,2.42a30.78,30.78,0,0,1-18,1.27.52.52,0,0,0-.68-.05c-1.44-.11-2.88.06-4.33,0-.49,0-1-.08-1.47-.13a37.15,37.15,0,0,1-3.91-.81.45.45,0,0,0-.4-.2l0,0a.36.36,0,0,0-.26-.06,43.75,43.75,0,0,1-4.58.07c-.69,0-1.38-.07-2.06-.13-.4,0-.93-.17-1.39-.17a3.93,3.93,0,0,1-.47-.55,5.09,5.09,0,0,1-.46-.58,5.31,5.31,0,0,1-1-1.54,2.31,2.31,0,0,0-.47.24.48.48,0,0,0-.52.49l0,.07a1.67,1.67,0,0,0-.61,1.92,1.86,1.86,0,0,0,.58,1.47c.22.68,1.08,1,1.75,1.29l.05,0a19.12,19.12,0,0,0,7.49,1.84c2.18.17,4.37.23,6.56.27l1.39.06a.5.5,0,0,0,.35.16c2.3.06,4.59.11,6.88,0h.49a.8.8,0,0,0,.15,0h.19c.54,0,1.08,0,1.53,0a19.63,19.63,0,0,0,2.17-.18,37.26,37.26,0,0,0,10-1.61c1.38-.46,3.2-1,4.08-2.24A2.3,2.3,0,0,0,51.42,61Z"/><path class="cls-8" d="M49.92,58.31A14.65,14.65,0,0,1,49.34,60a.5.5,0,0,0,.17.11,6.05,6.05,0,0,1,1.47.7l0,.25h0a1.72,1.72,0,0,1,.32,1.22h0v0a1.59,1.59,0,0,1-.09.39h0v0a2.12,2.12,0,0,1-.39.64,7.43,7.43,0,0,1-4.3,2.4l-.36.09c-1.74.33-3.49.61-5.24.9-2.47.41-11.1.88-11.24.88-1.59,0-9.88-.22-10-.12q-2.94-.35-5.87-.85A37.83,37.83,0,0,1,9.72,65a4.76,4.76,0,0,1-.5-.61,1.83,1.83,0,0,1-.73-1.06,2.89,2.89,0,0,1,0-1.34l0-.15a2.68,2.68,0,0,1,.24-.79,5.35,5.35,0,0,1,.78-.8,9.26,9.26,0,0,1-.94-2,4,4,0,0,0-.53.64,4.81,4.81,0,0,0-1.58,5.57A19.52,19.52,0,0,0,8.38,66.3a21.31,21.31,0,0,0,2.87,1.22l.27.06.15,0,.13,0h0a26.56,26.56,0,0,0,4.06.93.53.53,0,0,0,.41-.11c.49.07,1,.14,1.48.19l2.07.28a60.44,60.44,0,0,0,6.46.48l1,0a.41.41,0,0,0,.3-.11l.41,0c0,.2,12.67-1,16.07-1.63,2.2-.42,4.81-.69,6.83-1.71a3.92,3.92,0,0,0,.64-.42.43.43,0,0,0,.26-.13,3.28,3.28,0,0,0,.43-.48.1.1,0,0,0,0,0,3.52,3.52,0,0,0,1-2.52.47.47,0,0,0,.21-.41A3.79,3.79,0,0,0,49.92,58.31Z"/><path class="cls-4" d="M12.76,74.61A22.46,22.46,0,0,1,11.35,72a.61.61,0,0,0-1.1-.14l-2,3a.51.51,0,0,0,.08.71,8.27,8.27,0,0,0,.46,2c0,.05,0,.11.05.17a.45.45,0,0,0,.09.35c.23,1,.59,2.36,1.7,2,.56-.17.8-.75,1-1.23a24.3,24.3,0,0,0,1.25-2.69A1.72,1.72,0,0,0,12.76,74.61Z"/><path class="cls-4" d="M20.91,76a8.41,8.41,0,0,0-1.76-3c-1.35-1.66-2.48.53-3.22,1.91-1.35,1.44.13,3.7.83,5.23.31.69.69,1.38,1.59,1.16s1.35-1.61,1.7-2.44S21.11,76.89,20.91,76Z"/><path class="cls-4" d="M29.07,75.77a10.52,10.52,0,0,0-2-2.8c-1-.77-1.8.07-2.43,1.08a10,10,0,0,0-1.27,1.55.54.54,0,0,0-.12.54,13,13,0,0,0,1.07,2.94,5.11,5.11,0,0,0,1.57,2.14,1.1,1.1,0,0,0,1.46-.28A16.36,16.36,0,0,0,29,77.69,1.77,1.77,0,0,0,29.07,75.77Z"/><path class="cls-4" d="M38.7,76.41a8.54,8.54,0,0,0-1.36-2.54,6.2,6.2,0,0,0-2.25-2,.63.63,0,0,0-.74.09,29.68,29.68,0,0,0-2.29,3.36.61.61,0,0,0-.08.36.75.75,0,0,0-.1.33,2.48,2.48,0,0,0,0,.27.9.9,0,0,0-.1.46.62.62,0,0,0,.2.43c.14,1.89,1.63,3.79,2.5,5.31a.61.61,0,0,0,1,0,35.22,35.22,0,0,0,2.18-3.37C38.09,78.34,38.9,77.31,38.7,76.41Z"/><path class="cls-9" d="M36,75.08a1,1,0,0,0-.13-.09.52.52,0,0,0-.61-.18,1.43,1.43,0,0,0-.95,1,2.66,2.66,0,0,0,.12,1.55.62.62,0,0,0,.58.44,1.4,1.4,0,0,0,1.24-.91A1.65,1.65,0,0,0,36,75.08Z"/><path class="cls-4" d="M44,71.09a.61.61,0,0,0-1,.12c-.63,1.14-1.22,2.31-1.77,3.49a.55.55,0,0,0-.19.6q.85,2.16,1.77,4.27a.63.63,0,0,0,1,.13h0c.77-.18,1-1.1,1.35-1.74a9.79,9.79,0,0,0,1.15-2.71C46.61,73.74,45.05,72,44,71.09Z"/><path class="cls-4" d="M51.52,68.43a.61.61,0,0,0-1,.27c-.44,1.49-.95,3-1.53,4.4a.59.59,0,0,0,0,.21.61.61,0,0,0,.11.6h0a8.77,8.77,0,0,0,1.39,2.74.63.63,0,0,0,.93.14.49.49,0,0,0,.43-.43c0-.11,0-.23.08-.34a2.62,2.62,0,0,0,.65-1.68.55.55,0,0,0,0-.26c0-.17.08-.35.12-.52a11.37,11.37,0,0,0,.46-2A4.14,4.14,0,0,0,51.52,68.43Z"/><path class="cls-4" d="M9.22,70.51a.83.83,0,0,0-1.08-.32.79.79,0,0,0-.34,1v.35a.62.62,0,0,0,.44.58C9.1,72.37,9.59,71.13,9.22,70.51Z"/><path class="cls-4" d="M15.07,71.66a1,1,0,0,0-.82-.46.88.88,0,0,0-.78.48,1.49,1.49,0,0,0-.07.91.41.41,0,0,0,.13.23.87.87,0,0,0,.12.33.75.75,0,0,0,1,.25,1.2,1.2,0,0,0,.5-.77A1.31,1.31,0,0,0,15.07,71.66Z"/><path class="cls-4" d="M23.12,72.09a.89.89,0,0,0-.71-.18.57.57,0,0,0-.84.36,1.78,1.78,0,0,0,.78,1.93.61.61,0,0,0,.89-.36A3,3,0,0,0,23.5,73,1.07,1.07,0,0,0,23.12,72.09Z"/><path class="cls-4" d="M30.53,72.27a.84.84,0,0,0-.73.68.5.5,0,0,0-.05.13,1.3,1.3,0,0,0,.69,1.53c.73.23,1.1-.56,1.15-1.15A1,1,0,0,0,30.53,72.27Z"/><path class="cls-4" d="M40,71.49a.89.89,0,0,0-1.23.48.81.81,0,0,0,0,.38c0,.09,0,.24,0,.33a1.6,1.6,0,0,0,0,.44,1,1,0,0,0,.5.62.84.84,0,0,0,.85,0,.94.94,0,0,0,.41-.83C40.53,72.4,40.53,71.8,40,71.49Z"/><path class="cls-4" d="M47.6,70.21a1,1,0,0,0-.9.26.83.83,0,0,0-.22.81,1.08,1.08,0,0,0,.5,1.15,1,1,0,0,0,1,0,1,1,0,0,0,.48-.88A1.26,1.26,0,0,0,47.6,70.21Z"/><path class="cls-9" d="M11.23,74.74A.89.89,0,0,0,9.65,75a1.86,1.86,0,0,0,.3,1.78.8.8,0,0,0,1,.06,1.11,1.11,0,0,0,.43-.91.4.4,0,0,0,0-.19A1,1,0,0,0,11.23,74.74Z"/><path class="cls-9" d="M19.08,76.27a1.86,1.86,0,0,0-.52-1.3.6.6,0,0,0-.85,0,1.83,1.83,0,0,0-.33,1.92,1.06,1.06,0,0,0,.3.47l.15.15a.62.62,0,0,0,.85,0,.58.58,0,0,0,.17-.37A1.72,1.72,0,0,0,19.08,76.27Z"/><path class="cls-9" d="M27.29,75.31a1,1,0,0,0-1.13-.43,1.25,1.25,0,0,0-.78.86A1.42,1.42,0,0,0,25.47,77a1.1,1.1,0,0,0,1.12.5C27.5,77.4,27.72,75.91,27.29,75.31Z"/><path class="cls-9" d="M44.7,74.09a1.14,1.14,0,0,0-1.46-.29.62.62,0,0,0-.28.68,3,3,0,0,1-.06.67,1.72,1.72,0,0,0,.11.67,1.1,1.1,0,0,0,1,.72.56.56,0,0,0,.58-.64,1.14,1.14,0,0,0,.23-.33A1.41,1.41,0,0,0,44.7,74.09Z"/><path class="cls-9" d="M52.17,71.46a.68.68,0,0,0-.49-.21.58.58,0,0,0-.68.11,1.66,1.66,0,0,0-.48,1.49.77.77,0,0,0,.74.59A1,1,0,0,0,52,73a1.41,1.41,0,0,0,.33-.67A1,1,0,0,0,52.17,71.46Z"/><path class="cls-4" d="M32.25,40.66a32,32,0,0,1-4.15,6.66c-.3-2.12-.58-4.25-.79-6.39a.32.32,0,0,0,0-.31q-.16-1.68-.27-3.36c-.14-2.32-.2-4.64-.22-6.95.75-.27,1.58-1.41,2-1.8A39,39,0,0,0,32,24.8c.29-.37-.34-.73-.62-.36-.77,1-1.57,1.95-2.43,2.86-.21.22-1.58,1.71-2.12,2.21A198.26,198.26,0,0,1,28,9.43c.05-.46-.68-.46-.72,0-.48,4.69-.86,9.4-1,14.11a26.2,26.2,0,0,1-3-5c-.2-.42-.82-.05-.63.37a27.22,27.22,0,0,0,3.63,5.77c0,1.74-.08,3.47-.08,5.2a.35.35,0,0,0,0,.33q0,3.54.22,7.08c.05.87.12,1.74.19,2.61l-1.73-1.62-1.09-1a8.09,8.09,0,0,1-1.28-1.16.35.35,0,0,0-.61-.25l0,0a.38.38,0,0,0-.05.44c.16.38.62.66.91.93L24,38.51,26.58,41c.52,5.13,1.39,10.21,2.06,15.31a29,29,0,0,1-5.15-3.5c-.35-.3-.87.21-.51.51a30.16,30.16,0,0,0,5.77,3.87c.29,2.31.53,4.63.67,7h.1l.62,0C29.83,58.77,29,53.54,28.23,48.3A32.76,32.76,0,0,0,32.87,41C33.07,40.61,32.44,40.24,32.25,40.66Z"/><path class="cls-5" d="M52.08,50.83a20.81,20.81,0,0,1-1.2,4.3.76.76,0,0,1,0,.42l-1,3.13a28,28,0,0,0-1,2.7.86.86,0,0,1,.14.25l0,.06c-.15.35-.29.71-.43,1.07l0,0c-.58.23-1.16.45-1.75.65.3-.93.74-2.31,1.14-3.58a130.71,130.71,0,0,0,3.5-13A72.85,72.85,0,0,0,51.8,33.6,37.32,37.32,0,0,0,50,25.86a20,20,0,0,1,3.3,12.32c.06,1,.09,2,.08,2.92A39.76,39.76,0,0,1,52.08,50.83Z"/></g></g></svg>