<svg xmlns="http://www.w3.org/2000/svg" viewBox="0 0 156.83 173.36"><defs><style>.cls-1{fill:#e0cbb6;}.cls-2{fill:#cd9880;}.cls-3{fill:#252f31;}.cls-4{fill:#ddac99;}.cls-5{fill:#678d5b;}</style></defs><g id="レイヤー_2" data-name="レイヤー 2"><g id="レイヤー_1-2" data-name="レイヤー 1"><path class="cls-1" d="M85.38,166.75s-3.47,1.35-3.54,2.75,2,4.38,23.13,3.78,21.39-2.49,18-3.78a52.63,52.63,0,0,0-13.41-2.75C105,166.4,85.38,166.75,85.38,166.75Z"/><path class="cls-2" d="M115.34,142.74a76.64,76.64,0,0,0,.83-12.47c0-1.09-1.72-1.4-2-.27,0,.12,0,.24-.07.36a.14.14,0,0,0,0,.06l-.4,1.47c-5.45.72-10.93,1.55-16.45,1.33-2.85-.12-5.7-.38-8.55-.6a84.42,84.42,0,0,1-8.57-.74,1.23,1.23,0,0,0-.47,0v-.62a1,1,0,0,0,0-.3v-.1a.92.92,0,0,0-.9-1,1,1,0,0,0-1.43.85,81.48,81.48,0,0,0,.84,13c.18,1.38.32,2.82.56,4.23h0s1.73,17.4,4.15,19.56,12.32,2.35,16.4,2,10.52-.81,11.43-2c1.3-1.73,3.36-15.66,4.35-23.63a1,1,0,0,0,.08-.48v-.11l0-.12A.82.82,0,0,0,115.34,142.74Z"/><path class="cls-3" d="M114.52,129.51a1.66,1.66,0,0,0-1-1.1.45.45,0,0,0-.39-.06l-.19-.08c-.08.26-.16.52-.25.78h0c-.25.67-.49,1.33-.73,2a25.45,25.45,0,0,1-14.8,1,.41.41,0,0,0-.56,0c-1.19-.1-2.38,0-3.57,0-.4,0-.81-.06-1.21-.11a29.16,29.16,0,0,1-3.22-.66.39.39,0,0,0-.33-.17l0,0a.48.48,0,0,0-.22,0,36.68,36.68,0,0,1-3.78.06c-.56,0-1.13-.05-1.7-.1-.32,0-.76-.14-1.14-.14a4.14,4.14,0,0,1-.39-.46,4.37,4.37,0,0,1-.37-.48,4.31,4.31,0,0,1-.81-1.26,1.93,1.93,0,0,0-.38.19.4.4,0,0,0-.43.41.21.21,0,0,0,0,.06,1.37,1.37,0,0,0-.5,1.58,1.55,1.55,0,0,0,.47,1.21c.19.56.9.83,1.44,1.06l0,0a15.75,15.75,0,0,0,6.17,1.52c1.8.13,3.6.18,5.41.22l1.14.05a.44.44,0,0,0,.29.13c1.89,0,3.78.09,5.67,0h.4l.12,0h.16c.45,0,.89,0,1.26,0a17.75,17.75,0,0,0,1.79-.15,31.11,31.11,0,0,0,8.25-1.32c1.14-.38,2.63-.82,3.36-1.85A1.88,1.88,0,0,0,114.52,129.51Z"/><path class="cls-4" d="M113.29,127.28a14.46,14.46,0,0,1-.48,1.4.47.47,0,0,0,.14.08,4.84,4.84,0,0,1,1.21.58l0,.2v0a1.41,1.41,0,0,1,.26,1h0v0a1.65,1.65,0,0,1-.07.32h0v0a1.58,1.58,0,0,1-.33.52,6.1,6.1,0,0,1-3.54,2l-.29.07c-1.44.27-2.88.5-4.32.74-2,.34-9.15.73-9.26.73-1.31,0-8.14-.19-8.23-.11-1.62-.18-3.23-.41-4.84-.69a33.41,33.41,0,0,1-3.39-1.38,6.28,6.28,0,0,1-.42-.51,1.51,1.51,0,0,1-.6-.88,2.41,2.41,0,0,1,0-1.1s0-.08,0-.12a2.34,2.34,0,0,1,.2-.65,5,5,0,0,1,.64-.66,7.58,7.58,0,0,1-.77-1.69,5,5,0,0,0-.44.52,4,4,0,0,0-1.3,4.6,16.09,16.09,0,0,0,1.55,1.54,16.92,16.92,0,0,0,2.36,1l.22,0,.13,0,.1,0h0a23.44,23.44,0,0,0,3.34.76.41.41,0,0,0,.33-.09l1.23.16c.57.08,1.13.16,1.7.22a47.43,47.43,0,0,0,5.32.4l.82,0a.38.38,0,0,0,.25-.09l.33,0c0,.17,10.45-.81,13.25-1.34a22,22,0,0,0,5.62-1.41,3.2,3.2,0,0,0,.53-.34.42.42,0,0,0,.22-.11,4.25,4.25,0,0,0,.35-.39.1.1,0,0,1,0,0,3,3,0,0,0,.82-2.08.35.35,0,0,0,.17-.33A3.12,3.12,0,0,0,113.29,127.28Z"/><path class="cls-4" d="M112.69,126.71a21.37,21.37,0,0,0-4.72-1.33,38.08,38.08,0,0,0-7.07-.62,55.35,55.35,0,0,0-11.79.23,46.52,46.52,0,0,0-7.53,1.11c-1.28.36-3.94,1.33-4.16,2.94a.44.44,0,0,0,0,.37,2.41,2.41,0,0,0,.07.35.52.52,0,0,0,.75.3l.22-.12A.45.45,0,0,0,79,130l.46-.34a43,43,0,0,0,4.42-1.79l.72-.23c.54-.11,1.1-.2,1.65-.28,2.43-.13,4.88-.13,7.31-.16a88.88,88.88,0,0,1,17.55,1.2.53.53,0,0,0,.57-.23,5.77,5.77,0,0,1,1.92,1.2.51.51,0,0,0,.87-.36A2.57,2.57,0,0,0,112.69,126.71Z"/><path class="cls-3" d="M113.75,129.06l-.35-.2a1.09,1.09,0,0,0-.38-.46,9.44,9.44,0,0,0-5.75-1.51,50.12,50.12,0,0,0-6.6-.11c-4.76.09-9.55.2-14.29.64-1,.1-2,.22-3,.41a9.53,9.53,0,0,0-3.2.93c-1.44.9-.72,2.51.56,3a1,1,0,0,0,1.08.18,10.91,10.91,0,0,0,2.16-.28l1.71-.34a1.32,1.32,0,0,0,.72.9A20,20,0,0,0,92.3,134a44.88,44.88,0,0,0,6.76-.1c2.14-.14,4.27-.37,6.39-.66s4.32-.38,6.11-1.38a1,1,0,0,0,.48-.75,4.05,4.05,0,0,0,1.47-.15A1,1,0,0,0,113.75,129.06Z"/><path class="cls-5" d="M53.65.75c1.8-1.89,4.75.19,6.07,1.67,2.09,2.35,2.82,5.44,3.38,8.46l.51.79a.5.5,0,0,1,.09.3c.64.69,1.27,1.39,1.89,2.09A42.44,42.44,0,0,1,64,9.57c-.62-2-.53-5.41,2.1-6S70.7,6.29,71,8.43c.51,3.38-.71,7.19-1.35,10.52,1.19,1.5,2.35,3,3.46,4.58a17,17,0,0,1-.6-5.39c.11-1.79.92-4.91,3.2-5,2.46-.06,3.36,3.07,3.17,5-.34,3.44-2.58,6.34-2.62,9.85a.13.13,0,0,1,0,.06c.93,1.42,1.82,2.85,2.69,4.3a10.33,10.33,0,0,1-.12-3.68c.3-1.88,1.7-5.37,4.15-4.77,2.25.56,3.32,3.34,3.26,5.42-.1,3.36-2.34,6.07-4.06,8.79q2.73,5.2,5,10.66c0,.05,0,.11.07.17h0a.45.45,0,0,1,.17.44c0,.15.11.3.17.44a23.62,23.62,0,0,1,.11-3.69c.18-1.71,1-4.74,3.31-4.26s3.45,3.24,3.29,5.37c-.28,3.74-3.25,6.53-4,10.13a132,132,0,0,1,3.43,13,12,12,0,0,1,0-3c.37-2.16,2.41-4.4,4.75-3.32,2.72,1.26,2.28,4.8,1.61,7.15-1,3.49-3.56,6.29-4.37,9.82.65,3.64,1.26,7.29,1.78,11a3.24,3.24,0,0,1,1.15-1.26,3.29,3.29,0,0,1,3.8.35c1.07,1.06.82,3,.45,4.35-.61,2.13-2.75,3.61-4.27,5.09a.27.27,0,0,1-.08.07c1,10.16,1,20.43-1.09,30.46-.15.69-1.21.4-1.07-.3a88.34,88.34,0,0,0,1.69-19.7s0,0,0,0c-1.77-2.85-4.35-5-6.43-7.62-1.26-1.57-3.17-4.27-1.53-6.24,1.44-1.73,3.83-.29,5.08.91a10.63,10.63,0,0,1,2.36,3.53c-.16-1.66-.33-3.31-.53-5-2.14-2.2-4.81-3.71-7.15-5.66-1.47-1.22-4.14-3.53-3.26-5.75s3.65-1.13,5.12-.29A12.61,12.61,0,0,1,96,89.44c-.22-1.41-.45-2.82-.69-4.22a.51.51,0,0,1-.39-.18c-2.83-3.32-15.4-6.75-11.85-13.17,1.46-2.63,4.77-1.63,6.83-.37a12.65,12.65,0,0,1,3.5,3.17c-.33-1.7-.68-3.4-1.07-5.09l-.07,0c-2.58-1.88-5.9-2.32-8.45-4.23-1.6-1.21-3.34-3.6-2.49-5.71s3.43-1.75,5.08-1.11a9.47,9.47,0,0,1,3.76,2.73q-1.7-5.79-3.89-11.39c-3.64-.88-17.34-4.08-13-9.34,1.71-2.05,4.8-1.3,6.8-.17a13.07,13.07,0,0,1,3.17,2.6c-.82-1.75-1.69-3.49-2.6-5.2-3.07-1.1-6.15-2.22-9.1-3.61-1.92-.91-5-2.6-4.7-5.2.3-2.22,2.77-2.23,4.46-1.82A12.47,12.47,0,0,1,75.57,29q-2.23-3.45-4.7-6.73c-3.64-1.06-7.34-2-10.93-3.18-1.73-.58-4-2-3.17-4.19.72-1.87,3.34-1.9,5-1.62a9.67,9.67,0,0,1,2.36.74c-.54-.6-1.09-1.21-1.65-1.8a.45.45,0,0,1-.17-.11,22.53,22.53,0,0,1-7.24-4.93C53.66,5.64,51.8,2.69,53.65.75Z"/><path class="cls-5" d="M156,28.9c-1.78-1.36-5.06-.27-6.79.6-1.92,1-4.42,2.94-4.92,5.15a.58.58,0,0,0,.06.41,70.34,70.34,0,0,0-12.09,7.85c.78-1.8,1-3.89-.95-5.07-2.48-1.51-4,1.11-4.49,3.18-.23,1-1.19,5.52-.1,6.85-.53.52-1,1.06-1.56,1.6.73-2.11,1-4.59-.91-5.84-2.7-1.81-4.52,2.92-4.84,4.78-.17,1-.82,6.21.7,6.91q-1.59,2.05-3.06,4.21c.56-3.54-.24-10.09-4.38-8.61-5.63,2-1,10.52,1.22,13.61-.66,1.15-1.29,2.31-1.91,3.48a10.62,10.62,0,0,0-2.16-6.1c-1.26-1.72-3.42-3.61-5.66-2.38-2.41,1.34-2.23,4.42-1.28,6.59,1.36,3.09,3.91,5.51,6.31,7.81a84,84,0,0,0-3.2,8.79c-.06.17-.1.35-.15.52a8.48,8.48,0,0,0-1.3-2.82,8,8,0,0,0-1.81-1.89.55.55,0,0,0-.3-.2,2.58,2.58,0,0,0-2.61-.24c-2.06,1-2.05,4-1.41,5.84,1,2.86,3.52,5,5.52,7.19-1.09,5.49-1.79,11.08-2.6,16.61q-1,6.9-2,13.78c-.41,2.75-1.45,6.37.86,8.56.52.49,1.3-.29.78-.78-1.8-1.71-1-4.61-.68-6.76l1.07-7.25v0a32.3,32.3,0,0,0,2.49,5.63,25.73,25.73,0,0,1,.31,3.74.5.5,0,0,0,.15.37q-.66,3.18-1.24,6.38c.08.27.22.49.56.47a.69.69,0,0,0,.52-.27c1.09-5.93,2.33-11.83,3.85-17.67a3.47,3.47,0,0,0,.17-.45.5.5,0,0,0,.21,0,44,44,0,0,1,5.58-1.1,10.16,10.16,0,0,0,3-.77c1.49-.72,3-2.33,2.43-4.11s-2.87-2.3-4.53-2c-2.09.38-3.85,1.89-5.48,3.31.43-1.45.87-2.9,1.34-4.34l.36-1.09h0c2.85-.5,5.84-1.07,8.09-3,1.49-1.29,3.09-3.67,2-5.67s-3.61-1.66-5.15-.56a11.69,11.69,0,0,0-3.23,4.14q1.62-4.33,3.56-8.54c.09-.2.18-.4.28-.6,3.11-.3,11,2.26,11-3.23,0-4-4.87-3.19-7.94-2a12.07,12.07,0,0,1,4.37-3.65.48.48,0,0,0,.24,0c1.55-.22,11.65-.83,9.07-4.73-1-1.45-3.09-1.39-4.52-.81-2.06.84-3.55,2.81-5,4.37a.38.38,0,0,0-.08.11,10.71,10.71,0,0,0-1,.53c1-1.8,1.54-4.2-.69-4.41-3.13-.28-3.29,5.84-3.44,7.78a.55.55,0,0,0,.1.31,25.7,25.7,0,0,0-1.88,2.9,3.85,3.85,0,0,0-.26-1.34,2.31,2.31,0,0,0-3.12-1.41c-4.06,1.77-2.23,8.92-1.21,11.94a.59.59,0,0,0,.29.31c-.74,1.91-1.43,3.84-2.09,5.77l-.18.54a7.84,7.84,0,0,0-.72-3.29c-.7-1.45-2.32-3-4.09-2.23-1.93.85-1.5,3.48-1.18,5.11a76.71,76.71,0,0,0,2.56,8.45,19.85,19.85,0,0,1-.09,2.19c-.52-2.11-1.7-3.7-4-2.63a3.79,3.79,0,0,0-.76.48l1.38-9.4c.21-1.39.42-2.76.64-4.14a.25.25,0,0,0,0-.09,4,4,0,0,1,.23-.61.52.52,0,0,0,.17-.13c1.8-2.15,6.41-3.63,5.61-7.33A2.16,2.16,0,0,0,108,86.76a3.09,3.09,0,0,0-2.13.86c.47-2,1-4,1.61-5.92,2.86.11,6.39-.32,8.62-2.27,1.46-1.28,3-3.25,1.44-5.09s-4.48-1.11-6.27.11a11.49,11.49,0,0,0-1.69,1.41c.58-1.43,1.19-2.84,1.85-4.24a14.58,14.58,0,0,0,8.32-1.52c1.47-.84,3.35-2.64,2.69-4.54-.71-2.05-3.48-1.69-5-1a9.18,9.18,0,0,0-2.67,2,8.4,8.4,0,0,0-1.27.87q1.7-3.15,3.65-6.15a79.06,79.06,0,0,1,6-8,14.29,14.29,0,0,0,7.78-.46c1.63-.67,3.72-2.13,3.51-4.15-.22-2.22-2.71-2.46-4.42-1.88a7.29,7.29,0,0,0-1.14.5,73.77,73.77,0,0,1,7.1-5.85.54.54,0,0,0,.15.15c1.6,1,4.44,1.1,6.26.87,1.17-.15,3.32-.65,3.79-2s-.65-2-1.62-2.42a6.35,6.35,0,0,0-2.71-.43c1.37-.8,2.77-1.54,4.2-2.24,3-.42,6.3-.27,8.91-2C156.45,32.51,157.76,30.27,156,28.9Z"/><path class="cls-5" d="M94,131.26a.65.65,0,0,0,.45-.38c-.1-1.6-.24-3.19-.42-4.78a.61.61,0,0,0,.07-.28c0-.5,0-1,0-1.52a.54.54,0,0,0,.14-.36c.23-3.65,5.41-8.74,2.76-12.39a2.64,2.64,0,0,0-3.64-.57,3.64,3.64,0,0,0-1.54,2.11c-.58-2.53-1.24-5-2-7.53a.51.51,0,0,0,0-.29l-.13-.31q-.48-1.62-1-3.24C87,96.56,85.19,91.44,83.12,86.41a.5.5,0,0,0-.08-.67l-.33-.31q-2.08-5-4.47-9.85c1.7-2.53,3.38-5.32,3.2-8.48-.11-1.9-1.27-4.94-3.29-5.6s-3.39,2.35-3.6,3.9A10,10,0,0,0,74.8,69L74,67.54l-.06-.1c-1.2-2-2.48-4.06-3.83-6,1.28-3.07,2.5-6.29,2-9.66-.28-1.88-1.47-5.26-3.92-5s-3.13,3.8-2.91,5.8a15.47,15.47,0,0,0,.93,3.64c-1.16-1.41-2.36-2.78-3.62-4.09-.06-.18-.11-.35-.17-.52-.2-.66-.39-1.33-.56-2a52.55,52.55,0,0,0-.24-10.05c-.36-2.21-2.29-5-4.88-3.83-2,.89-2.25,3.07-1.78,5,0,2.31,1.28,4.71,2.75,6.76a.38.38,0,0,0-.13-.09,69.07,69.07,0,0,0-7.73-5.67c0-.37,0-.75,0-1.12a.55.55,0,0,0,0-.22,22.19,22.19,0,0,0-1.71-8.27c-.92-2-3-4.14-5.43-3.66-4.44.89-.5,6.85,2.66,10.65-1.92-1-3.88-1.94-5.88-2.78L39,35.84c-1.23-3-2.3-6.45-4.85-8.57-1.52-1.25-4.64-2.59-6.29-.77s.48,4.17,2,5.29c.85.65,1.83,1.4,2.87,2.11a72.52,72.52,0,0,0-9.08-2.13c-1.26-2.18-2.87-4.91-5-6.22-1.35-.84-4.81-1.76-6-.24-1.35,1.72,1,3.59,2.22,4.43A13.88,13.88,0,0,0,17.24,31c-1.3-.09-2.6-.14-3.9-.16-3-1-6.42-1.8-9.55-1.45-1.87.2-4,1.5-3.77,3.65.25,2.43,3.43,3.29,5.45,3,3-.45,6-2.62,8.65-4l.13-.1c1.56.05,3.12.14,4.68.3-.79,1,.09,2.37,1,3,1.86,1.33,4.41,1.29,6.58,1.23,2.89-.09,6-.86,8.87-.59,1,.36,2,.75,3.06,1.16l.27.12.07,0a.49.49,0,0,0,.23.08,67.5,67.5,0,0,1,7.72,3.82,11.62,11.62,0,0,0-1.87-.53h0l-.19-.08a.42.42,0,0,0-.35,0c-2.05-.24-5.21.2-5.6,2.57C38.23,46,42.59,46.87,44.6,47s4,0,6,.11A25.53,25.53,0,0,1,57,48.36q1.94,1.64,3.72,3.42a.5.5,0,0,0,.3.3l.35.35.26.27a.5.5,0,0,0,.15.17,70.72,70.72,0,0,1,6.1,7.29,17.56,17.56,0,0,0-7.25-4.89c-1.48-.43-5-.65-4.45,1.83.65,2.9,4.49,4.83,6.86,6,3.44,1.71,6.94,3.12,10.13,5.28l.09,0c1.33,2.31,2.59,4.67,3.77,7.06a.49.49,0,0,0,.3.62c.17.36.35.72.53,1.09l.36.77a17,17,0,0,0-5.43-3.8c-1.74-.77-5.85-2.37-6.88.33-1,2.53,2.74,5.65,4.6,6.72,3.59,2.08,7.68,3.53,11.49,5.19.77,1.81,1.5,3.63,2.21,5.47a12.24,12.24,0,0,0-4.25-3.55c-1.66-.78-4.48-1.3-5.31.9-1,2.63,1.42,5.62,3.31,7.14,2.48,2,5.57,3,8.24,4.65a20.49,20.49,0,0,1,2.58,4.53.54.54,0,0,0,.07.13c.78,2.74,1.49,5.5,2.09,8.27l-.1-.09a1.65,1.65,0,0,0-2.14.07c-1.54-.15-2.51,3-2.87,5.21-.67-1.19-1.38-2.35-2.14-3.47.38-3.22,1.44-7.11.61-10.3-.45-1.68-2-4.06-4-3.53s-2.47,3.22-2.29,5a11.24,11.24,0,0,0,.57,2.49c-1-1-2-2.06-3.06-3a.48.48,0,0,0,0-.33c-.15-.36-.29-.73-.43-1.11A22.31,22.31,0,0,0,73.73,96c-.65-1.58-2.58-4-4.52-2.67s-.86,4.6-.07,6.29a18.36,18.36,0,0,0,1.53,2.66q-1.89-1.42-3.87-2.74c-.52-2.59-1.21-5.86-2.9-8-.85-1.06-3-2.73-4.42-1.7-1.66,1.24-.31,3.7.65,4.89a13.16,13.16,0,0,0,1.79,1.79c-1.21-.69-2.44-1.36-3.67-2-1.93-2.67-4.15-5.29-7.35-6.4-2.2-.76-5.44-.76-5.92,2.1s2.35,4.71,4.85,5.3c4.16,1,8.5.83,12.5,2.48,1.21.71,2.4,1.45,3.58,2.22a.4.4,0,0,0,.15.1c.52.34,1,.69,1.54,1a10.42,10.42,0,0,0-2.35-.34c-2.14-.06-4,1.56-2.84,3.71,1.37,2.58,4.43,3.7,7,4.58a83.76,83.76,0,0,1,11.39,4.71.55.55,0,0,0,.35,0,46.42,46.42,0,0,1,2.76,4,14.62,14.62,0,0,0-5-2.85c-2.12-.68-5.6-1.06-6.66,1.52-1.2,2.95,2.26,4.56,4.47,5.18,3.61,1,7.42,1.25,10.66,3.27a40.51,40.51,0,0,1,1.71,5.87c.15.7,1.22.4,1.07-.29s-.3-1.34-.48-2c0-.39,0-.77,0-1.15a.5.5,0,0,0,0-.21v0a.41.41,0,0,0,.1-.23c.23-1.34.49-2.68.72-4a31.75,31.75,0,0,0,1.23-4.52,2.36,2.36,0,0,0,0-.28,110.54,110.54,0,0,1,1.53,12.42A.53.53,0,0,0,94,131.26Z"/></g></g></svg>