<svg xmlns="http://www.w3.org/2000/svg" viewBox="0 0 178.46 96.88"><g id="レイヤー_2" data-name="レイヤー 2"><g id="レイヤー_1-2" data-name="レイヤー 1"><path d="M14.75,39.08a2.36,2.36,0,0,1-2.22-1.56L.14,3.17A2.37,2.37,0,0,1,2.62,0L176.35,19a2.37,2.37,0,0,1,0,4.71L15,39.07ZM5.88,5.13,16.35,34.19l136.49-13Z"/><path d="M30.27,80.36a2.37,2.37,0,0,1-2.21-1.52L15,44.41a2.36,2.36,0,0,1,2-3.19L175.86,25.77a2.37,2.37,0,0,1,1,4.6L31,80.24A2.53,2.53,0,0,1,30.27,80.36ZM20.49,45.63,31.67,75l124.5-42.58Z"/><path d="M50.75,96.88a2.21,2.21,0,0,1-.76-.13,2.36,2.36,0,0,1-1.42-1.31l-8.09-19a2.37,2.37,0,0,1,4.35-1.86l7.06,16.57,91.5-51.55a2.36,2.36,0,1,1,2.32,4.12L51.91,96.57A2.29,2.29,0,0,1,50.75,96.88Z"/></g></g></svg>