<?xml version="1.0" encoding="UTF-8"?><svg id="_レイヤー_2" xmlns="http://www.w3.org/2000/svg" viewBox="0 0 54.93 54.93"><defs><style>.cls-1{fill:#1d2088;}</style></defs><g id="_10"><path class="cls-1" d="M27.46,0C12.29,0,0,12.3,0,27.46s12.29,27.46,27.46,27.46,27.46-12.3,27.46-27.46S42.63,0,27.46,0Zm.63,23.89s.01,0,.02,0c-.1-.43-.15-.88-.15-1.34,0-3.24,2.63-5.88,5.88-5.88,1.69,0,3.22,.71,4.29,1.86,1.1-.22,2.14-.59,3.1-1.09,.21-.1,.42-.21,.62-.32-.35,1.09-1.02,2.03-1.88,2.73-.22,.17-.45,.35-.69,.49,.01,0,.02,0,.03,0-.01,0-.02,.02-.03,.02,.96-.11,1.88-.35,2.76-.67,.2-.07,.4-.14,.6-.22-.79,1.17-1.78,2.2-2.92,3.02,.02,.26,.02,.51,.02,.76,0,7.77-5.91,16.73-16.73,16.73-3.32,0-6.41-.97-9.01-2.64,.46,.05,.93,.09,1.41,.09,2.01,0,3.89-.51,5.55-1.39,.04-.02,.07-.03,.11-.05,.11-.06,.21-.12,.31-.18,.46-.27,.9-.55,1.33-.88,0,0-.01,0-.02,0,0,0,.01,0,.02-.02-2.24-.04-4.18-1.34-5.14-3.23-.13-.27-.25-.55-.34-.85,.36,.07,.72,.1,1.1,.1s.76-.05,1.13-.12c.14-.02,.28-.04,.42-.07-.01,0-.02,0-.03,0,.01,0,.02,0,.04,0-2.69-.54-4.72-2.92-4.72-5.77v-.07c.63,.34,1.32,.58,2.06,.67,.2,.03,.4,.06,.6,.07,0,0-.01-.01-.02-.02,.01,0,.02,0,.03,0-1.58-1.06-2.62-2.85-2.62-4.89,0-.92,.23-1.79,.61-2.57,.06-.12,.12-.25,.19-.37,2.86,3.5,7.11,5.83,11.93,6.12,.06,0,.11,.02,.17,.02,0,0,0,0,0,0Z"/></g></svg>