<?xml version="1.0" encoding="UTF-8"?><svg id="_レイヤー_2" xmlns="http://www.w3.org/2000/svg" viewBox="0 0 54.7 54.7"><defs><style>.cls-1{fill:#1d2088;}</style></defs><g id="_10"><g><path class="cls-1" d="M18.76,43.78h17.18c4.13,0,7.49-3.36,7.49-7.49V18.42c0-4.13-3.36-7.49-7.49-7.49H18.76c-4.13,0-7.49,3.36-7.49,7.49v17.87c0,4.13,3.36,7.49,7.49,7.49ZM38.24,14.09c1.31,0,2.37,1.06,2.37,2.37s-1.06,2.37-2.37,2.37-2.37-1.06-2.37-2.37c0-1.31,1.06-2.37,2.37-2.37Zm-10.89,2.68c5.84,0,10.58,4.75,10.58,10.58s-4.75,10.58-10.58,10.58-10.58-4.75-10.58-10.58c0-5.83,4.75-10.58,10.58-10.58Z"/><path class="cls-1" d="M27.35,34.64c4.02,0,7.29-3.27,7.29-7.29s-3.27-7.28-7.29-7.28-7.28,3.27-7.28,7.28c0,4.02,3.27,7.29,7.28,7.29Z"/><path class="cls-1" d="M43.09,0H11.62C5.2,0,0,5.2,0,11.62v31.47c0,6.42,5.2,11.62,11.62,11.62h31.47c6.42,0,11.62-5.2,11.62-11.62V11.62c0-6.42-5.2-11.62-11.62-11.62ZM7.15,18.42c0-6.42,5.2-11.62,11.62-11.62h17.18c6.41,0,11.61,5.2,11.61,11.62v17.87c0,6.42-5.2,11.62-11.61,11.62H18.76c-6.42,0-11.62-5.2-11.62-11.62V18.42h0Z"/></g></g></svg>