<svg xmlns="http://www.w3.org/2000/svg" viewBox="0 0 64.67 77.68"><defs><style>.cls-1{fill:#fff5f6;}</style></defs><g id="レイヤー_2" data-name="レイヤー 2"><g id="レイヤー_1-2" data-name="レイヤー 1"><path class="cls-1" d="M24.67,37.42C17.26,36.36,7.54,36.1,1,40.3c-1.44.93-1.43,3.63.53,4,3.55.65,6.9.34,10.48.18,3.91-.17,7.76.1,11.66.19S28.86,38,24.67,37.42Z"/><path class="cls-1" d="M32.37,1.75a2.5,2.5,0,0,0-4.82,1.33c1.13,7.84.28,16.49.25,24.4,0,4.28,6.33,4.21,6.59,0C34.86,19.73,35.36,9.12,32.37,1.75Z"/><path class="cls-1" d="M61.91,37.4c-7.18-1.31-16.44-1.73-23.09,1.72-2,1-1.69,4.64.66,5,3.44.56,6.71.27,10.19.24,3.77,0,7.46.36,11.22.6C65.18,45.27,66.22,38.19,61.91,37.4Z"/><path class="cls-1" d="M36.54,53.67c-.58-2.61-4.72-2.63-5.29,0-1.44,6.68-1.07,13.81-1.64,20.61-.37,4.53,6.77,4.54,7.1,0C37.19,67.53,38,60.33,36.54,53.67Z"/></g></g></svg>