<svg xmlns="http://www.w3.org/2000/svg" viewBox="0 0 587.46 276.66"><defs><style>.cls-1{fill:#583563;}.cls-2{fill:#b17f4a;}.cls-3{fill:#ca9e67;}.cls-4{fill:#794887;}.cls-5{fill:#ff4d9d;}.cls-6{fill:#fff;}.cls-7{fill:#ff80b9;}.cls-8{fill:#c6c6c6;}.cls-9{fill:#b2b2b2;}.cls-10{fill:#f9f8ff;}.cls-11{fill:#5cb08a;}.cls-12{fill:#ededed;}.cls-13{fill:#4d9474;}.cls-14{fill:#c264a3;}.cls-15{fill:#a35489;}</style></defs><g id="レイヤー_2" data-name="レイヤー 2"><g id="レイヤー_1-2" data-name="レイヤー 1"><path class="cls-1" d="M80.57,276.66H69L55,186.17,41,276.66H29.44L48.61,152.73A5.71,5.71,0,0,1,55,148a5.7,5.7,0,0,1,6.39,4.77Z"/><path class="cls-1" d="M550,276.66H538.47l-14-90.5-14,90.5H498.91l19.17-123.93a6.67,6.67,0,0,1,12.79,0Z"/><path class="cls-2" d="M587.46,137.4a7.53,7.53,0,0,1-7.51,7.51H7.51a7.53,7.53,0,0,1,0-15.06H580A7.53,7.53,0,0,1,587.46,137.4Z"/><rect class="cls-3" x="17.42" y="144.91" width="552.62" height="17.39"/><path class="cls-1" d="M587.46,137.4a7.53,7.53,0,0,1-7.51,7.51H7.51a7.53,7.53,0,0,1,0-15.06H580A7.53,7.53,0,0,1,587.46,137.4Z"/><rect class="cls-4" x="17.42" y="144.91" width="552.62" height="17.39"/><path class="cls-5" d="M451.82,106.71c-.82-3.72-3.13-6.78-7.12-7.24a8.93,8.93,0,0,0-5,.93A51,51,0,0,0,438,94.23v-.32H406.76s-7.21,18.49,0,35.94H438v-.3a41.69,41.69,0,0,0,2.28-7.88C448,123,453.52,114.42,451.82,106.71Zm-11,10.66a55.63,55.63,0,0,0-.44-13.07c2.79-1,5.6-1.77,6.92,2.16S446.41,119.35,440.86,117.37Z"/><path class="cls-6" d="M425.26,82.31c-1.11-2.7-3.1-4.92-3.66-7.86-.85-4.52,1.35-7,2.64-11,.93-2.89.69-8.89-3.25-9.69a.69.69,0,0,0-.82.47l-.09.22a.43.43,0,0,0,.29.51c4.62,1.57-1.51,10-2.45,12.19a14.56,14.56,0,0,0-.95,7.21c.42,4.09,2.32,8.49,6.43,9.84C424.41,84.5,425.7,83.37,425.26,82.31Z"/><path class="cls-6" d="M434.06,56.66c-.17-7-5.27-12.83-5.55-19.8,0-.37-.58-.48-.67-.09-1.63,7.54,3.29,13.4,2.85,20.75-.42,7-8.42,12.61-4.56,19.86a1.32,1.32,0,0,0,2.45-.67C428.16,69.19,434.24,64,434.06,56.66Z"/><path class="cls-7" d="M411.83,98.7c0-.76-1.18-1.15-1.51-.41a35.66,35.66,0,0,0-1.11,24.08,1,1,0,0,0,2-.28c0-3.92-.45-7.82-.34-11.74S411.68,102.6,411.83,98.7Z"/><path class="cls-6" d="M156.62,6.36c-5,6.16-10.11,12.5-14,19.42a2,2,0,0,0,0,2c.15.2.41.74.75.81l.43.1a2.07,2.07,0,0,0,2.23-.91c4.66-6.05,8.91-12.35,13.77-18.26C161.57,7.31,158.42,4.14,156.62,6.36Z"/><path class="cls-6" d="M202.5,30.13c-4.88,1.68-9.42,4.87-13.87,7.46-3.85,2.23-8.79,4.19-11.25,8a.87.87,0,0,0,.74,1.29c4.52-.11,8.87-3.37,12.74-5.48,4.55-2.48,9.59-4.68,13.56-8C205.94,32.17,204.32,29.51,202.5,30.13Z"/><path class="cls-6" d="M221.26,79.93q-7.83-.3-15.64-.81c-4.47-.29-9.32-1.41-13.6.06a.92.92,0,0,0-.22,1.66c3.71,2.3,8.44,2.22,12.71,2.66,5.57.58,11.16,1,16.75,1.29C224.38,85,224.39,80,221.26,79.93Z"/><path class="cls-8" d="M226.51,129.85H146.7a3.63,3.63,0,0,1,0-7.26h79.81a3.63,3.63,0,0,1,0,7.26Z"/><path class="cls-9" d="M183.63,129.86H75.11l-15-70.67a7.43,7.43,0,0,1,7.27-9h93.34A7.45,7.45,0,0,1,168,56.11Z"/><path class="cls-8" d="M178.64,129.86H75.11l-15-70.67a7.43,7.43,0,0,1,7.27-9h88.34a7.44,7.44,0,0,1,7.28,5.89Z"/><path class="cls-10" d="M98.4,103c4.36,3.09,13.44,3.54,17.32-.57,5.42-5.74,3.37-19-4.66-21.44-5-1.51-12.7,1.54-15.93,5.66C91.28,91.55,93.68,99.65,98.4,103Z"/><path class="cls-11" d="M80.76,95.74a116.46,116.46,0,0,0,18.2.47,34.21,34.21,0,0,0,3.52-20.49c-1.17.1-17.41.35-17.44,1-.23,4.19.74,8.38-.63,12.36C84,90.25,82.44,95.91,80.76,95.74Z"/><path class="cls-12" d="M95.48,54c-5.62-.57-11.34,0-17,.24-3.13.15-7.05,0-9.57,2.26-5,4.46-.62,15.52,1.17,20.48A1,1,0,0,0,72,76.49c-.52-3-1.1-6-1.58-9.09s-.83-4.32.75-7.05c1.67-2.88,2.15-2.69,5.19-3,6.45-.57,13-.2,19.35-1.46C96.88,55.71,96.49,54.14,95.48,54Z"/><path class="cls-6" d="M151.25,74c-7.55,6-13.93,14.14-20.25,21.38-5.78,6.61-12.62,13.44-16.8,21.19a.28.28,0,0,0,.44.35c7.24-6.33,13-14.87,19.46-22,6-6.69,12.87-12.87,18.25-20C152.87,74.13,151.82,73.52,151.25,74Z"/><path class="cls-6" d="M145.7,90.39c-2.7,1.74-4.86,4.52-7,6.9a49.61,49.61,0,0,0-6.09,7.63c-.13.22.15.55.38.37A70.28,70.28,0,0,0,140,98.54c2.25-2.28,4.94-4.51,6.66-7.22A.68.68,0,0,0,145.7,90.39Z"/><path class="cls-11" d="M541.91,47.58c-2.08,4.48-6.26,7.78-7.94,12.41-1.81,4.95-.44,10.47-.93,15.71-.74,7.86-6,14.88-12.91,18.65a24.69,24.69,0,0,1-4.59,1.94c-8.36,2.56-21.4,1-27.7-5.78-2.48-2.69-4.24-6.74-5.51-10.12-2.42-6.37,1.36-11.84-.05-18.07-1-4.26-4.89-7.1-7.08-10.88-2.73-4.66-2.25-11.32,1.92-14.75,2.33-1.92,5.44-2.65,7.82-4.52,6.35-5,4.61-15.24,8.68-22.24,2.67-4.6,7.68-7.41,12.79-8.88a26.72,26.72,0,0,1,4.42-.93,16.1,16.1,0,0,1,5.23.2,10.54,10.54,0,0,1,7.26,5.13c.1.19.18.37.26.55,1.51,3.47.51,7.49,1.28,11.2a11.87,11.87,0,0,0,3.5,6.22c2.61,2.44,6.17,3.57,9,5.74A15.58,15.58,0,0,1,541.91,47.58Z"/><path class="cls-13" d="M528.89,39.71c-4.75,2.14-9.09,5.18-13.42,8.07-2.39,1.59-5.52,4.68-8.5,5.53,0-8.1.21-16.14.54-24.18.39-.31.76-.66,1.14-1a54.67,54.67,0,0,1,9.84-5.94,1,1,0,0,0-.79-1.86c-3.88,1.34-6.68,3.93-10.06,6q.39-8.62.91-17.31a.46.46,0,0,0-.9-.12,96.24,96.24,0,0,0-2.74,17.74,2.7,2.7,0,0,0-.25-.18,22.76,22.76,0,0,1-2.75-2.72A52.1,52.1,0,0,0,496.63,19c-.53-.4-1.33.4-.93.93a63.32,63.32,0,0,0,5.86,6.4c.77.78,1.91,2.54,3.17,3.24-.4,8-.22,16.06-.11,23.91a4,4,0,0,1-.84-.29c-2.89-1.39-5.4-4.21-8.33-5.75a31.69,31.69,0,0,0-10.61-3.52.61.61,0,0,0-.32,1.18c7.69,2.9,14.14,6.13,20,12l.11.07q.07,9.8-.34,19.41c-.38-.23-.8-.51-1.3-.85-3.68-2.47-8.14-4.72-12.63-4.78a.43.43,0,0,0-.22.79c3,1.53,6.29,2.4,9.26,4.06,1.37.76,3.1,2.52,4.77,3.49-.44,9.11-1.13,18.19-2,27.41-.11,1.07,1.58,1.26,1.85.25,2.3-8.74,3-18,3.15-27.19a19.64,19.64,0,0,0,3.45-2c3.54-2.08,7.1-4.12,10.59-6.27a1,1,0,0,0-1-1.73c-2.59,1.48-5.15,3-7.71,4.55a39.42,39.42,0,0,1-3.85,2.29,9.61,9.61,0,0,1-1.44.52c0-6-.13-12-.2-17.83,0-.92,0-1.84,0-2.77C514.36,51,522.42,46.55,529.67,41A.77.77,0,0,0,528.89,39.71Z"/><path class="cls-13" d="M541.91,47.58c-2.08,4.48-6.26,7.78-7.94,12.41-1.81,4.95-.44,10.47-.93,15.71-.74,7.86-6,14.88-12.91,18.65a2.51,2.51,0,0,1-.39-3.38c6.64-8.26,4.36-16.15,6.2-25.78,1.67-8.73,10.64-13.81,11.28-22.58.87-11.57-9.89-9.41-14.37-16.75-1.75-2.86-1.51-6.71-1.76-9.92-.59-7.76-2.5-12.59-10.21-15.78,0,0,0,0-.05,0a16.1,16.1,0,0,1,5.23.2,10.54,10.54,0,0,1,7.26,5.13c.1.19.18.37.26.55,1.51,3.47.51,7.49,1.28,11.2a11.87,11.87,0,0,0,3.5,6.22c2.61,2.44,6.17,3.57,9,5.74A15.58,15.58,0,0,1,541.91,47.58Z"/><polygon class="cls-14" points="524.47 129.85 488.9 129.85 484.24 95.36 527.96 95.36 524.47 129.85"/><path class="cls-15" d="M524.91,100.74H487.65a7,7,0,1,1,0-14h37.26a7,7,0,1,1,0,14Z"/><path class="cls-14" d="M514.93,89.85c-5.19-.56-10.59,0-15.81.06-4.58.07-9.28-.24-13.75.8a.69.69,0,0,0,0,1.33c4.83,1.11,9.95.67,14.88.61s10.06.17,15-.66C516.53,91.77,516.05,90,514.93,89.85Z"/></g></g></svg>