<svg xmlns="http://www.w3.org/2000/svg" width="100.776" height="102.388" viewBox="0 0 100.776 102.388">
  <g id="グループ_475" data-name="グループ 475" transform="translate(-469.241 -25.358)">
    <path id="パス_803" data-name="パス 803" d="M568.629,126.358h-98V60.189l49-33.831,49,33.831v66.169Z" fill="#fff" stroke="#31c088" stroke-linecap="round" stroke-linejoin="round" stroke-width="2"/>
    <g id="グループ_472" data-name="グループ 472">
      <rect id="長方形_1326" data-name="長方形 1326" width="88" height="57" transform="translate(475.629 43.358)" fill="#31c088"/>
      <g id="グループ_471" data-name="グループ 471">
        <circle id="楕円形_5" data-name="楕円形 5" cx="10" cy="10" r="10" transform="translate(509.629 48.358)" fill="#fff"/>
        <path id="パス_804" data-name="パス 804" d="M514.629,57.381l4,3.977,8-7" fill="none" stroke="#31c088" stroke-linecap="round" stroke-linejoin="round" stroke-width="2"/>
      </g>
      <line id="線_71" data-name="線 71" x2="69" transform="translate(485.629 73.358)" fill="none" stroke="#fff" stroke-linecap="round" stroke-linejoin="round" stroke-width="2"/>
      <line id="線_72" data-name="線 72" x2="69" transform="translate(485.629 80.358)" fill="none" stroke="#fff" stroke-linecap="round" stroke-linejoin="round" stroke-width="2"/>
      <line id="線_73" data-name="線 73" x2="69" transform="translate(485.629 87.358)" fill="none" stroke="#fff" stroke-linecap="round" stroke-linejoin="round" stroke-width="2"/>
      <line id="線_74" data-name="線 74" x2="69" transform="translate(485.629 94.358)" fill="none" stroke="#fff" stroke-linecap="round" stroke-linejoin="round" stroke-width="2"/>
    </g>
    <g id="グループ_473" data-name="グループ 473">
      <path id="パス_805" data-name="パス 805" d="M568.629,60.358v66h-98v-66l49,34.413Z" fill="#fff"/>
    </g>
    <g id="グループ_474" data-name="グループ 474">
      <path id="パス_806" data-name="パス 806" d="M568.629,60.358v66h-98v-66" fill="none" stroke="#31c088" stroke-linecap="round" stroke-linejoin="round" stroke-width="2"/>
      <line id="線_75" data-name="線 75" x2="98" y2="66" transform="translate(470.629 60.358)" fill="none" stroke="#31c088" stroke-linecap="round" stroke-linejoin="round" stroke-width="2"/>
      <line id="線_76" data-name="線 76" x1="98" y2="66" transform="translate(470.629 60.358)" fill="none" stroke="#31c088" stroke-linecap="round" stroke-linejoin="round" stroke-width="2"/>
    </g>
  </g>
</svg>
