<?xml version="1.0" encoding="UTF-8"?>
<svg id="_レイヤー_2" data-name="レイヤー 2" xmlns="http://www.w3.org/2000/svg" viewBox="0 0 351.07 58.25">
  <defs>
    <style>
      .cls-1 {
        fill: #545454;
      }
    </style>
  </defs>
  <g id="_レイヤー_1-2" data-name="レイヤー 1">
    <g>
      <g>
        <path class="cls-1" d="m11.44,36.16c-.53,2.95-1.71,6.04-3.59,8.45-.99,1.24-2.17,2.27-3.41,3.27-.99-1.28-2.98-3.02-4.44-3.73,2.27-1.49,4.05-3.55,5.12-6.04.75-1.74,1.31-3.8,1.31-8.24v-13.82h22.24v26.32c0,1.67-.07,2.45-.64,3.3-1.24,1.81-3.91,1.81-5.86,1.81-.85,0-.99,0-1.49-.04-.11-1.6-.92-4.48-1.78-5.83.67.14,2.13.39,2.91.39,1.21,0,1.28-.75,1.28-2.02v-3.84h-11.65Zm11.65-15.1h-11.26v2.52h11.26v-2.52Zm0,9.98v-2.56h-11.26v2.56h11.26Z"/>
        <path class="cls-1" d="m68.21,27.03c-1.1.92-1.85,1.71-2.84,2.88-2.59,3.05-5.19,6.14-7.74,9.27,1.1,1.07,1.99,2.03,2.88,3.27l-3.59,4.51c-3.3-4.33-6.11-7.07-10.73-10.02l3.84-3.87c1.17.75,2.27,1.56,3.34,2.42,1.78-1.92,3.41-3.94,5.01-5.97h-8.63c-2.84,3.8-5.22,6.36-8.95,9.31l-4.3-3.94c2.98-2.2,5.08-4.01,7.46-6.86,3.23-3.87,4.69-6.82,6.47-11.47,1.14.46,5.04,2.13,5.65,2.49.18.11.32.28.32.46,0,.25-.18.39-.53.53-.43.14-.53.25-.78.6-.57,1.21-1.21,2.38-1.85,3.52h5.79c1.71,0,3.77,0,4.58-.39l4.62,3.27Z"/>
      </g>
      <g>
        <path class="cls-1" d="m101.51,33.13h4.81v6.28h-4.81v8.42h-6.55v-8.42h-22.04L101.51,0v33.13Zm-6.55.13v-14.36l-10.15,14.36h10.15Z"/>
        <path class="cls-1" d="m118.68,39.48l5.88,2.27-8.28,16.5-4.41-1.8,6.81-16.97Z"/>
        <path class="cls-1" d="m137.65,45.69l10.49-13.43c-.87.2-1.6.27-2.4.27-5.28,0-8.62-2.34-10.42-4.14-2.27-2.27-4.07-5.54-4.07-10.15s1.74-8.42,4.41-11.16c2.81-2.87,6.55-4.54,11.49-4.54,6.08,0,9.62,2.47,11.49,4.41,1.87,1.94,3.87,5.14,3.87,10.09,0,3.21-.73,5.75-2.14,8.48-1.67,3.34-3.41,5.34-5.41,7.95l-12.36,15.9-4.94-3.67Zm15.57-21.64c1.67-1.74,2.61-4.28,2.61-6.61s-.94-4.74-2.61-6.35c-1.67-1.6-4.08-2.54-6.35-2.54-2.47,0-4.88,1.14-6.35,2.54-1.47,1.47-2.61,3.81-2.61,6.55,0,2.47.94,4.94,2.61,6.61,1.47,1.4,3.81,2.47,6.28,2.47,2.27,0,4.68-.87,6.41-2.67Z"/>
        <path class="cls-1" d="m196.84,28.26c1.67,2.2,2,4.68,2,6.68,0,4.54-1.74,7.62-3.54,9.49-2.07,2.2-5.41,4.14-10.49,4.14s-8.42-1.94-10.49-4.14c-1.8-1.87-3.54-4.94-3.54-9.49,0-2,.33-4.48,2-6.68,1-1.4,2.61-2.74,4.68-3.61-1.87-.8-3.14-2.14-3.94-3.34-1.14-1.8-1.6-4.07-1.6-6.08,0-3.54,1.27-6.88,3.74-9.29,1.4-1.34,4.28-3.41,9.15-3.41s7.75,2.07,9.15,3.41c2.47,2.4,3.74,5.74,3.74,9.29,0,2-.47,4.28-1.6,6.08-.8,1.2-2.07,2.54-3.94,3.34,2.07.87,3.67,2.2,4.68,3.61Zm-17.3,1.4c-1.34,1.34-2.07,3.47-2.07,5.41,0,1.74.67,3.74,2,5.21.94,1.07,2.61,2.27,5.34,2.27s4.41-1.2,5.34-2.27c1.34-1.47,2-3.47,2-5.21,0-1.94-.73-4.08-2.07-5.41s-3.34-2.07-5.28-2.07-3.94.73-5.28,2.07Zm.4-19.31c-1.14,1.14-1.87,2.94-1.87,4.94s.8,3.67,1.8,4.68c1.2,1.27,3.21,2,4.94,2s3.74-.73,4.94-2c1-1,1.8-2.61,1.8-4.68s-.73-3.81-1.87-4.94c-1.14-1.07-2.81-1.8-4.88-1.8s-3.74.73-4.88,1.8Z"/>
        <path class="cls-1" d="m212.68,43.76c-4.68-5.34-5.68-12.36-5.68-18.17s1-12.89,5.68-18.24c2.81-3.21,6.15-4.81,10.09-4.81s7.28,1.6,10.09,4.81c4.68,5.34,5.68,12.49,5.68,18.24s-1,12.83-5.68,18.17c-2.81,3.21-6.08,4.81-10.09,4.81s-7.28-1.6-10.09-4.81Zm4.08-31.53c-2.47,3.67-3.07,9.42-3.07,13.29s.6,9.62,3.07,13.36c1.94,2.94,4.28,3.67,6.01,3.67s4.07-.73,6.01-3.67c2.47-3.74,3.07-9.42,3.07-13.36s-.6-9.62-3.07-13.29c-1.94-2.94-4.28-3.67-6.01-3.67s-4.07.73-6.01,3.67Z"/>
      </g>
      <path class="cls-1" d="m253.56,34.24v13.53h-5.61v-31.44h29.87v26.61c0,1.07-.21,2.1-.89,2.95-1.17,1.53-3.94,1.81-5.93,1.81-.6,0-1.03-.04-1.63-.14-.21-2.17-.64-3.98-1.74-5.86,1.17.28,2.17.46,3.37.46,1.35,0,1.35-.46,1.35-1.39v-6.54h-18.79Zm6.64-12.75h-6.64v7.71h6.64v-7.71Zm12.15,7.71v-7.71h-6.75v7.71h6.75Z"/>
      <g>
        <path class="cls-1" d="m288.14,47.26c-1.48-1.78-2.5-3.24-3.39-5.43-.87-2.14-1.3-4.44-1.3-6.76s.43-4.62,1.3-6.76c.89-2.19,1.91-3.65,3.39-5.43l2.24,1.96c-1.17,1.45-2.01,2.63-2.73,4.39-.76,1.84-1.15,3.88-1.15,5.84s.38,4.03,1.15,5.84c.71,1.76,1.53,2.93,2.73,4.39l-2.24,1.96Z"/>
        <path class="cls-1" d="m302.8,28.57h2.27c-.54-1.07-1.53-2.65-2.27-3.57l3.11-1.66c.89.94,2.17,3.01,2.78,4.18-.82.28-1.53.64-2.29,1.05h2.27c1.22-1.61,2.09-3.37,2.78-5.25l3.93,1.35c.15.05.28.18.28.31,0,.38-.41.41-.89.41-.54,1.17-1.05,2.12-1.78,3.19h2.52v8.95h-2.83v5c0,.41,0,.66.43.66.64,0,.79-.33.99-2.63.87.71,1.99,1.53,3.01,1.96-.1.97-.48,2.14-1.05,2.96-.54.79-1.05.89-1.96.89h-2.86c-1.63,0-2.24-.87-2.24-2.42v-6.43h-2.8l2.17.66c.18.05.25.13.25.31,0,.31-.31.38-.56.41-.66,3.8-2.17,6.22-5.58,8.11-.54-.79-1.68-1.86-2.47-2.4v2.09h-3.72v-6.43c-.41.92-.82,1.81-1.3,2.7-.89-1.05-1.91-1.81-3.01-2.58,2.01-2.58,3.21-4.44,4.18-7.57h-3.34v-3.26h3.47v-1.73c-.71.15-1.4.25-2.14.33-.48-1.1-1.15-2.14-1.86-3.11,2.24-.05,6.43-.89,8.41-1.89l1.94,2.8c.05.08.08.25.08.33,0,.2-.23.28-.38.28-.18,0-.38-.13-.54-.23-.61.25-1.15.43-1.78.61v2.6h2.01v3.26h-2.01v.56c.79,1.45,1.63,2.47,2.8,3.62v-8.44Zm-2.12,11.14c-.26-.33-.48-.69-.69-1.02v5.58c1.4-.46,2.73-1.71,3.47-2.98.71-1.2.97-2.37,1.02-3.77h-1.66c-.89.76-1.45,1.27-2.14,2.19Zm5.64-5.41h5.69v-2.52h-5.69v2.52Z"/>
        <path class="cls-1" d="m328.69,35.14c1.02-1.73,1.86-4.36,2.12-6.32l1.4.28c-.03-.43-.05-1.22-.05-1.68h-3.8v-3.67h7.62c-.18.94-.23,1.89-.23,2.83,0,1.96.23,4.18.77,6.07.43,1.43,1.17,2.75,2.09,3.93.94,1.17,1.96,2.19,3.14,3.14-1.17.94-1.81,1.45-2.7,2.7-2.58-1.68-5.25-5.66-6.04-8.62-.92,2.37-1.58,3.75-3.11,5.81-.61.79-1.3,1.58-2.14,2.17-.56-.94-1.63-1.84-2.68-2.17v1.22c.33,2.01,1.73,2.14,4.77,2.14,4.79,0,7.78-.08,12.54-.46-.64,1.1-1.25,2.6-1.35,3.88h-11.7c-2.27,0-5.15-.28-6.37-2.47-.97.66-1.4.94-1.94,1.25-.64.36-1.05.59-1.48.87-.08.54-.15.87-.41.87-.2,0-.31-.15-.43-.51l-1.3-3.49c1.3-.36,2.7-1.05,3.8-1.84v-4.67h-2.68v-3.54h6.55v6.45c1.27-.94,2.83-2.8,3.62-4.16Zm-3.42-8.08c-1.02.77-1.81,1.48-2.63,2.47-1.33-1.38-2.73-2.52-4.33-3.54l2.6-2.47c1.38.87,3.24,2.35,4.36,3.54Z"/>
        <path class="cls-1" d="m346.89,40.91c.74-1.81,1.15-3.88,1.15-5.84s-.41-4-1.15-5.84c-.74-1.76-1.56-2.93-2.75-4.39l2.24-1.96c1.48,1.79,2.5,3.24,3.39,5.43.87,2.14,1.3,4.44,1.3,6.76s-.43,4.61-1.3,6.76c-.89,2.19-1.91,3.65-3.39,5.43l-2.24-1.96c1.2-1.45,2.01-2.63,2.75-4.39Z"/>
      </g>
    </g>
  </g>
</svg>