<svg xmlns="http://www.w3.org/2000/svg" viewBox="0 0 296.45 282.97"><defs><style>.cls-1{fill:#f5a784;}.cls-2{fill:#3b2645;}.cls-3{fill:#301f38;}.cls-4{fill:#512b63;}.cls-5{fill:#65367d;}.cls-6{fill:#e0855c;}.cls-7{fill:#fff;}.cls-8{fill:#311e38;}.cls-9{fill:#6c33bd;}</style></defs><g id="レイヤー_2" data-name="レイヤー 2"><g id="レイヤー_1-2" data-name="レイヤー 1"><path class="cls-1" d="M29.05,214.59s-13.17-4.54-16.84-.85S7,220.06,9.06,220.2s6.19-3.48,8.44-1.37-4.09,6.72-6.4,8.26c-3.35,2.23-5.45-1-4-3.68,1.11-2.1.06-4.53-1.34-3.07S0,230.46,8.31,232.21c0,0-9.62,9.22-8.16,10.91,1.21,1.4,11.85-8.55,11.85-8.55s-7.75,10.07-6.42,10.74,7.36-4.6,11.3-9.16c0,0-6.87,9-5,10.16,1.11.66,8.89-8.79,19.46-20.43l4.71-4.75Z"/><path class="cls-2" d="M121.18,131.49c-.32,1.9-.54,3-.54,3s-19.32,48-25.81,57.92a10.39,10.39,0,0,1-1.44,1.69c-10.66,10.45-58.61,29.53-58.61,29.53-8.5-.29-9.85-10.89-9.85-10.89l53.24-36.46s7.24-26,16.37-52.64,25.43-28,25.43-28C127.24,92.75,122.84,121.83,121.18,131.49Z"/><path class="cls-3" d="M121.18,131.49c-.32,1.9-.54,3-.54,3s-19.32,48-25.81,57.92a10.39,10.39,0,0,1-1.44,1.69c0-.28.12-.54.18-.79,1.7-6,4.56-11.52,6.92-17.25a105.61,105.61,0,0,0,7.4-30.65c.34-3.92.71-27.59,9.59-20.38A12.38,12.38,0,0,1,121.18,131.49Z"/><path class="cls-4" d="M280.77,246.82c-6.13-27-95.18-40.58-95.18-40.58-3-8.34-12-29-12-29a123.67,123.67,0,0,1-23.41,2.05v-.38s-.88.15-2.63.27c-1.75-.12-2.63-.27-2.63-.27v.38a123.67,123.67,0,0,1-23.41-2.05s-9,20.68-12,29c0,0-89,13.55-95.18,40.58l128.29,20.34,0,.78h9.94l0-.78Z"/><path class="cls-5" d="M280.07,253.19s8.67-23.34-35-18.67-104.92,24.89-104.92,24.89,15,13.09,19.47,20.88c0,0,40.42-.42,55.1-3.08S265.73,273.2,280.07,253.19Z"/><path class="cls-2" d="M163.45,77c-6.52,1.66-13.53-.33-15.75-8.08-1.89-6.61-3.93-13-9.67-17.48-2-1.59-4.4-2.8-6.13-4.71-5-5.54-2.58-12.7,2-17.63,5.77-6.24,11.8-7.24,19.77-7.64a29.74,29.74,0,0,1-4.49-5.94A10.12,10.12,0,0,1,148,8.36c1-3.94,5-6.37,8.93-7.52,3.3-1,7-1.31,10.08.14a9.9,9.9,0,0,1,4.61,12.63,18.78,18.78,0,0,1-3.92,5.47c-1.18,1.12-2.79,1.59-3.89,2.8,1.24,1.63,4,2.47,5.87,3.41a23.4,23.4,0,0,1,4,2.36c13.56,10.66,9.19,32.74-1.19,44A18.83,18.83,0,0,1,163.45,77Z"/><path class="cls-1" d="M181.08,181.29c-34.66,17.53-60.5,5.52-60.5,5.52s-1.89-40.55-5.12-49.63a33.3,33.3,0,0,1-1.17-9.53c-.18-12.46,2.31-30.08,2.31-30.08a36.08,36.08,0,0,1,10.33-3.1l1.88-.31c5.9-.89,11.26-1.15,11.26-1.15l1.7-17.48,0-.11c.86-9.07,19.65-5.13,19.65-5.13V92.82c0,.36,4.26.72,9.35,1q.84,0,1.68.12c6.13.54,12.84,1.27,14.87,2.62C191.35,99.25,178.82,171.38,181.08,181.29Z"/><path class="cls-6" d="M161.46,72.68v6.73c-7.41,6.67-16.31,7.41-20.78,7.29l1.09-11.17C145.68,70.55,157.47,72,161.46,72.68Z"/><path class="cls-1" d="M133.91,40.79c-2,2.86-2.64,8.2-2.84,14.47-.61,19,8.55,25.94,14.77,25.95,6.38,0,19.83-2.69,21.92-20.29,1.05-8.8,1-16.19-1-20.73C162.47,30.68,142.82,28.25,133.91,40.79Z"/><path class="cls-6" d="M148.35,62.74c-.83-.12-2.73.38-3.13-.52s1-5.16,1.2-5.92.42-1.57.63-2.3c-.08,0-.15-.11-.23-.15a1.86,1.86,0,0,0-.52-.2c-.78,3-1.33,6.19-2.06,9.07a.41.41,0,0,0,.4.51c1.21,0,2.4.24,3.61.25C148.66,63.48,148.78,62.81,148.35,62.74Z"/><path class="cls-2" d="M141.64,47.65c-1.18-.6-3.37-.76-4.23.46a.37.37,0,0,0,.32.55c.58,0,1.1-.31,1.68-.36a4.79,4.79,0,0,1,1.84.28C141.79,48.75,142.16,47.91,141.64,47.65Z"/><path class="cls-2" d="M157.84,49.47c-.67-1.67-3.58-1.83-4.83-.8a.47.47,0,0,0,.21.78,10.47,10.47,0,0,0,2.24,0,7,7,0,0,1,1.8.57C157.58,50.15,158,49.79,157.84,49.47Z"/><path class="cls-6" d="M150.34,67.26A8,8,0,0,1,147,68.55c-1.05,0-2.19-.46-3.19-.1a.29.29,0,0,0-.17.41c.77,1.13,2.77,1.24,4,1.13a4.45,4.45,0,0,0,3.6-1.85A.65.65,0,0,0,150.34,67.26Z"/><path class="cls-1" d="M166.41,56.77s3-7.86,7.65-3.69-1.76,15.41-8.92,14.53C165.14,67.61,164.13,59.46,166.41,56.77Z"/><path class="cls-6" d="M171.76,56.63a6.64,6.64,0,0,0-2.84,1.86,7.94,7.94,0,0,0-2.09,2.66c-.12.31.32.51.54.31.6-.57,1.09-1.24,1.66-1.85a3.68,3.68,0,0,0,1.37,1.08c.43.16.75-.37.56-.73a3.35,3.35,0,0,0-1.13-1.08,18.53,18.53,0,0,0,2.26-1.7A.34.34,0,0,0,171.76,56.63Z"/><path class="cls-2" d="M131.89,46.27S143.44,38.73,147.53,32c0,0,4.87,10.52,21.28,21.05l5.35-6.95-7.35-11.86L154,28.93l-10.4-2.37-9.82,8Z"/><path class="cls-7" d="M131,107.42s11.16,11.32,30.94,1.27-17.75,62.52-17.75,62.52S117,119.31,131,107.42Z"/><path class="cls-2" d="M198.45,209.49c-7.93,13.09-33.45,24.67-33.95,24.41s-11.69-31.05-14.76-34.12c.86.86-11.41,29.32-13,34.12-8.92-1.56-40.63-20.66-34.08-28,16.09-18,20.43-40.45,11.58-63.21-2.65-6.79-6.06-17.4-2.6-24.93s2.16-20,2.16-20a46.82,46.82,0,0,1,20.1-5c.32,0,.62,0,.94,0a40.88,40.88,0,0,1,5.2.29s.6,37.12,8.55,61.41c0,0,11.54-51.67,12.84-61.6,0,0,2.47-.24,6-.32h.62c7-.13,17.7.43,21.87,4.52,0,0,.76,17.75-1.8,33.93-5.92,37.47.47,58.88,5.73,68.43C195.35,202,200.11,206.76,198.45,209.49Z"/><path class="cls-2" d="M141.49,53.62a4.1,4.1,0,0,1-2.09,1.72,1.92,1.92,0,0,1-2.68-1.74.19.19,0,0,0-.38-.05c-.55,1.35.83,2.55,2.09,2.66A3.92,3.92,0,0,0,142.12,54,.37.37,0,0,0,141.49,53.62Z"/><path class="cls-2" d="M157.84,53.9c-.9.89-1.13,2.13-2.54,2.53a2.23,2.23,0,0,1-2.1-.47c-.56-.54-.55-1.23-.8-1.89-.08-.21-.4-.31-.52-.07-.81,1.58,1,3.33,2.48,3.47,1.74.17,4-1.51,4-3.37A.29.29,0,0,0,157.84,53.9Z"/><path class="cls-1" d="M162.16,280.45l-25.39-1.6c1-5.07,1.09-21.41,8.57-20.31,4.08.6,7.63,2.72,11.53,3.91,3.2,1,9.51,2.31,12.63,1a39.21,39.21,0,0,0,4.38-2.54c2.91-1.65,6.74-2.32,9.52-.44,1.63,1.1,2.64,2.9,3.9,4.42,4.68,5.63,12.56,7.21,19.82,8.25,1.94.28,7.47.78,7.27,3.59-.37,5.19-19.95,5.05-23.65,5.11C181.19,282,171.68,281,162.16,280.45Z"/><path class="cls-5" d="M14.86,253.19s-8.67-23.34,35-18.67S154.8,259.41,154.8,259.41s1.68,15.77-2.8,23.56c0,0-57.1-3.1-71.77-5.76S29.2,273.2,14.86,253.19Z"/><path class="cls-1" d="M269.36,220.53s13.45-3.64,16.86.29,4.8,6.66,2.71,6.66-5.94-3.9-8.33-1.94,3.63,7,5.83,8.67c3.19,2.45,5.5-.59,4.25-3.4-1-2.17.25-4.52,1.55-3s5.07,10.49-3.37,11.67c0,0,9,9.85,7.41,11.43-1.3,1.32-11.25-9.33-11.25-9.33s7.06,10.57,5.68,11.15-7-5.09-10.65-9.9c0,0,6.25,9.45,4.26,10.47-1.15.59-8.28-9.36-18-21.7l-4.39-5Z"/><path class="cls-2" d="M186.74,95s16.11,3.26,23.42,30.46S222.93,179,222.93,179l50.66,40s-2,10.49-10.56,10.2c0,0-52-24.89-57.8-35.21s-21.84-59.53-21.84-59.53S178.3,90.89,186.74,95Z"/><path class="cls-8" d="M173.54,109.83c-6.14,16.12-16.9,30-24.77,45.36-3.63-3.52-17.54-30.33-19.21-40a3.83,3.83,0,0,1,0-1.78,4.11,4.11,0,0,1,1.3-1.75,32.15,32.15,0,0,1,5.52-4,36.08,36.08,0,0,1-9-2.39,47.06,47.06,0,0,1,7.53-12.52,40.88,40.88,0,0,1,5.2.29s.6,37.12,8.55,61.41c0,0,11.54-51.67,12.84-61.6,0,0,2.47-.24,6-.32h.62c.28.43.54.89.77,1.33,1.51,2.81,2.56,5.85,4.38,8.46a36.41,36.41,0,0,0-7.93,5.56Z"/><path class="cls-9" d="M164.73,21.39a40.14,40.14,0,0,0-9.06-1.19A15.66,15.66,0,0,0,152,20a1.07,1.07,0,0,0-.28,2.1l.1,0a.84.84,0,0,0,.28.15,8.62,8.62,0,0,0,1,.21.58.58,0,0,0,.14,0l.28.05c1.38.26,2.82.34,4.18.51l6.66.83C165.83,24.11,166.14,21.69,164.73,21.39Z"/><path class="cls-8" d="M150,177.88c-.17-5.47-.23-11-.78-16.42a.41.41,0,0,0-.82,0c-.24,5.47,0,10.95.15,16.42.13,5-.08,10.28.9,15.23,0,.24.47.26.51,0C150.67,188.12,150.18,182.9,150,177.88Z"/><path class="cls-8" d="M157.19,174.89a1.32,1.32,0,0,0-2.06-.41,1.37,1.37,0,0,0-.15.21,1.87,1.87,0,0,0-.4,2.56c.74,1,1.67.6,2.22-.17a1.62,1.62,0,0,0,.44-.35A1.43,1.43,0,0,0,157.19,174.89Z"/></g></g></svg>