<svg xmlns="http://www.w3.org/2000/svg" viewBox="0 0 1193.15 177.5"><defs><style>.cls-1,.cls-2,.cls-3,.cls-4,.cls-5,.cls-6,.cls-7,.cls-8,.cls-9{fill:none;stroke-width:7px;}.cls-1,.cls-8{stroke:#91465f;}.cls-1,.cls-2,.cls-3,.cls-4,.cls-6{stroke-miterlimit:10;}.cls-2,.cls-9{stroke:#e5593c;}.cls-3{stroke:#f09345;}.cls-4,.cls-5{stroke:#ba99b0;}.cls-5,.cls-7,.cls-8,.cls-9{stroke-linecap:round;stroke-linejoin:round;}.cls-6,.cls-7{stroke:#edbfb7;}</style></defs><g id="レイヤー_2" data-name="レイヤー 2"><g id="レイヤー_1-2" data-name="レイヤー 1"><path d="M297.14,88a6.26,6.26,0,0,1,2.48,1.27,5.47,5.47,0,0,1,1.27,6.8,5.36,5.36,0,0,1-1.92,2,5.73,5.73,0,0,1-3.11.79,5.15,5.15,0,0,1-4-1.53,1.05,1.05,0,0,1-.26-.71,1.22,1.22,0,0,1,.42-.91,1,1,0,0,1,.7-.26,1.18,1.18,0,0,1,.83.32,3.9,3.9,0,0,0,1.13.62,3.71,3.71,0,0,0,1.21.21,3.84,3.84,0,0,0,1.69-.37,3.27,3.27,0,0,0,1.27-1,2.5,2.5,0,0,0,.5-1.52,2,2,0,0,0,0-.25.78.78,0,0,0,0-.22,3.67,3.67,0,0,0-1.53-2.55,5.33,5.33,0,0,0-3.09-.86,10.05,10.05,0,0,0-2.34.31,12,12,0,0,0-2.55,1,.27.27,0,0,0-.18.26c0,.85,0,1.7,0,2.56s-.09,1.7-.18,2.51c-.21,1.6-1,2.39-2.26,2.39a5.16,5.16,0,0,1-1.88-.41,9.66,9.66,0,0,1-2.14-1.21,2.08,2.08,0,0,1-.9-1.7,2.93,2.93,0,0,1,.47-1.45,8,8,0,0,1,1.56-1.78,22.45,22.45,0,0,1,2.94-2.24.36.36,0,0,0,.15-.28c0-.69,0-1.37-.07-2s-.08-1.28-.13-1.91c0-.14-.11-.2-.26-.18a35.9,35.9,0,0,1-4.32.47,1,1,0,0,1-.82-.31,1.2,1.2,0,0,1-.32-.83,1,1,0,0,1,.32-.76,1.18,1.18,0,0,1,.74-.34c.71,0,1.42-.09,2.12-.17s1.38-.17,2-.29c.17,0,.24-.14.21-.29-.11-.71-.22-1.38-.34-2s-.25-1.2-.39-1.72a.4.4,0,0,1,0-.15v-.14a1.11,1.11,0,0,1,.29-.76,1,1,0,0,1,.78-.33,1.27,1.27,0,0,1,.71.22,1,1,0,0,1,.43.64c.14.5.27,1.07.39,1.7s.24,1.31.34,2c0,.17.12.23.26.18.4-.1.78-.22,1.14-.34s.71-.25,1-.39a1.5,1.5,0,0,1,.45-.07,1.22,1.22,0,0,1,.62.16,1.08,1.08,0,0,1,.42.48,1.2,1.2,0,0,1,.1.47,1,1,0,0,1-.68,1c-.45.18-.91.34-1.39.51s-1,.31-1.47.45c-.15,0-.21.12-.18.26,0,.52.07,1.05.12,1.58s.07,1.07.09,1.62c0,.19.15.24.34.16a12.53,12.53,0,0,1,4.81-1A10,10,0,0,1,297.14,88Zm-12.09,7.91,1.26.64a1.73,1.73,0,0,0,.61.22.21.21,0,0,0,.23-.22c0-.15,0-.36.06-.64s.06-.72.07-1.27,0-1.11.05-1.64c0-.23-.09-.28-.28-.16-.38.28-.74.56-1.07.85a10.21,10.21,0,0,0-.88.84c-.42.42-.62.71-.62.88a.29.29,0,0,0,.15.26A4.44,4.44,0,0,0,285.05,95.88Zm17.11-10.66a1,1,0,0,1,.46.91,1.17,1.17,0,0,1-.23.7,1,1,0,0,1-.86.44,1,1,0,0,1-.67-.23A9.59,9.59,0,0,0,296,85.37a1.2,1.2,0,0,1-.73-.37,1,1,0,0,1-.31-.74,1.08,1.08,0,0,1,.36-.83,1,1,0,0,1,.86-.29,12,12,0,0,1,3.23.65A10.4,10.4,0,0,1,302.16,85.22Z"/><path d="M316.74,79.47v5.78A1.71,1.71,0,0,1,315,87h-5.26c-.1,0-.15.05-.15.16V98.87a1.11,1.11,0,0,1-1.09,1.09,1.11,1.11,0,0,1-.8-.32,1.09,1.09,0,0,1-.32-.77V79.47a1.68,1.68,0,0,1,.49-1.21,1.67,1.67,0,0,1,1.22-.5H315a1.72,1.72,0,0,1,1.71,1.71Zm-2.29,1.82c.11,0,.16-.05.16-.15V80.07a.14.14,0,0,0-.16-.16h-4.68a.14.14,0,0,0-.15.16v1.07a.13.13,0,0,0,.15.15Zm-4.68,2.14a.13.13,0,0,0-.15.15v1.09c0,.11.05.16.15.16h4.68a.14.14,0,0,0,.16-.16V83.58c0-.1-.05-.15-.16-.15Zm5.13,5.3h5.51a1.69,1.69,0,0,1,1.71,1.72v4.78A1.71,1.71,0,0,1,320.41,97H314.9a1.66,1.66,0,0,1-1.21-.5,1.64,1.64,0,0,1-.51-1.22V90.45a1.71,1.71,0,0,1,1.72-1.72Zm.46,5.9a.14.14,0,0,0,.16.16h4.26a.14.14,0,0,0,.16-.16V91c0-.1-.05-.15-.16-.15h-4.26a.14.14,0,0,0-.16.15Zm4.92-16.87h5.9a1.72,1.72,0,0,1,1.72,1.71V97.08q0,3.19-4.19,3a1.08,1.08,0,0,1-.78-.38,1.16,1.16,0,0,1-.31-.82,1.1,1.1,0,0,1,.36-.78,1.09,1.09,0,0,1,.81-.28,11.46,11.46,0,0,0,1.26,0,.68.68,0,0,0,.52-.2.85.85,0,0,0,.12-.48v-10a.14.14,0,0,0-.16-.16h-5.25a1.67,1.67,0,0,1-1.21-.49,1.64,1.64,0,0,1-.51-1.22V79.47a1.69,1.69,0,0,1,.5-1.21A1.64,1.64,0,0,1,320.28,77.76Zm5.25,3.53a.14.14,0,0,0,.16-.15V80.07a.15.15,0,0,0-.16-.16h-4.68a.15.15,0,0,0-.16.16v1.07a.14.14,0,0,0,.16.15Zm-4.68,2.14a.14.14,0,0,0-.16.15v1.09a.14.14,0,0,0,.16.16h4.68a.14.14,0,0,0,.16-.16V83.58a.14.14,0,0,0-.16-.15Z"/><path d="M333.64,88.05a.85.85,0,0,1-.39.08,1,1,0,0,1-.73-.3,1.07,1.07,0,0,1-.31-.79,1.31,1.31,0,0,1,.22-.7,1.41,1.41,0,0,1,.59-.52,22.28,22.28,0,0,0,2.56-1.48c.87-.59,1.73-1.24,2.57-1.93a30.43,30.43,0,0,0,2.35-2.13c.73-.73,1.37-1.41,1.9-2.06a1.48,1.48,0,0,1,1.15-.54,1.35,1.35,0,0,1,1.06.47c.56.57,1.2,1.19,1.94,1.87s1.54,1.36,2.41,2.07,1.76,1.36,2.69,2a26.91,26.91,0,0,0,2.74,1.65,1.23,1.23,0,0,1,.73,1.17,1.18,1.18,0,0,1-.31.82,1,1,0,0,1-.73.32.52.52,0,0,1-.21,0l-.21-.06a24,24,0,0,1-2.46-1.41q-1.33-.86-2.7-1.89t-2.61-2.13a30,30,0,0,1-2.19-2.11c-.07-.11-.14-.11-.2,0a24.91,24.91,0,0,1-2.11,2.2c-.82.75-1.68,1.48-2.59,2.18s-1.81,1.34-2.7,1.91A18.3,18.3,0,0,1,333.64,88.05Zm15.71,11.57H338a1.67,1.67,0,0,1-1.21-.49,1.64,1.64,0,0,1-.51-1.22V91.59a1.68,1.68,0,0,1,.5-1.21,1.61,1.61,0,0,1,1.22-.51h11.39a1.63,1.63,0,0,1,1.2.51,1.65,1.65,0,0,1,.51,1.21v6.32a1.68,1.68,0,0,1-.49,1.21A1.67,1.67,0,0,1,349.35,99.62Zm-.84-11.83h-9.72a1,1,0,0,1-.79-.34,1.06,1.06,0,0,1-.33-.77,1.11,1.11,0,0,1,.33-.79,1.06,1.06,0,0,1,.79-.33h9.72a1.1,1.1,0,0,1,.78.32,1.05,1.05,0,0,1,.34.8,1.09,1.09,0,0,1-.32.77A1.05,1.05,0,0,1,348.51,87.79Zm-9.85,4.32a.14.14,0,0,0-.16.16v5a.14.14,0,0,0,.16.15h10c.11,0,.16,0,.16-.15v-5a.14.14,0,0,0-.16-.16Z"/><path d="M379.12,87.25a5.44,5.44,0,0,1,.65,1.41A6.39,6.39,0,0,1,380,90.5a6.57,6.57,0,0,1-.38,2.13,6.87,6.87,0,0,1-1.25,2.14,8.56,8.56,0,0,1-2.35,1.92,15.28,15.28,0,0,1-3.69,1.43l-.13,0h-.13a1.09,1.09,0,0,1-.78-.31,1,1,0,0,1-.34-.78,1.2,1.2,0,0,1,.24-.72,1.16,1.16,0,0,1,.67-.42,15.51,15.51,0,0,0,2-.72,9.65,9.65,0,0,0,1.92-1.12,5.59,5.59,0,0,0,1.43-1.53,3.66,3.66,0,0,0,.55-2,4,4,0,0,0-.08-.76,3.77,3.77,0,0,0-1.37-2.42,4.26,4.26,0,0,0-2.66-.83,8.32,8.32,0,0,0-2.92.6,14,14,0,0,0-3.3,1.87.34.34,0,0,0-.15.29c0,1.51,0,3,.08,4.43s.07,2.75.12,3.91a1.08,1.08,0,0,1-.32.85,1.18,1.18,0,0,1-.87.35,1.06,1.06,0,0,1-.74-.3,1,1,0,0,1-.35-.77c0-.9-.07-1.89-.11-3s-.06-2.18-.07-3.33a.26.26,0,0,0-.08-.21c-.05,0-.12,0-.21.08l-.68.7c-.22.25-.45.51-.67.78a1,1,0,0,0-.16.21c-.43.68-.89,1.34-1.38,2a1,1,0,0,1-.86.45,1.17,1.17,0,0,1-.7-.26,1,1,0,0,1-.39-.84,1.14,1.14,0,0,1,.24-.72c.53-.7,1.09-1.48,1.66-2.36s1.13-1.75,1.68-2.62,1-1.65,1.44-2.31a.63.63,0,0,0,.08-.28v-.24c0-.19-.09-.26-.26-.2a15.18,15.18,0,0,1-4.26.72,1,1,0,0,1-.8-.29,1.15,1.15,0,0,1,0-1.58,1.14,1.14,0,0,1,.78-.36,12.84,12.84,0,0,0,2.39-.3,18.14,18.14,0,0,0,2-.59.27.27,0,0,0,.18-.28c0-.81,0-1.58.05-2.3s0-1.34,0-1.86a1.1,1.1,0,0,1,.35-.75,1.09,1.09,0,0,1,.77-.32,1.11,1.11,0,0,1,.83.35,1.14,1.14,0,0,1,.34.82c0,.45,0,1,0,1.6s0,1.28,0,2a.27.27,0,0,0,.18.26,1.55,1.55,0,0,1,.8.69,2.06,2.06,0,0,1,.27,1A2,2,0,0,1,368,86h.13l.14,0a.47.47,0,0,0,.17,0,15,15,0,0,1,2.72-1.11,9.2,9.2,0,0,1,2.59-.39,6.6,6.6,0,0,1,3,.67A6,6,0,0,1,379.12,87.25Z"/><path d="M404.91,83.71a1.09,1.09,0,0,1,.74.34,1.05,1.05,0,0,1,.3.75,1.1,1.1,0,0,1-.35.81,1.18,1.18,0,0,1-.82.34c-.59,0-1.21,0-1.86,0l-2,.09a.24.24,0,0,0-.24.26c0,.71.06,1.35.07,1.91s0,1,0,1.24a4.41,4.41,0,0,1-.9,3,3.26,3.26,0,0,1-2.58,1,6,6,0,0,1-.91-.08c-.33,0-.68-.12-1-.21a1.07,1.07,0,0,1-.59-.4,1,1,0,0,1-.22-.64,1.06,1.06,0,0,1,.36-.84,1.25,1.25,0,0,1,.86-.33h.13a.45.45,0,0,1,.16,0,5.2,5.2,0,0,0,1.22.18c.55,0,.9-.16,1-.5a3.55,3.55,0,0,0,.19-1.29c0-.25,0-.62,0-1.14s0-1.08,0-1.73c0-.19-.08-.26-.23-.23l-2.76.31-2.83.32a.23.23,0,0,0-.24.26v6.13a6.37,6.37,0,0,0,.24,2,1.57,1.57,0,0,0,.9,1,5.29,5.29,0,0,0,2,.3c.71,0,1.61-.06,2.68-.16s2.37-.24,3.88-.41a1.07,1.07,0,0,1,.88.27,1.09,1.09,0,0,1,.36.84,1.19,1.19,0,0,1-.31.81,1.16,1.16,0,0,1-.78.41l-3.77.36c-1.09.09-2,.14-2.86.14a6.06,6.06,0,0,1-3.92-1,3.79,3.79,0,0,1-1.33-2.29,16.73,16.73,0,0,1-.26-3V87.38c0-.18-.08-.25-.23-.21l-1.77.09c-.59,0-1.18,0-1.77,0a1.12,1.12,0,0,1-.74-.33,1,1,0,0,1-.33-.76,1.12,1.12,0,0,1,.34-.82,1.17,1.17,0,0,1,.81-.32c.6,0,1.19,0,1.77,0l1.69-.06a.21.21,0,0,0,.23-.24V80.3a1.13,1.13,0,0,1,.32-.8,1.07,1.07,0,0,1,.8-.34,1.09,1.09,0,0,1,.8.33,1.06,1.06,0,0,1,.34.81v4.24q0,.24.24.21l2.82-.31c.91-.1,1.81-.22,2.71-.34a.24.24,0,0,0,.21-.26l-.13-4.47a1.15,1.15,0,0,1,.34-.86,1.14,1.14,0,0,1,.83-.34,1.07,1.07,0,0,1,.78.33,1,1,0,0,1,.34.77l.13,4.34c0,.15.08.22.23.21l2-.1C403.56,83.7,404.23,83.69,404.91,83.71Z"/><path d="M552.1,96.89a1.26,1.26,0,0,1-.29.82,1.07,1.07,0,0,1-.73.41c-.55.06-1.23.13-2,.19s-1.66.11-2.57.14l-2.71.09c-.89,0-1.72,0-2.48,0a5.77,5.77,0,0,1-4.11-1.26A4.94,4.94,0,0,1,536,93.41V81a1.11,1.11,0,0,1,.35-.83,1.14,1.14,0,0,1,.82-.34,1.07,1.07,0,0,1,.83.35,1.13,1.13,0,0,1,.34.82v5.35q0,.24.24.21a40,40,0,0,0,5.5-.83A34,34,0,0,0,549.45,84a1.14,1.14,0,0,1,.41-.07,1.13,1.13,0,0,1,.79.31,1.05,1.05,0,0,1,.35.86,1.25,1.25,0,0,1-.22.7,1.16,1.16,0,0,1-.58.47,41.12,41.12,0,0,1-5.62,1.7,43.13,43.13,0,0,1-6,.92.24.24,0,0,0-.24.26v4.27a4.81,4.81,0,0,0,.26,1.84,1.32,1.32,0,0,0,.91.74,9,9,0,0,0,1.8.22,5.79,5.79,0,0,0,.61,0h.69c.83,0,1.75,0,2.75-.07s2-.1,3-.16,1.79-.16,2.47-.26a1.16,1.16,0,0,1,.91.27A1.05,1.05,0,0,1,552.1,96.89Z"/><path d="M576.38,80.36a3.23,3.23,0,0,1,2.24.78,2.28,2.28,0,0,1,.67,1.64,3.39,3.39,0,0,1-.44,1.63,5,5,0,0,1-1.19,1.48,14.92,14.92,0,0,1-1.72,1.21c-.71.45-1.46.88-2.25,1.3s-1.54.81-2.25,1.14a.32.32,0,0,0-.18.25q-.68,5.49-6.32,8.87a1,1,0,0,1-.57.16,1,1,0,0,1-1-.6,1.19,1.19,0,0,1-.16-.55,1.11,1.11,0,0,1,.63-1A12.3,12.3,0,0,0,567.07,94a8.21,8.21,0,0,0,1.59-2.82,9.88,9.88,0,0,0,.44-2.85c0-.35,0-.69-.05-1s-.08-.68-.13-1a1,1,0,0,1,.26-.89A1.08,1.08,0,0,1,570,85a1.25,1.25,0,0,1,.81.3,1.09,1.09,0,0,1,.41.76c0,.12,0,.25,0,.37s0,.24,0,.36.13.24.29.16c.55-.26,1.13-.55,1.73-.87s1.15-.65,1.66-1a7.52,7.52,0,0,0,1.18-.87,1.71,1.71,0,0,0,.73-1.14c0-.43-.35-.63-1-.6-1,0-2,.08-3.17.2s-2.32.23-3.54.37-2.4.26-3.57.35-2.28.15-3.32.15h-.56a4.58,4.58,0,0,1-.53,0,1.14,1.14,0,0,1-.78-.36,1.12,1.12,0,0,1-.31-.78,1.15,1.15,0,0,1,.35-.86,1.06,1.06,0,0,1,.85-.31c.24,0,.49,0,.75,0h.75c1.3,0,2.6-.05,3.89-.15s2.54-.23,3.74-.37,2.32-.25,3.34-.33A19,19,0,0,1,576.38,80.36Z"/><path d="M593.49,91.82a1.18,1.18,0,0,1-.75.26,1.12,1.12,0,0,1-.94-.46,9.32,9.32,0,0,1-1.17-2.53,15.41,15.41,0,0,1-.57-3,28.5,28.5,0,0,1-.16-3c0-.91,0-1.77.08-2.57a1.18,1.18,0,0,1,.36-.78,1.1,1.1,0,0,1,.81-.34,1,1,0,0,1,.84.37,1.1,1.1,0,0,1,.28.88c0,.42-.07.86-.09,1.33s0,.94,0,1.43a20.32,20.32,0,0,0,.32,3.53,8.66,8.66,0,0,0,1.24,3.2,1.47,1.47,0,0,1,.21.75A1.1,1.1,0,0,1,593.49,91.82Zm-.16,7.41a.91.91,0,0,1-.41.08,1.16,1.16,0,0,1-.78-.31,1.05,1.05,0,0,1-.37-.86,1.19,1.19,0,0,1,.76-1.17,12.77,12.77,0,0,0,4.09-2.9,9.12,9.12,0,0,0,2-3.56,14.5,14.5,0,0,0,.56-4.12,27.57,27.57,0,0,0-.22-3.45c-.15-1.18-.31-2.39-.48-3.62a1.13,1.13,0,0,1,.26-.87,1,1,0,0,1,.81-.38,1.29,1.29,0,0,1,.76.23,1.12,1.12,0,0,1,.43.65c.19.84.37,1.88.54,3.15a31.06,31.06,0,0,1,.24,3.9,25.81,25.81,0,0,1-.2,3.2,11.53,11.53,0,0,1-.71,2.78A12.65,12.65,0,0,1,593.33,99.23Z"/><path d="M620,86.88a1.07,1.07,0,0,1-.83.34,1.24,1.24,0,0,1-.89-.34,8.48,8.48,0,0,0-4.47-2,1.32,1.32,0,0,1-.74-.42,1.16,1.16,0,0,1-.3-.78,1.22,1.22,0,0,1,1.35-1.25,10.5,10.5,0,0,1,3.29,1,13,13,0,0,1,2.54,1.62,1.19,1.19,0,0,1,.41.91A1.35,1.35,0,0,1,620,86.88Zm-5.85,10.9-.21,0a1.1,1.1,0,0,1-.81-.34,1.14,1.14,0,0,1-.34-.83,1.27,1.27,0,0,1,.29-.8,1.25,1.25,0,0,1,.75-.47,26.73,26.73,0,0,0,3.74-1.24A28.7,28.7,0,0,0,621.62,92a27.15,27.15,0,0,0,4-3,26.27,26.27,0,0,0,3.63-3.93,1.13,1.13,0,0,1,1-.5,1.25,1.25,0,0,1,.76.26,1.31,1.31,0,0,1,.49,1,1.21,1.21,0,0,1-.26.73,27.69,27.69,0,0,1-3.35,3.67,35.63,35.63,0,0,1-4.18,3.26A31.07,31.07,0,0,1,619,96.16,24.54,24.54,0,0,1,614.11,97.78Z"/><path d="M648,81.66a.25.25,0,0,0,0,.13q0,.15.21.15h3.12a3.65,3.65,0,0,1,2.83.94,3.25,3.25,0,0,1,.83,2.26,5.67,5.67,0,0,1-.18,1.37,7.93,7.93,0,0,1-.49,1.39A21.35,21.35,0,0,1,650,94.29a23.42,23.42,0,0,1-6.45,4.58,1.07,1.07,0,0,1-.49.1,1.06,1.06,0,0,1-1.07-.7,1,1,0,0,1-.1-.47,1.21,1.21,0,0,1,.67-1.09,20.89,20.89,0,0,0,4.7-3,18.1,18.1,0,0,0,3.05-3.38,17.22,17.22,0,0,0,1.8-3.34c.15-.4.27-.74.36-1a2.51,2.51,0,0,0,.13-.74.8.8,0,0,0-.34-.74,1.82,1.82,0,0,0-1-.22h-4.53a.36.36,0,0,0-.28.15A34.75,34.75,0,0,1,644,87.94a22.15,22.15,0,0,1-2.66,2.82,1.12,1.12,0,0,1-.73.28,1.19,1.19,0,0,1-.94-.44,1.05,1.05,0,0,1-.26-.73,1.19,1.19,0,0,1,.44-1,18.59,18.59,0,0,0,2.2-2.3A30,30,0,0,0,644,83.93c.6-.92,1.13-1.83,1.6-2.73a21.85,21.85,0,0,0,1.12-2.45,1.16,1.16,0,0,1,1.51-.68,1.25,1.25,0,0,1,.78,1.2,1.18,1.18,0,0,1-.08.39c-.12.32-.26.65-.42,1S648.21,81.31,648,81.66Zm6.81-2.21A11.38,11.38,0,0,1,656,80.79c.39.51.74,1,1.05,1.49a.64.64,0,0,1,.13.44.81.81,0,0,1-.36.73.78.78,0,0,1-.44.13.79.79,0,0,1-.7-.39,14,14,0,0,0-1-1.36,15,15,0,0,0-1.05-1.19,1,1,0,0,1-.26-.62.78.78,0,0,1,.23-.55.83.83,0,0,1,.63-.26A.78.78,0,0,1,654.85,79.45ZM659,81.16a.73.73,0,0,1,.13.45.79.79,0,0,1-.37.7.7.7,0,0,1-.44.13.75.75,0,0,1-.68-.39,13.16,13.16,0,0,0-1-1.34c-.38-.46-.72-.85-1-1.16a.81.81,0,0,1-.23-.57.67.67,0,0,1,.23-.55.83.83,0,0,1,.6-.26.81.81,0,0,1,.6.24,10.54,10.54,0,0,1,1.15,1.3A15.86,15.86,0,0,1,659,81.16Z"/><path d="M801.32,86.21a1.07,1.07,0,0,1,.79.33,1.09,1.09,0,0,1,.32.79,1.16,1.16,0,0,1-.33.83,1.14,1.14,0,0,1-.81.34h-6.37c-.16,0-.23.07-.23.23a14.23,14.23,0,0,1-.6,4.42,9.56,9.56,0,0,1-1.69,3.14,15.64,15.64,0,0,1-2.55,2.45.88.88,0,0,1-.62.21,1,1,0,0,1-.94-.55,1.49,1.49,0,0,1-.16-.65,1.24,1.24,0,0,1,.5-1A10.28,10.28,0,0,0,791,94.21a7.47,7.47,0,0,0,1-2.58,18.29,18.29,0,0,0,.27-2.87.21.21,0,0,0-.23-.24c-1.46,0-2.86,0-4.2.1s-2.48.13-3.39.21a1.06,1.06,0,0,1-.82-.28,1,1,0,0,1-.35-.78,1.23,1.23,0,0,1,.33-.86,1.2,1.2,0,0,1,.81-.39c.78,0,1.69-.11,2.73-.16s2.15-.09,3.33-.11l3.57-.07c1.21,0,2.36,0,3.45,0h2.05ZM787,83.11a1,1,0,0,1-.81-.3,1.06,1.06,0,0,1-.33-.79,1.16,1.16,0,0,1,.32-.83,1.13,1.13,0,0,1,.82-.36c.76,0,1.72-.07,2.86-.08s2.31,0,3.48,0c1,0,1.94,0,2.84,0s1.66,0,2.29.08a1.07,1.07,0,0,1,.76.37,1.17,1.17,0,0,1,.33.82,1.08,1.08,0,0,1-.34.82,1,1,0,0,1-.83.3c-.66,0-1.5-.06-2.51-.08s-2.06,0-3.13,0h-3.16C788.56,83.06,787.7,83.08,787,83.11Zm13.18-4.36a12.28,12.28,0,0,1,1.2,1.33c.4.52.75,1,1.06,1.5a.64.64,0,0,1,.14.44.78.78,0,0,1-.37.7.64.64,0,0,1-.44.13.77.77,0,0,1-.7-.36,13.81,13.81,0,0,0-1-1.38c-.38-.47-.73-.87-1-1.2a.82.82,0,0,1-.26-.59.78.78,0,0,1,.23-.55.79.79,0,0,1,.6-.26A.75.75,0,0,1,800.17,78.75Zm4.21,1.69a.64.64,0,0,1,.13.44.81.81,0,0,1-.36.73.87.87,0,0,1-.44.13.75.75,0,0,1-.68-.39,13.16,13.16,0,0,0-1-1.34c-.38-.46-.72-.85-1-1.16a.93.93,0,0,1-.23-.57.82.82,0,0,1,.23-.58.85.85,0,0,1,.6-.23.81.81,0,0,1,.57.23A12.62,12.62,0,0,1,803.37,79,15.08,15.08,0,0,1,804.38,80.44Z"/><path d="M827.92,83.82a1.06,1.06,0,0,1,.84.31,1.15,1.15,0,0,1,.35.86,1,1,0,0,1-.31.76,1.09,1.09,0,0,1-.78.35l-1.7.06-2.07,0a.21.21,0,0,0-.24.23,32.81,32.81,0,0,1-.35,3.83,14.19,14.19,0,0,1-.93,3.4,10,10,0,0,1-1.91,2.94A12,12,0,0,1,817.54,99a1.11,1.11,0,0,1-.52.13,1.19,1.19,0,0,1-.6-.17.92.92,0,0,1-.41-.48,1.11,1.11,0,0,1-.13-.52,1.12,1.12,0,0,1,.65-1,9.49,9.49,0,0,0,3.25-2.69,9.17,9.17,0,0,0,1.49-3.47,25.37,25.37,0,0,0,.48-4.35.21.21,0,0,0-.23-.23H816.4a.21.21,0,0,0-.24.23c0,1.12,0,2.09.08,2.94a12.26,12.26,0,0,0,.36,2.37.83.83,0,0,1,0,.15,1,1,0,0,1,0,.16,1,1,0,0,1-.33.77,1.12,1.12,0,0,1-.84.32,1.19,1.19,0,0,1-.67-.19,1.1,1.1,0,0,1-.43-.54,11.57,11.57,0,0,1-.44-2.62c-.07-1-.11-2.16-.13-3.36a.2.2,0,0,0-.23-.23l-2,0c-.61,0-1.18,0-1.72.07a1.14,1.14,0,0,1-1.19-1.15,1.12,1.12,0,0,1,.31-.78,1.1,1.1,0,0,1,.78-.36l1.78,0h2c.16,0,.23-.08.23-.24v-1c0-.5,0-1,0-1.44s0-.92,0-1.37a1,1,0,0,1,.34-.8,1.12,1.12,0,0,1,.81-.31,1.09,1.09,0,0,1,.8.33,1.17,1.17,0,0,1,.36.81c.06,1.42.08,2.69.08,3.8a.21.21,0,0,0,.24.23h5.14a.21.21,0,0,0,.24-.23V81.58c0-.73,0-1.48,0-2.26a1.17,1.17,0,0,1,.37-.82,1.09,1.09,0,0,1,.8-.33,1.11,1.11,0,0,1,.81.34,1,1,0,0,1,.31.81c0,.74,0,1.48,0,2.21s0,1.44,0,2.13c0,.16.11.23.34.23l2,0C826.92,83.85,827.45,83.83,827.92,83.82Zm-.63-1.2c-.28-.43-.6-.88-1-1.35a15.42,15.42,0,0,0-1.06-1.2.83.83,0,0,1-.26-.6.78.78,0,0,1,.24-.57.85.85,0,0,1,.62-.26.78.78,0,0,1,.57.23,15.25,15.25,0,0,1,1.2,1.37c.4.51.75,1,1.07,1.47a.7.7,0,0,1,.13.44.78.78,0,0,1-.4.73A.64.64,0,0,1,828,83,.77.77,0,0,1,827.29,82.62Zm3.35-2a.82.82,0,0,1,.14.44.78.78,0,0,1-.4.71.65.65,0,0,1-.44.15.78.78,0,0,1-.67-.39,12.61,12.61,0,0,0-1-1.35c-.36-.45-.7-.84-1-1.17a.76.76,0,0,1-.26-.57.78.78,0,0,1,.23-.55,1,1,0,0,1,.6-.23.79.79,0,0,1,.6.23,11.38,11.38,0,0,1,1.16,1.3C830,79.65,830.33,80.12,830.64,80.59Z"/><path d="M850.14,78.69a1.15,1.15,0,0,1,.55.46,1.26,1.26,0,0,1,.18.66,1,1,0,0,1-.1.47,21.22,21.22,0,0,1-1.5,2.63,26.69,26.69,0,0,1-2.06,2.72.28.28,0,0,0-.08.32,8.91,8.91,0,0,1,.41,2,23.06,23.06,0,0,1,.13,2.64c0,1,0,2.08-.1,3.3s-.17,2.55-.31,4a1.16,1.16,0,0,1-.39.8,1.2,1.2,0,0,1-.86.34,1,1,0,0,1-.83-.38,1.13,1.13,0,0,1-.31-.87c.14-1.57.25-3,.35-4.29s.14-2.42.14-3.43c0-.4,0-.77,0-1.12s0-.66-.07-1-.14-.26-.31-.1a27.07,27.07,0,0,1-2.88,2.29,32.9,32.9,0,0,1-3.42,2,1.15,1.15,0,0,1-.52.1,1.14,1.14,0,0,1-.62-.17,1,1,0,0,1-.42-.5,1.27,1.27,0,0,1-.1-.52,1.17,1.17,0,0,1,.68-1.12,30.22,30.22,0,0,0,6.64-4.81,20.24,20.24,0,0,0,4.27-5.93,1.2,1.2,0,0,1,1.1-.7A1,1,0,0,1,850.14,78.69Z"/><path d="M869.25,86.88a1,1,0,0,1-.83.34,1.23,1.23,0,0,1-.88-.34,8.48,8.48,0,0,0-4.47-2,1.32,1.32,0,0,1-.74-.42,1.16,1.16,0,0,1-.3-.78,1.22,1.22,0,0,1,1.35-1.25,10.5,10.5,0,0,1,3.29,1,12.6,12.6,0,0,1,2.53,1.62,1.17,1.17,0,0,1,.42.91A1.31,1.31,0,0,1,869.25,86.88Zm-5.84,10.9-.21,0a1.09,1.09,0,0,1-.81-.34,1.14,1.14,0,0,1-.34-.83,1.27,1.27,0,0,1,.29-.8,1.25,1.25,0,0,1,.75-.47,26.21,26.21,0,0,0,3.73-1.24,28.27,28.27,0,0,0,4.1-2.08,27.67,27.67,0,0,0,4-3,26.27,26.27,0,0,0,3.63-3.93,1.13,1.13,0,0,1,1-.5,1.2,1.2,0,0,1,.75.26,1.32,1.32,0,0,1,.5,1,1.21,1.21,0,0,1-.26.73,27.12,27.12,0,0,1-3.36,3.67A34.71,34.71,0,0,1,873,93.58a31.07,31.07,0,0,1-4.69,2.58A24.54,24.54,0,0,1,863.41,97.78Z"/><path d="M907.63,97.54a1.09,1.09,0,0,1,.57.38,1,1,0,0,1,.21.61.61.61,0,0,1,0,.14.83.83,0,0,1,0,.15,1.11,1.11,0,0,1-1.09.78,1.12,1.12,0,0,1-.29,0c-1-.29-2.07-.66-3.16-1.09a32.74,32.74,0,0,1-3.11-1.43,23.18,23.18,0,0,1-2.57-1.56c-.12-.09-.18,0-.18.1v3.3a1.13,1.13,0,0,1-1.09,1.1,1.07,1.07,0,0,1-.76-.33,1,1,0,0,1-.33-.77V95.64c0-.15-.07-.19-.19-.1a23,23,0,0,1-2.77,1.64c-1,.54-2.1,1-3.15,1.43a27,27,0,0,1-2.81,1,.28.28,0,0,1-.13,0h-.13a1,1,0,0,1-.71-.3,1,1,0,0,1-.31-.74,1.1,1.1,0,0,1,.25-.68,1.23,1.23,0,0,1,.61-.42c.78-.22,1.59-.5,2.43-.83s1.67-.69,2.47-1.08,1.53-.77,2.17-1.15q.11-.06.09-.12s-.05-.07-.14-.07H887a1,1,0,0,1-.75-.32,1,1,0,0,1-.32-.74,1.07,1.07,0,0,1,.32-.77,1,1,0,0,1,.75-.32h8.66a.14.14,0,0,0,.16-.16V91a1,1,0,0,1,.32-.76,1.06,1.06,0,0,1,1.53,0A1,1,0,0,1,898,91v.94a.14.14,0,0,0,.16.16h8.76a1,1,0,0,1,.75.32,1.06,1.06,0,0,1,.31.77,1,1,0,0,1-.31.75,1,1,0,0,1-.75.31h-6.45c-.07,0-.1,0-.1.08a.13.13,0,0,0,.1.13,22.33,22.33,0,0,0,2.35,1.26c.86.41,1.71.77,2.56,1.1S907,97.35,907.63,97.54ZM891.56,84.93c.07,0,.09-.07.07-.11a.15.15,0,0,0-.14-.07h-4.42a1.05,1.05,0,0,1-.75-.31,1,1,0,0,1-.32-.73,1,1,0,0,1,.31-.74,1.06,1.06,0,0,1,.76-.3h6.65a.24.24,0,0,0,.21-.1,9.39,9.39,0,0,0,1-1.48,1.63,1.63,0,0,1,.44-.47c.12-.09.11-.13-.05-.13H889a.13.13,0,0,0-.15.15V81a1.1,1.1,0,0,1-.33.78,1,1,0,0,1-.77.33,1.06,1.06,0,0,1-.79-.32,1.1,1.1,0,0,1-.32-.79V80.2a1.67,1.67,0,0,1,.49-1.21,1.63,1.63,0,0,1,1.22-.5h7.33a.14.14,0,0,0,.16-.16v-.18a1.07,1.07,0,0,1,.33-.78,1,1,0,0,1,.79-.34,1.13,1.13,0,0,1,.78.32,1.1,1.1,0,0,1,.34.8v.18a.14.14,0,0,0,.15.16h7.34a1.71,1.71,0,0,1,1.71,1.71V81a1.13,1.13,0,0,1-.32.78,1.06,1.06,0,0,1-.77.33,1,1,0,0,1-.79-.32A1.07,1.07,0,0,1,905,81v-.37a.13.13,0,0,0-.15-.15h-8.27c-.16,0-.18,0-.06.13a.88.88,0,0,1,.47.8,1.49,1.49,0,0,1,0,.21,1.8,1.8,0,0,1-.08.21,3,3,0,0,1-.34.65c-.05.12,0,.18.1.18h10.09a1.06,1.06,0,0,1,.76.3,1,1,0,0,1,0,1.47,1,1,0,0,1-.76.31H902.9a.25.25,0,0,0-.21.11,9,9,0,0,1-2.18,2.28c-.11.11-.09.18,0,.21,1.13.28,2.23.59,3.33.92s2.1.71,3,1.11a1,1,0,0,1,.65,1,1,1,0,0,1-.31.73,1,1,0,0,1-.7.28,1,1,0,0,1-.4-.08c-1.43-.55-2.83-1-4.17-1.43s-2.68-.73-4-1a.33.33,0,0,0-.21,0,20.72,20.72,0,0,1-4.62,1.68,35.54,35.54,0,0,1-5.65.9,1.15,1.15,0,0,1-.84-.29,1,1,0,0,1-.36-.8,1.11,1.11,0,0,1,.26-.71.91.91,0,0,1,.68-.33c.93-.09,1.9-.21,2.91-.37a29.24,29.24,0,0,0,3-.62c.07,0,.11-.08.11-.13s0-.08-.13-.08l-1-.1c-.36,0-.72-.06-1.08-.08a1.09,1.09,0,0,1-.82-.39,1.23,1.23,0,0,1-.3-.81,1.07,1.07,0,0,1,.13-.53,1.32,1.32,0,0,1,.39-.43l.6-.42A4.51,4.51,0,0,0,891.56,84.93Zm8.27,0a.1.1,0,0,0,0-.11s0-.07-.12-.07H895a.29.29,0,0,0-.19.08l-.53.53-.56.53c-.1.11-.09.18,0,.21.52.06,1.08.13,1.67.22l1.87.33a.28.28,0,0,0,.21,0,12.82,12.82,0,0,0,1.23-.78A7.88,7.88,0,0,0,899.83,84.93Z"/><path d="M1078.55,91.17a1.08,1.08,0,0,1,.85.38,1.15,1.15,0,0,1,.27.9c-.09.66-.24,1.5-.46,2.55a23,23,0,0,1-1.07,3.53,1.07,1.07,0,0,1-.43.53,1.2,1.2,0,0,1-.67.2,1,1,0,0,1-.75-.3,1,1,0,0,1-.21-1.1,17.93,17.93,0,0,0,.91-2.8q.35-1.41.57-3a1,1,0,0,1,.34-.64A1,1,0,0,1,1078.55,91.17ZM1084,86c.24.46.5,1,.77,1.6a18.16,18.16,0,0,1,.71,1.8.41.41,0,0,1,.06.2v.19a1.19,1.19,0,0,1-.3.78,1,1,0,0,1-.8.37.94.94,0,0,1-.58-.21,1.08,1.08,0,0,1-.38-.55l-.1-.34c0-.12-.11-.16-.21-.13l-.91.27c-.09,0-.13.08-.13.15v8.79a1.13,1.13,0,0,1-.32.78,1.1,1.1,0,0,1-1.58,0,1.07,1.07,0,0,1-.34-.79V90.52c0-.12-.05-.16-.15-.13-.49.06-.93.1-1.33.13l-1,.11a1,1,0,0,1-.83-.34,1.18,1.18,0,0,1-.21-1.27,1,1,0,0,1,.37-.42,7.38,7.38,0,0,0,1-.85,13.4,13.4,0,0,0,1-1,.26.26,0,0,0,0-.21,6.74,6.74,0,0,0-.62-1.08,9,9,0,0,0-.91-1.08,1.8,1.8,0,0,1-.5-1.25,2,2,0,0,1,.39-1.17,8,8,0,0,0,1-1.69,10,10,0,0,0,.63-2.1,1.18,1.18,0,0,1,.39-.65,1.06,1.06,0,0,1,.71-.26,1,1,0,0,1,.88.43,1.1,1.1,0,0,1,.21.92,11.74,11.74,0,0,1-.85,2.53,12.29,12.29,0,0,1-1,1.81.15.15,0,0,0,0,.21l.43.52a8,8,0,0,1,.56.78c.08.12.16.12.23,0a18,18,0,0,0,1.92-5,1.1,1.1,0,0,1,1.85-.5,1,1,0,0,1,.31.76,1.34,1.34,0,0,1,0,.24,20.34,20.34,0,0,1-3.85,8s0,.1,0,.13.06,0,.13,0l.87-.17a7.79,7.79,0,0,0,.8-.2c.12,0,.14-.1.07-.2l-.28-.5a1.17,1.17,0,0,1-.16-.6,1,1,0,0,1,.15-.53.85.85,0,0,1,.4-.37A1.08,1.08,0,0,1,1084,86Zm.42,6.08a13.4,13.4,0,0,1,.57,2q.26,1.2.42,2.16a1.17,1.17,0,0,1-.21.81,1.14,1.14,0,0,1-.73.46,1,1,0,0,1-.77-.2,1,1,0,0,1-.4-.68,15.74,15.74,0,0,0-.35-2.11,8.87,8.87,0,0,0-.56-1.66,1.06,1.06,0,0,1-.13-.49,1,1,0,0,1,.18-.57.94.94,0,0,1,.47-.37,1.25,1.25,0,0,1,.42-.08,1.13,1.13,0,0,1,.63.19A1.17,1.17,0,0,1,1084.43,92Zm8.66-10.92a.14.14,0,0,0,.15.16h3.33a1.67,1.67,0,0,1,1.21.49,1.64,1.64,0,0,1,.51,1.22v14.1a2.83,2.83,0,0,1-.77,2.24,3.85,3.85,0,0,1-2.61.64,1.07,1.07,0,0,1-.82-.35,1.19,1.19,0,0,1-.33-.84,1.16,1.16,0,0,1,.37-.8,1.07,1.07,0,0,1,.8-.3l.34,0h.26c.26,0,.42,0,.47-.13a1.08,1.08,0,0,0,.08-.49V93.83c0-.09-.06-.13-.19-.11a.56.56,0,0,1-.2,0,.92.92,0,0,1-.68-.31,12.21,12.21,0,0,1-1.6-2.48,24.72,24.72,0,0,1-1.29-3.11c0-.09,0-.14-.09-.14s-.08.05-.11.14a24.18,24.18,0,0,1-1.12,2.84,14.43,14.43,0,0,1-1.64,2.69.86.86,0,0,1-.68.34.43.43,0,0,1-.19,0,1.17,1.17,0,0,0-.2-.06c-.12-.07-.18,0-.18.1v5.15a1.13,1.13,0,0,1-.32.78,1.12,1.12,0,0,1-1.91-.78V83a1.65,1.65,0,0,1,.5-1.21,1.68,1.68,0,0,1,1.21-.5h3.3a.14.14,0,0,0,.16-.16V78.36a1.05,1.05,0,0,1,.34-.8,1.1,1.1,0,0,1,.78-.32,1.13,1.13,0,0,1,.78.32,1.09,1.09,0,0,1,.34.8Zm-5,2.37c-.11,0-.16,0-.16.15v7.54c0,.07,0,.12.07.13s.08,0,.11,0a12.37,12.37,0,0,0,1.3-2.48,21,21,0,0,0,.89-2.72,22.09,22.09,0,0,0,.47-2.42c0-.1,0-.15-.13-.15Zm8,.15a.14.14,0,0,0-.16-.15h-2.47c-.1,0-.15,0-.13.15a22.65,22.65,0,0,0,.48,2.37,19.58,19.58,0,0,0,.85,2.59,13,13,0,0,0,1.24,2.37c0,.08.08.1.12.08s.07-.06.07-.13Z"/><path d="M1110.77,99.57h-6.17a1.71,1.71,0,0,1-1.71-1.71V91a1.67,1.67,0,0,1,.49-1.19,1.61,1.61,0,0,1,1.22-.52h6.17a1.72,1.72,0,0,1,1.71,1.71v6.9a1.72,1.72,0,0,1-1.71,1.71Zm-5.52-8.11c-.1,0-.15.05-.15.16v5.61c0,.11.05.16.15.16h4.87c.1,0,.15,0,.15-.16V91.62c0-.11,0-.16-.15-.16Zm13.06-4.6h-9.88a1.68,1.68,0,0,1-1.21-.5,1.62,1.62,0,0,1-.51-1.22V79.68a1.74,1.74,0,0,1,1.72-1.72h9.88a1.72,1.72,0,0,1,1.71,1.72v5.46a1.72,1.72,0,0,1-1.71,1.72Zm-9.18-6.71c-.11,0-.16,0-.16.15v4.22c0,.1,0,.15.16.15h8.47c.11,0,.16,0,.16-.15V80.3c0-.1,0-.15-.16-.15Zm13,19.42H1116a1.71,1.71,0,0,1-1.72-1.71V91a1.72,1.72,0,0,1,.49-1.19,1.62,1.62,0,0,1,1.23-.52h6.18a1.6,1.6,0,0,1,1.21.52,1.65,1.65,0,0,1,.51,1.19v6.9a1.74,1.74,0,0,1-1.72,1.71Zm-5.53-8.11a.14.14,0,0,0-.16.16v5.61a.14.14,0,0,0,.16.16h4.88a.14.14,0,0,0,.16-.16V91.62a.14.14,0,0,0-.16-.16Z"/><path d="M49.92,50.57a.28.28,0,0,0,0,.13c0,.1.07.16.21.16h3.12a3.65,3.65,0,0,1,2.83.93,3.31,3.31,0,0,1,.83,2.29,6.6,6.6,0,0,1-.65,2.76,21.93,21.93,0,0,1-4.31,6.38,23,23,0,0,1-6.45,4.56,1.14,1.14,0,0,1-.52.11,1.2,1.2,0,0,1-.62-.17,1.2,1.2,0,0,1-.52-1,1.16,1.16,0,0,1,.7-1.12,20.51,20.51,0,0,0,4.68-3,17.92,17.92,0,0,0,4.86-6.72,5.39,5.39,0,0,0,.47-1.77.82.82,0,0,0-.34-.74,1.82,1.82,0,0,0-1-.22H48.64a.35.35,0,0,0-.28.16,34.75,34.75,0,0,1-2.46,3.53,21.73,21.73,0,0,1-2.64,2.84,1.05,1.05,0,0,1-.73.26,1.22,1.22,0,0,1-1-.45,1.16,1.16,0,0,1-.26-.72,1.25,1.25,0,0,1,.44-1,19.35,19.35,0,0,0,2.2-2.3,30.13,30.13,0,0,0,2-2.68,29.27,29.27,0,0,0,1.61-2.72,21,21,0,0,0,1.12-2.46,1.17,1.17,0,0,1,.43-.55,1.09,1.09,0,0,1,.64-.21.76.76,0,0,1,.21,0,.84.84,0,0,1,.2.08,1.24,1.24,0,0,1,.71,1.56,10.47,10.47,0,0,1-.42,1Z"/><path d="M80.34,47.61a1.1,1.1,0,0,1,.54.45,1.26,1.26,0,0,1,.18.66,1,1,0,0,1-.1.47,21.65,21.65,0,0,1-1.49,2.63,29.79,29.79,0,0,1-2.07,2.73.28.28,0,0,0-.08.31,9.6,9.6,0,0,1,.42,2,25.59,25.59,0,0,1,.13,2.64c0,1,0,2.09-.11,3.3s-.17,2.56-.31,4a1.2,1.2,0,0,1-.39.81,1.23,1.23,0,0,1-.86.33,1.07,1.07,0,0,1-.83-.37,1.15,1.15,0,0,1-.31-.87c.14-1.58.25-3,.35-4.29s.14-2.43.14-3.44c0-.39,0-.77,0-1.11s0-.67-.08-1-.14-.26-.31-.1a27.07,27.07,0,0,1-2.88,2.29,30.32,30.32,0,0,1-3.42,2,1.11,1.11,0,0,1-.52.11,1.23,1.23,0,0,1-.62-.17,1.06,1.06,0,0,1-.42-.51,1.27,1.27,0,0,1-.1-.52,1.2,1.2,0,0,1,.68-1.12,29.9,29.9,0,0,0,6.64-4.81,20.28,20.28,0,0,0,4.28-5.93,1.14,1.14,0,0,1,.45-.52,1.21,1.21,0,0,1,.64-.18A1,1,0,0,1,80.34,47.61Z"/><path d="M96.9,60.16a.89.89,0,0,1-.52.16.94.94,0,0,1-.89-.57c-.27-.61-.55-1.31-.84-2.11A17.74,17.74,0,0,1,94,55.43a.67.67,0,0,1,0-.23,1,1,0,0,1,.31-.72,1,1,0,0,1,.73-.32,1.11,1.11,0,0,1,.68.24,1.14,1.14,0,0,1,.39.62c.14.57.32,1.2.56,1.88s.47,1.3.71,1.86a1,1,0,0,1,.1.47A1,1,0,0,1,96.9,60.16Zm2.44,7.78a1.06,1.06,0,0,0-.19.06.51.51,0,0,1-.22,0,1.11,1.11,0,0,1-1.07-1.12,1.14,1.14,0,0,1,.2-.63,1.07,1.07,0,0,1,.53-.43A11.12,11.12,0,0,0,102,63.49a12.2,12.2,0,0,0,2.24-3.12A17.83,17.83,0,0,0,105.56,57a22,22,0,0,0,.59-3.19,1,1,0,0,1,.43-.71.94.94,0,0,1,.8-.17,1.18,1.18,0,0,1,.74.49,1.26,1.26,0,0,1,.22.86,19.46,19.46,0,0,1-2.93,8.54A13.62,13.62,0,0,1,99.34,67.94Zm1.28-9.13a1,1,0,0,1-.45.11.93.93,0,0,1-.91-.63c-.22-.59-.43-1.25-.63-2s-.36-1.47-.48-2.18a1,1,0,0,1,.26-.84,1,1,0,0,1,.78-.36,1,1,0,0,1,.66.26,1,1,0,0,1,.35.62,15.51,15.51,0,0,0,.43,1.91c.18.64.36,1.2.53,1.68a1.13,1.13,0,0,1-.54,1.43Z"/><path d="M127.92,50.57a.28.28,0,0,0,0,.13c0,.1.07.16.21.16h3.12a3.65,3.65,0,0,1,2.83.93,3.31,3.31,0,0,1,.83,2.29,6.6,6.6,0,0,1-.65,2.76,21.93,21.93,0,0,1-4.31,6.38,23,23,0,0,1-6.45,4.56,1.14,1.14,0,0,1-.52.11,1.2,1.2,0,0,1-.62-.17,1.2,1.2,0,0,1-.52-1,1.16,1.16,0,0,1,.7-1.12,20.51,20.51,0,0,0,4.68-3,17.92,17.92,0,0,0,4.86-6.72,5.39,5.39,0,0,0,.47-1.77.82.82,0,0,0-.34-.74,1.82,1.82,0,0,0-1-.22h-4.53a.35.35,0,0,0-.28.16,34.75,34.75,0,0,1-2.46,3.53,21.73,21.73,0,0,1-2.64,2.84,1.05,1.05,0,0,1-.73.26,1.22,1.22,0,0,1-1-.45,1.16,1.16,0,0,1-.26-.72,1.25,1.25,0,0,1,.44-1,19.35,19.35,0,0,0,2.2-2.3,30.13,30.13,0,0,0,2-2.68,29.27,29.27,0,0,0,1.61-2.72,21,21,0,0,0,1.12-2.46,1.17,1.17,0,0,1,.43-.55,1.09,1.09,0,0,1,.64-.21.76.76,0,0,1,.21,0,.84.84,0,0,1,.2.08,1.24,1.24,0,0,1,.71,1.56,10.47,10.47,0,0,1-.42,1Z"/><path d="M58.81,101.28a1.17,1.17,0,0,1,.23.7,1.3,1.3,0,0,1-.49,1,1.09,1.09,0,0,1-.68.24,1.13,1.13,0,0,1-.93-.47A14.57,14.57,0,0,0,55,100.5a17.87,17.87,0,0,0-2.35-2,12.36,12.36,0,0,0-2.48-1.35.27.27,0,0,0-.32,0,33,33,0,0,1-3.8,3A31.31,31.31,0,0,1,41.21,103a1.2,1.2,0,0,1-.47.1,1.09,1.09,0,0,1-.76-.31,1.07,1.07,0,0,1-.33-.81,1.3,1.3,0,0,1,.22-.73,1.26,1.26,0,0,1,.58-.49,26.84,26.84,0,0,0,8-5.45A23.33,23.33,0,0,0,51,92.45a16.25,16.25,0,0,0,1.46-2.32A4.5,4.5,0,0,0,53,88.41c0-.54-.35-.81-1-.81h-.33a1.29,1.29,0,0,0-.37.06c-.59.08-1.38.17-2.37.26s-2.07.15-3.24.2-2.32.08-3.44.08a1.09,1.09,0,0,1-1.09-1.12,1.15,1.15,0,0,1,.33-.83,1.18,1.18,0,0,1,.84-.34h1.17c1.52,0,3,0,4.31-.15s2.4-.23,3.15-.37c.19,0,.37-.06.54-.07l.52,0a3.4,3.4,0,0,1,2.44.84,3,3,0,0,1,.87,2.25,6.45,6.45,0,0,1-.73,2.79A16.19,16.19,0,0,1,53.45,93a22.24,22.24,0,0,1-1.53,2.06.17.17,0,0,0-.05.15.21.21,0,0,0,.13.18A16.92,16.92,0,0,1,54.57,97a22.6,22.6,0,0,1,2.37,2.08A20.73,20.73,0,0,1,58.81,101.28Z"/><path d="M76.12,85.47a.43.43,0,0,0,0,.11q0,.18.21.18H78.2a5.5,5.5,0,0,1,2.44.45,2.92,2.92,0,0,1,1.28,1.19A3.33,3.33,0,0,1,82.31,89a5.64,5.64,0,0,1-.21,1.49A6.53,6.53,0,0,1,81.53,92a24.78,24.78,0,0,1-6.22,7.9,40.2,40.2,0,0,1-5,3.59,1.21,1.21,0,0,1-.6.18,1,1,0,0,1-.93-.57,1.12,1.12,0,0,1-.16-.57,1.07,1.07,0,0,1,.57-1,27.76,27.76,0,0,0,3.73-2.58,29.1,29.1,0,0,0,2.93-2.77.24.24,0,0,0,0-.34,8.12,8.12,0,0,0-1.53-1.51,8.61,8.61,0,0,0-1.9-1.12,1,1,0,0,1-.67-1,1,1,0,0,1,.1-.44A1.23,1.23,0,0,1,73,91a1,1,0,0,1,.45.1,9.64,9.64,0,0,1,2.13,1.28A12.67,12.67,0,0,1,77.29,94c.13.12.24.12.34,0,.38-.52.73-1,1-1.56s.59-1,.83-1.51a3.76,3.76,0,0,0,.5-1.66c0-.89-.6-1.33-1.8-1.33H74.67a.43.43,0,0,0-.29.13,31.59,31.59,0,0,1-2.7,3.2,30,30,0,0,1-3.12,2.81,1.07,1.07,0,0,1-.65.21,1,1,0,0,1-.91-.45,1.09,1.09,0,0,1-.21-.67,1.05,1.05,0,0,1,.44-.91,26.73,26.73,0,0,0,3.64-3.38,26.86,26.86,0,0,0,4-5.8,1.06,1.06,0,0,1,.44-.47,1.33,1.33,0,0,1,.63-.15,1.16,1.16,0,0,1,.44.07,1.06,1.06,0,0,1,.51.42,1.17,1.17,0,0,1,.16.6,1,1,0,0,1-.1.47A10.54,10.54,0,0,1,76.12,85.47Z"/><path d="M109.22,94.26H93a1.15,1.15,0,0,1-.81-2A1.13,1.13,0,0,1,93,92h16.22a1.1,1.1,0,0,1,.81.34,1.15,1.15,0,0,1,0,1.63A1.17,1.17,0,0,1,109.22,94.26Z"/><path d="M135.07,95.22a1.18,1.18,0,0,1,.33.86,1.25,1.25,0,0,1-.33.88.9.9,0,0,1-.76.34,1.07,1.07,0,0,1-.8-.34,14.88,14.88,0,0,0-3.25-2.7,10.93,10.93,0,0,0-3.64-1.35h-.06a.18.18,0,0,0-.2.21v9a1.15,1.15,0,0,1-.34.82,1.12,1.12,0,0,1-.86.35,1.17,1.17,0,0,1-.82-.33,1.15,1.15,0,0,1-.35-.84V84.54a1.17,1.17,0,0,1,.35-.85,1.16,1.16,0,0,1,1.66,0,1.14,1.14,0,0,1,.36.85v5.82c0,.12.07.2.23.23a12.05,12.05,0,0,1,3.21.93,16.76,16.76,0,0,1,2.89,1.65A17.14,17.14,0,0,1,135.07,95.22Z"/><path d="M68.48,135.9a1.22,1.22,0,0,1,1.35,1.22,1.21,1.21,0,0,1-.32.82,1.28,1.28,0,0,1-.8.4c-.71.07-1.71.14-3,.22s-2.76.12-4.41.12c-2.86,0-4.55-.82-5.09-2.47a3.65,3.65,0,0,1-.21-1.15,4,4,0,0,1,1.38-2.84,18.87,18.87,0,0,1,4.31-3c.18-.09.2-.2.08-.34a1.85,1.85,0,0,0-1.53-.62,7,7,0,0,0-3.17,1,1.49,1.49,0,0,0-.24.18l-.19.16-.22.16a1.11,1.11,0,0,1-1.59-.34,1.07,1.07,0,0,1-.18-.63,1.27,1.27,0,0,1,.12-.52,1,1,0,0,1,.37-.44,10.56,10.56,0,0,0,2.63-3.07.58.58,0,0,0,0-.13c0-.12-.08-.16-.23-.13-.49.07-1,.12-1.39.15s-.85,0-1.21.09a1.07,1.07,0,0,1-.84-.3,1.18,1.18,0,0,1,0-1.64,1.25,1.25,0,0,1,.81-.35c.61,0,1.24-.08,1.9-.14s1.32-.14,2-.22c.14,0,.22-.11.23-.21.16-.44.31-.89.46-1.37s.28-1,.4-1.47a1.14,1.14,0,0,1,.42-.63,1.07,1.07,0,0,1,.7-.25,1.11,1.11,0,0,1,.86.35,1.16,1.16,0,0,1,.31.79v.13a.41.41,0,0,1,0,.16c-.07.28-.14.55-.23.82s-.17.53-.26.79c0,0,0,0,0,0a.05.05,0,0,0,0,0c0,.16.09.21.26.16l1.29-.43c.43-.15.84-.3,1.24-.46a1,1,0,0,1,.46-.1,1,1,0,0,1,1,.67,1.5,1.5,0,0,1,.07.45,1,1,0,0,1-.67,1.06,17.14,17.14,0,0,1-2.13.74c-.77.22-1.55.41-2.34.59a.32.32,0,0,0-.26.18,7.5,7.5,0,0,1-.42.91c-.16.29-.31.57-.47.83a.87.87,0,0,0,0,.13c0,.11.08.15.23.13l.36,0h.32a3.91,3.91,0,0,1,2,.49,4.09,4.09,0,0,1,1.3,1.25.21.21,0,0,0,.31.08c.61-.31,1.24-.67,1.91-1.07s1.37-.86,2.12-1.4a1.24,1.24,0,0,1,.65-.21,1,1,0,0,1,.94.52,1.22,1.22,0,0,1,.2.65,1.11,1.11,0,0,1-.52,1c-.57.39-1.1.72-1.58,1s-1,.56-1.46.82-1,.55-1.66.86a.26.26,0,0,0-.16.29q.08.6.15,1.38c0,.52.07,1.13.09,1.84a1.13,1.13,0,0,1-.33.81,1.12,1.12,0,0,1-.82.34,1.1,1.1,0,0,1-.8-.34,1.22,1.22,0,0,1-.37-.81c0-.36,0-.71,0-1.05s0-.66-.06-1a.19.19,0,0,0-.08-.17.25.25,0,0,0-.21,0q-3.79,2.06-3.79,3.59a1.23,1.23,0,0,0,.07.42,1.43,1.43,0,0,0,.86.78,6.39,6.39,0,0,0,2.13.26A67.51,67.51,0,0,0,68.48,135.9Z"/><path d="M99,136.34a.85.85,0,0,1,.31.39,1.12,1.12,0,0,1,.11.47,1,1,0,0,1-.26.7,5.34,5.34,0,0,1-1.3,1.09,4.89,4.89,0,0,1-1.59.55,14.42,14.42,0,0,1-2.29.15,13.32,13.32,0,0,1-2.65-.23,3,3,0,0,1-1.67-.91,3,3,0,0,1-.59-2v-3.41c0-.1,0-.15-.16-.15H87.3a.16.16,0,0,0-.15.13q-1.43,5.53-9,6.71a1.17,1.17,0,0,1-.89-.28,1,1,0,0,1-.39-.84,1.13,1.13,0,0,1,.29-.77,1.18,1.18,0,0,1,.73-.4q5.56-.78,6.91-4.37c0-.12,0-.18-.13-.18H82.47a1.68,1.68,0,0,1-1.21-.5,1.62,1.62,0,0,1-.51-1.22V119.39a1.74,1.74,0,0,1,1.72-1.72H93.75a1.74,1.74,0,0,1,1.72,1.72v11.85a1.62,1.62,0,0,1-.51,1.22,1.68,1.68,0,0,1-1.21.5H91.44c-.11,0-.16,0-.16.15v3.12a1.49,1.49,0,0,0,.21.9,1.27,1.27,0,0,0,.9.34c.46,0,1.18.06,2.17.06a9.07,9.07,0,0,0,1.13-.05,2,2,0,0,0,.83-.27,3.94,3.94,0,0,0,.82-.69,1.27,1.27,0,0,1,.91-.42A1.12,1.12,0,0,1,99,136.34ZM93,122a.14.14,0,0,0,.16-.16v-1.82c0-.1-.05-.15-.16-.15H83.2c-.11,0-.16,0-.16.15v1.82a.14.14,0,0,0,.16.16Zm-10,4.21a.14.14,0,0,0,.16.16H93a.14.14,0,0,0,.16-.16V124.4c0-.1-.05-.15-.16-.15H83.2c-.11,0-.16,0-.16.15Zm10.14,2.52c0-.1-.05-.15-.16-.15H83.2c-.11,0-.16,0-.16.15v1.82a.14.14,0,0,0,.16.16H93a.14.14,0,0,0,.16-.16Z"/><path d="M113.75,138.91a6.26,6.26,0,0,1-2.73-.49,3.06,3.06,0,0,1-1.88-2.81,3.07,3.07,0,0,1,.11-.82,3,3,0,0,1,.28-.69,2.36,2.36,0,0,1,2-1.43q1.92,0,4.89,3.51a.24.24,0,0,0,.31.08,7.15,7.15,0,0,0,1.76-.92,5.79,5.79,0,0,0,1.26-1.26,3.49,3.49,0,0,0,.62-2,3.31,3.31,0,0,0-.84-2.17,3.71,3.71,0,0,0-2.56-1.18l-.5,0-.49,0a9.14,9.14,0,0,0-3.94.94,18,18,0,0,0-4.15,2.89,1.26,1.26,0,0,1-.8.28,1.11,1.11,0,0,1-.65-.18.91.91,0,0,1-.45-.81,1,1,0,0,1,.16-.52c1.09-1.64,2.23-3.25,3.42-4.81a52.9,52.9,0,0,1,3.6-4.26.7.7,0,0,0,.08-.16c0-.1-.07-.13-.21-.1a11.86,11.86,0,0,1-1.47.14c-.54,0-1.1,0-1.65,0h-.7l-.7,0a1.09,1.09,0,0,1-.76-.37,1.12,1.12,0,0,1-.31-.8,1,1,0,0,1,.36-.82,1.14,1.14,0,0,1,.86-.3c.71,0,1.4.08,2.06.08a20.49,20.49,0,0,0,2.51-.16,11.81,11.81,0,0,0,2.35-.55,1.23,1.23,0,0,1,1.53.65,1.51,1.51,0,0,1,.13.6,1.5,1.5,0,0,1-.52,1.15,33,33,0,0,0-3,2.93,37.59,37.59,0,0,0-2.54,3.2.58.58,0,0,0,0,.13c0,.14.09.17.26.08a14.11,14.11,0,0,1,2.75-1,10.76,10.76,0,0,1,2.47-.31,6.61,6.61,0,0,1,3.72,1,4.62,4.62,0,0,1,2,2.65,6.6,6.6,0,0,1,.29,1.82,5.58,5.58,0,0,1-1.16,3.42,8.11,8.11,0,0,1-3.17,2.47A11,11,0,0,1,113.75,138.91Zm.28-2.13c.11,0,.17,0,.2-.1a.2.2,0,0,0-.09-.21,7,7,0,0,0-1.42-1.33,2,2,0,0,0-1-.36.52.52,0,0,0-.43.18.68.68,0,0,0-.14.42.76.76,0,0,0,0,.15.94.94,0,0,0,0,.16,1.52,1.52,0,0,0,1,.8A5.15,5.15,0,0,0,114,136.78Z"/><circle class="cls-1" cx="596.57" cy="89" r="85"/><circle class="cls-2" cx="850.61" cy="89" r="85"/><circle class="cls-3" cx="1104.65" cy="89" r="85"/><circle class="cls-4" cx="342.54" cy="88.5" r="85"/><polyline class="cls-5" points="450.84 92.18 488.27 92.18 479.63 80.67"/><circle class="cls-6" cx="88.5" cy="88.5" r="85"/><polyline class="cls-7" points="196.81 92.18 234.23 92.18 225.59 80.67"/><polyline class="cls-8" points="704.88 92.18 742.3 92.18 733.67 80.67"/><polyline class="cls-9" points="958.92 92.18 996.34 92.18 987.71 80.67"/></g></g></svg>